<svg width="686" height="111" viewBox="0 0 686 111" fill="none" xmlns="http://www.w3.org/2000/svg">
<path d="M23.0268 44.314C21.6939 44.314 20.2237 44.2748 18.6164 44.1964C17.0483 44.118 15.5782 44.0396 14.2061 43.9611C12.8339 43.9219 11.7951 43.9023 11.0894 43.9023C10.3053 43.9023 9.44288 43.9023 8.502 43.9023C7.56113 43.9415 6.58105 43.9807 5.56177 44.02C4.58169 44.0592 3.64081 44.0788 2.73914 44.0788C2.46472 44.0788 2.2099 44.02 1.97468 43.9023C1.73946 43.7455 1.62185 43.5299 1.62185 43.2555C1.62185 42.9027 1.71986 42.6282 1.91588 42.4322C2.1511 42.2362 2.46472 42.099 2.85675 42.0206C4.34647 41.707 5.36575 41.3149 5.9146 40.8445C6.46344 40.3349 6.73786 39.4528 6.73786 38.1983V11.501C6.73786 10.2465 6.48304 9.3644 5.9734 8.85476C5.46376 8.30591 4.42488 7.85508 2.85675 7.50225C2.46472 7.42384 2.1511 7.28663 1.91588 7.09061C1.71986 6.8946 1.62185 6.62018 1.62185 6.26735C1.62185 5.99293 1.73946 5.77731 1.97468 5.6205C2.2099 5.46369 2.46472 5.38528 2.73914 5.38528C3.64081 5.38528 4.58169 5.40488 5.56177 5.44408C6.58105 5.48329 7.56113 5.54209 8.502 5.6205C9.48208 5.6597 10.3641 5.6793 11.1482 5.6793C11.7755 5.6793 12.5987 5.6597 13.618 5.6205C14.6373 5.54209 15.735 5.48329 16.9111 5.44408C18.1264 5.36568 19.2829 5.30687 20.3805 5.26767C21.5174 5.18926 22.4387 5.15006 23.1444 5.15006C26.1238 5.15006 28.868 5.6205 31.377 6.56137C33.9252 7.46304 36.1402 8.77635 38.0219 10.5013C39.9429 12.187 41.4326 14.1864 42.4911 16.4994C43.5496 18.8123 44.0788 21.3606 44.0788 24.144C44.0788 26.7706 43.6084 29.2992 42.6675 31.7298C41.7266 34.1212 40.3545 36.2773 38.5512 38.1983C36.7478 40.08 34.5525 41.5698 31.9651 42.6674C29.3777 43.7651 26.3982 44.314 23.0268 44.314ZM22.1447 41.3149C24.8105 41.3149 27.0451 40.6681 28.8484 39.3744C30.6518 38.0415 31.9847 36.2185 32.8471 33.9055C33.7488 31.5534 34.1996 28.8287 34.1996 25.7317C34.1996 23.1051 33.9056 20.7333 33.3176 18.6163C32.7687 16.4602 31.9455 14.6176 30.8478 13.0887C29.7893 11.5598 28.4564 10.3837 26.8491 9.56041C25.2809 8.69794 23.4972 8.26671 21.4978 8.26671C20.2433 8.26671 19.1849 8.30591 18.3224 8.38432C17.4991 8.46272 16.8719 8.65874 16.4406 8.97236C16.0094 9.28599 15.7938 9.79563 15.7938 10.5013V36.1401C15.7938 37.4338 16.029 38.4531 16.4994 39.198C17.0091 39.9428 17.7343 40.4917 18.6752 40.8445C19.6553 41.1581 20.8118 41.3149 22.1447 41.3149ZM47.7615 44.0788C47.5263 44.0788 47.3106 44.02 47.1146 43.9023C46.9186 43.7455 46.8206 43.5495 46.8206 43.3143C46.8206 43.0007 46.9186 42.7459 47.1146 42.5498C47.3106 42.3538 47.5655 42.2166 47.8791 42.1382C48.8984 41.903 49.604 41.6482 49.9961 41.3737C50.4273 41.0601 50.6429 40.5897 50.6429 39.9624V27.2606C50.6429 25.9277 50.4273 24.9868 49.9961 24.438C49.604 23.8499 48.9768 23.4971 48.1143 23.3795C47.8791 23.3403 47.7027 23.2227 47.5851 23.0267C47.4675 22.8307 47.4086 22.5954 47.4086 22.321C47.4086 21.733 47.6243 21.3998 48.0555 21.3213C50.0941 20.9293 51.8974 20.3805 53.4655 19.6748C55.0729 18.9692 56.3078 18.4203 57.1702 18.0283C57.7975 17.7147 58.1895 17.5578 58.3463 17.5578C58.856 17.5578 59.1108 17.7931 59.1108 18.2635C59.0716 18.93 58.9736 19.7728 58.8168 20.7921C58.6991 21.7722 58.5815 22.7915 58.4639 23.8499C58.3855 24.9084 58.3463 25.9277 58.3463 26.9078V39.9036C58.3463 40.4525 58.5423 40.8837 58.9344 41.1973C59.3656 41.511 60.1105 41.8246 61.1689 42.1382C61.4826 42.2558 61.7374 42.393 61.9334 42.5498C62.1294 42.7066 62.2274 42.9419 62.2274 43.2555C62.2274 43.7651 61.9334 44.02 61.3454 44.02C60.6005 44.02 59.8164 44.0004 58.9932 43.9611C58.1699 43.9219 57.3662 43.8827 56.5822 43.8435C55.8373 43.8043 55.1121 43.7847 54.4064 43.7847C53.7399 43.7847 53.0343 43.8043 52.2894 43.8435C51.5838 43.8827 50.8389 43.9219 50.0549 43.9611C49.31 44.0396 48.5455 44.0788 47.7615 44.0788ZM54.23 14.9116C53.0147 14.9116 51.9366 14.4608 50.9957 13.5591C50.0941 12.6575 49.6432 11.5794 49.6432 10.3249C49.6432 8.99197 50.0941 7.87468 50.9957 6.97301C51.9366 6.07133 53.0147 5.6205 54.23 5.6205C55.6021 5.6205 56.739 6.07133 57.6407 6.97301C58.5423 7.87468 58.9932 8.99197 58.9932 10.3249C58.9932 11.5794 58.5423 12.6575 57.6407 13.5591C56.739 14.4608 55.6021 14.9116 54.23 14.9116ZM76.8652 44.7256C74.513 44.7256 72.396 44.1964 70.5143 43.1379C68.6325 42.0794 67.1232 40.6289 65.9863 38.7863C64.8886 36.9046 64.3398 34.7876 64.3398 32.4354C64.3398 30.5537 64.6926 28.7699 65.3983 27.0842C66.1039 25.3985 67.084 23.9088 68.3385 22.615C69.593 21.3213 71.0631 20.3021 72.7489 19.5572C74.4346 18.8123 76.2379 18.4399 78.1589 18.4399C80.5895 18.4399 82.7849 19.0084 84.745 20.1453C86.7052 21.2821 88.2537 22.7915 89.3906 24.6732C90.5667 26.5158 91.1547 28.5347 91.1547 30.7301C91.1547 33.2391 90.6059 35.5717 89.5082 37.7279C88.4497 39.8448 86.862 41.5502 84.745 42.8439C82.6673 44.0984 80.0406 44.7256 76.8652 44.7256ZM78.0413 42.1382C78.8646 42.1382 79.5702 41.9814 80.1583 41.6678C80.7855 41.3149 81.2951 40.8053 81.6872 40.1388C82.1576 39.3548 82.4712 38.2963 82.6281 36.9634C82.8241 35.5913 82.9221 33.984 82.9221 32.1414C82.9221 30.0244 82.6869 28.1427 82.2164 26.4962C81.746 24.8104 81.0795 23.4775 80.2171 22.4974C79.3938 21.5174 78.4137 21.0273 77.2768 21.0273C76.6496 21.0273 76.0811 21.1449 75.5715 21.3802C75.0619 21.5762 74.611 21.8702 74.219 22.2622C73.5525 23.0463 73.0821 24.1636 72.8077 25.6141C72.5725 27.0646 72.4548 28.8483 72.4548 30.9653C72.4548 32.8471 72.6901 34.6504 73.1605 36.3753C73.6701 38.0611 74.3366 39.4528 75.1599 40.5505C76.0223 41.609 76.9828 42.1382 78.0413 42.1382ZM94.9141 44.0788C94.6397 44.0788 94.3653 44.02 94.0908 43.9023C93.8556 43.7455 93.738 43.5299 93.738 43.2555C93.738 42.9419 93.8752 42.7066 94.1496 42.5498C94.4241 42.3538 94.7377 42.197 95.0905 42.0794C95.6786 41.8834 96.1882 41.6678 96.6194 41.4325C97.0899 41.1581 97.3251 40.6289 97.3251 39.8448V26.3785C97.3251 25.5161 97.1879 24.7908 96.9135 24.2028C96.6782 23.6147 96.2078 23.2423 95.5021 23.0855C95.3453 23.0463 95.1885 22.9483 95.0317 22.7915C94.9141 22.6347 94.8553 22.3798 94.8553 22.027C94.8553 21.4782 95.0513 21.1449 95.4433 21.0273C96.7762 20.7137 98.2268 20.3021 99.7949 19.7924C101.402 19.2436 102.774 18.6751 103.911 18.0871C104.068 18.0087 104.244 17.9107 104.44 17.7931C104.636 17.6755 104.813 17.6167 104.97 17.6167C105.205 17.6167 105.342 17.6951 105.381 17.8519C105.46 17.9695 105.499 18.1263 105.499 18.3223C105.499 18.6359 105.44 19.1456 105.323 19.8512C105.244 20.5177 105.205 21.1253 105.205 21.6742C105.205 21.831 105.205 22.0074 105.205 22.2034C105.244 22.3994 105.283 22.517 105.323 22.5562C106.655 21.2625 108.008 20.2629 109.38 19.5572C110.752 18.8516 112.34 18.4987 114.143 18.4987C116.182 18.4987 117.887 19.2632 119.259 20.7921C120.671 22.2818 121.376 24.3204 121.376 26.9078V39.8448C121.376 40.6289 121.592 41.1581 122.023 41.4325C122.493 41.6678 123.023 41.8834 123.611 42.0794C123.924 42.197 124.199 42.3538 124.434 42.5498C124.669 42.7066 124.787 42.9419 124.787 43.2555C124.787 43.5299 124.669 43.7455 124.434 43.9023C124.238 44.02 124.022 44.0788 123.787 44.0788C123.003 44.0788 122.258 44.0396 121.553 43.9611C120.886 43.9219 120.22 43.8827 119.553 43.8435C118.926 43.8043 118.26 43.7847 117.554 43.7847C116.887 43.7847 116.221 43.8043 115.555 43.8435C114.888 43.8827 114.222 43.9219 113.555 43.9611C112.889 44.0396 112.163 44.0788 111.379 44.0788C111.144 44.0788 110.909 44.02 110.674 43.9023C110.478 43.7455 110.38 43.5299 110.38 43.2555C110.38 42.9419 110.497 42.7066 110.733 42.5498C110.968 42.3538 111.242 42.197 111.556 42.0794C112.144 41.8834 112.634 41.6678 113.026 41.4325C113.418 41.1581 113.614 40.6289 113.614 39.8448V28.1427C113.614 26.653 113.261 25.4965 112.556 24.6732C111.889 23.8107 110.987 23.3599 109.85 23.3207C108.988 23.3207 108.224 23.4579 107.557 23.7323C106.891 24.0068 106.205 24.3792 105.499 24.8496C105.342 25.0064 105.225 25.1829 105.146 25.3789C105.068 25.5749 105.029 25.7709 105.029 25.9669V39.8448C105.029 40.6289 105.244 41.1581 105.675 41.4325C106.107 41.6678 106.597 41.8834 107.145 42.0794C107.93 42.3146 108.322 42.7066 108.322 43.2555C108.322 43.4907 108.224 43.6867 108.028 43.8435C107.832 44.0004 107.596 44.0788 107.322 44.0788C106.538 44.0788 105.813 44.0396 105.146 43.9611C104.48 43.9219 103.852 43.8827 103.264 43.8435C102.676 43.8043 102.029 43.7847 101.324 43.7847C100.657 43.7847 99.9713 43.8043 99.2656 43.8435C98.5992 43.8827 97.8935 43.9219 97.1487 43.9611C96.443 44.0396 95.6982 44.0788 94.9141 44.0788ZM142.352 44.0788C141.882 44.0788 141.529 44.02 141.294 43.9023C141.059 43.7455 140.941 43.5299 140.941 43.2555C140.941 42.9027 141.098 42.687 141.412 42.6086C141.764 42.491 142.156 42.3538 142.588 42.197C143.489 41.8834 144.273 41.3345 144.94 40.5505C145.646 39.7664 146.077 38.7667 146.234 37.5514C146.469 35.7481 146.704 33.5331 146.939 30.9065C147.214 28.2407 147.488 25.3985 147.762 22.3798C148.037 19.3612 148.272 16.3818 148.468 13.4415C148.507 13.2063 148.527 12.9123 148.527 12.5594C148.527 12.2066 148.527 11.8342 148.527 11.4422C148.527 10.7365 148.409 10.1877 148.174 9.79563C147.978 9.3644 147.625 9.01157 147.116 8.73714C146.645 8.42352 146.136 8.1687 145.587 7.97269C145.038 7.73747 144.45 7.54145 143.823 7.38464C143.352 7.26703 142.98 7.11022 142.705 6.9142C142.431 6.71819 142.294 6.46337 142.294 6.14974C142.294 5.79691 142.45 5.56169 142.764 5.44408C143.078 5.32648 143.45 5.26767 143.881 5.26767C144.469 5.26767 145.195 5.28727 146.057 5.32648C146.92 5.36568 147.861 5.40488 148.88 5.44408C149.938 5.44408 150.997 5.46368 152.055 5.50289C153.153 5.54209 154.153 5.56169 155.054 5.56169C155.368 5.56169 155.662 5.6793 155.936 5.91452C156.211 6.11054 156.387 6.34576 156.466 6.62018C156.74 7.36504 156.995 8.0903 157.23 8.79595C157.465 9.4624 157.72 10.1681 157.995 10.9129L166.639 31.5534C166.717 31.7102 166.815 31.8082 166.933 31.8474C167.09 31.8474 167.207 31.7494 167.286 31.5534L175.695 12.0302C175.969 10.6581 176.185 9.54081 176.342 8.67834C176.538 7.81587 176.714 7.12982 176.871 6.62018C177.028 6.11054 177.341 5.85572 177.812 5.85572H180.34C181.987 5.77731 183.692 5.6597 185.456 5.50289C187.26 5.30687 188.671 5.20886 189.69 5.20886C190.082 5.20886 190.415 5.28727 190.69 5.44408C191.004 5.56169 191.16 5.77731 191.16 6.09094C191.16 6.44376 191.023 6.69858 190.749 6.85539C190.513 7.01221 190.2 7.14942 189.808 7.26703C189.573 7.34543 189.298 7.46304 188.985 7.61986C188.671 7.73747 188.397 7.85508 188.161 7.97269C187.142 8.44312 186.378 8.99197 185.868 9.61922C185.397 10.2073 185.201 11.1677 185.28 12.5006C185.358 15.3233 185.456 17.7931 185.574 19.91C185.692 22.027 185.79 23.9872 185.868 25.7905C185.986 27.5938 186.103 29.4756 186.221 31.4358C186.378 33.3567 186.534 35.6109 186.691 38.1983C186.77 39.2176 187.181 40.0408 187.926 40.6681C188.71 41.2561 189.729 41.707 190.984 42.0206C191.376 42.1382 191.709 42.2754 191.984 42.4322C192.258 42.589 192.395 42.8439 192.395 43.1967C192.395 43.4711 192.278 43.6867 192.042 43.8435C191.807 44.0004 191.513 44.0788 191.16 44.0788C190.298 44.0788 189.298 44.0396 188.161 43.9611C187.064 43.9219 185.966 43.8827 184.868 43.8435C183.81 43.8043 182.888 43.7847 182.104 43.7847C181.32 43.7847 180.438 43.8043 179.458 43.8435C178.517 43.8827 177.557 43.9219 176.577 43.9611C175.597 44.0396 174.656 44.0788 173.754 44.0788C173.401 44.0788 173.088 44.02 172.813 43.9023C172.539 43.7455 172.402 43.5299 172.402 43.2555C172.402 42.9027 172.539 42.6282 172.813 42.4322C173.088 42.2362 173.421 42.099 173.813 42.0206C175.263 41.7462 176.263 41.3541 176.812 40.8445C177.361 40.2957 177.616 39.4136 177.576 38.1983C177.459 35.7677 177.361 33.3567 177.282 30.9653C177.204 28.5347 177.126 26.1629 177.047 23.8499C177.008 21.4978 176.93 19.224 176.812 17.0286C176.812 16.7542 176.734 16.6366 176.577 16.6758C176.459 16.6758 176.342 16.813 176.224 17.0874L164.992 43.7847C164.796 44.3336 164.502 44.5688 164.11 44.4904C163.718 44.412 163.444 44.216 163.287 43.9023C161.366 39.3548 159.347 34.866 157.23 30.4361C155.152 26.0061 153.231 21.6154 151.467 17.2638C151.35 16.911 151.154 16.7934 150.879 16.911C150.644 16.9894 150.507 17.2442 150.468 17.6755C150.35 19.6356 150.252 21.7918 150.173 24.144C150.095 26.457 150.056 28.8091 150.056 31.2005C150.056 33.5527 150.056 35.7481 150.056 37.7867C150.056 38.8843 150.409 39.786 151.114 40.4917C151.82 41.1581 152.937 41.6678 154.466 42.0206C154.858 42.099 155.231 42.2362 155.584 42.4322C155.936 42.589 156.113 42.8439 156.113 43.1967C156.113 43.4711 155.956 43.6867 155.642 43.8435C155.329 44.0004 154.995 44.0788 154.643 44.0788C153.584 44.0788 152.761 44.0396 152.173 43.9611C151.585 43.9219 151.056 43.9023 150.585 43.9023C150.115 43.8631 149.468 43.8435 148.645 43.8435C147.782 43.8435 146.9 43.8631 145.998 43.9023C145.097 43.9415 144.313 43.9807 143.646 44.02C142.98 44.0592 142.548 44.0788 142.352 44.0788ZM206.477 44.7256C204.124 44.7256 202.008 44.1964 200.126 43.1379C198.244 42.0794 196.735 40.6289 195.598 38.7863C194.5 36.9046 193.951 34.7876 193.951 32.4354C193.951 30.5537 194.304 28.7699 195.01 27.0842C195.715 25.3985 196.695 23.9088 197.95 22.615C199.204 21.3213 200.675 20.3021 202.36 19.5572C204.046 18.8123 205.849 18.4399 207.77 18.4399C210.201 18.4399 212.396 19.0084 214.356 20.1453C216.317 21.2821 217.865 22.7915 219.002 24.6732C220.178 26.5158 220.766 28.5347 220.766 30.7301C220.766 33.2391 220.217 35.5717 219.12 37.7279C218.061 39.8448 216.473 41.5502 214.356 42.8439C212.279 44.0984 209.652 44.7256 206.477 44.7256ZM207.653 42.1382C208.476 42.1382 209.182 41.9814 209.77 41.6678C210.397 41.3149 210.907 40.8053 211.299 40.1388C211.769 39.3548 212.083 38.2963 212.24 36.9634C212.436 35.5913 212.534 33.984 212.534 32.1414C212.534 30.0244 212.298 28.1427 211.828 26.4962C211.357 24.8104 210.691 23.4775 209.829 22.4974C209.005 21.5174 208.025 21.0273 206.888 21.0273C206.261 21.0273 205.693 21.1449 205.183 21.3802C204.673 21.5762 204.222 21.8702 203.83 22.2622C203.164 23.0463 202.694 24.1636 202.419 25.6141C202.184 27.0646 202.066 28.8483 202.066 30.9653C202.066 32.8471 202.302 34.6504 202.772 36.3753C203.282 38.0611 203.948 39.4528 204.771 40.5505C205.634 41.609 206.594 42.1382 207.653 42.1382ZM224.526 44.0788C224.251 44.0788 223.977 44.02 223.702 43.9023C223.467 43.7455 223.349 43.5299 223.349 43.2555C223.349 42.9419 223.487 42.7066 223.761 42.5498C224.036 42.3538 224.349 42.197 224.702 42.0794C225.29 41.8834 225.8 41.6678 226.231 41.4325C226.701 41.1581 226.937 40.6289 226.937 39.8448V26.3785C226.937 25.5161 226.799 24.7908 226.525 24.2028C226.29 23.6147 225.819 23.2423 225.114 23.0855C224.957 23.0463 224.8 22.9483 224.643 22.7915C224.526 22.6347 224.467 22.3798 224.467 22.027C224.467 21.4782 224.663 21.1449 225.055 21.0273C226.388 20.7137 227.838 20.3021 229.406 19.7924C231.014 19.2436 232.386 18.6751 233.523 18.0871C233.679 18.0087 233.856 17.9107 234.052 17.7931C234.248 17.6755 234.424 17.6167 234.581 17.6167C234.816 17.6167 234.954 17.6951 234.993 17.8519C235.071 17.9695 235.11 18.1263 235.11 18.3223C235.11 18.6359 235.052 19.1456 234.934 19.8512C234.856 20.5177 234.816 21.1253 234.816 21.6742C234.816 21.831 234.816 22.0074 234.816 22.2034C234.856 22.3994 234.895 22.517 234.934 22.5562C236.267 21.2625 237.619 20.2629 238.992 19.5572C240.364 18.8516 241.951 18.4987 243.755 18.4987C245.793 18.4987 247.499 19.2632 248.871 20.7921C250.282 22.2818 250.988 24.3204 250.988 26.9078V39.8448C250.988 40.6289 251.203 41.1581 251.635 41.4325C252.105 41.6678 252.634 41.8834 253.222 42.0794C253.536 42.197 253.81 42.3538 254.046 42.5498C254.281 42.7066 254.398 42.9419 254.398 43.2555C254.398 43.5299 254.281 43.7455 254.046 43.9023C253.85 44.02 253.634 44.0788 253.399 44.0788C252.615 44.0788 251.87 44.0396 251.164 43.9611C250.498 43.9219 249.831 43.8827 249.165 43.8435C248.537 43.8043 247.871 43.7847 247.165 43.7847C246.499 43.7847 245.832 43.8043 245.166 43.8435C244.5 43.8827 243.833 43.9219 243.167 43.9611C242.5 44.0396 241.775 44.0788 240.991 44.0788C240.756 44.0788 240.52 44.02 240.285 43.9023C240.089 43.7455 239.991 43.5299 239.991 43.2555C239.991 42.9419 240.109 42.7066 240.344 42.5498C240.579 42.3538 240.854 42.197 241.167 42.0794C241.755 41.8834 242.245 41.6678 242.637 41.4325C243.029 41.1581 243.225 40.6289 243.225 39.8448V28.1427C243.225 26.653 242.873 25.4965 242.167 24.6732C241.501 23.8107 240.599 23.3599 239.462 23.3207C238.599 23.3207 237.835 23.4579 237.169 23.7323C236.502 24.0068 235.816 24.3792 235.11 24.8496C234.954 25.0064 234.836 25.1829 234.758 25.3789C234.679 25.5749 234.64 25.7709 234.64 25.9669V39.8448C234.64 40.6289 234.856 41.1581 235.287 41.4325C235.718 41.6678 236.208 41.8834 236.757 42.0794C237.541 42.3146 237.933 42.7066 237.933 43.2555C237.933 43.4907 237.835 43.6867 237.639 43.8435C237.443 44.0004 237.208 44.0788 236.933 44.0788C236.149 44.0788 235.424 44.0396 234.758 43.9611C234.091 43.9219 233.464 43.8827 232.876 43.8435C232.288 43.8043 231.641 43.7847 230.935 43.7847C230.269 43.7847 229.583 43.8043 228.877 43.8435C228.211 43.8827 227.505 43.9219 226.76 43.9611C226.054 44.0396 225.31 44.0788 224.526 44.0788ZM267.324 44.7256C264.736 44.7256 262.796 44.0788 261.502 42.7851C260.209 41.4521 259.562 39.59 259.562 37.1986V23.6735C259.562 23.3207 259.424 23.0659 259.15 22.9091C258.915 22.7523 258.444 22.6543 257.739 22.615H256.974C256.7 22.615 256.465 22.3994 256.269 21.9682C256.112 21.4978 256.033 21.0861 256.033 20.7333C256.033 20.6549 256.053 20.5569 256.092 20.4393C256.171 20.2825 256.269 20.1845 256.386 20.1453C257.327 19.7924 258.327 19.2632 259.385 18.5575C260.483 17.8127 261.522 17.0286 262.502 16.2053C263.521 15.3821 264.344 14.696 264.972 14.1472C265.246 13.9512 265.481 13.7747 265.677 13.6179C265.873 13.4611 266.128 13.3827 266.442 13.3827C266.795 13.3827 267.049 13.4611 267.206 13.6179C267.363 13.7355 267.402 14.0492 267.324 14.5588L266.971 18.0283C266.932 18.4987 267.03 18.8319 267.265 19.028C267.54 19.1848 267.912 19.2632 268.382 19.2632H275.38C275.498 19.2632 275.615 19.4004 275.733 19.6748C275.851 19.9492 275.909 20.2041 275.909 20.4393C275.909 20.9881 275.831 21.5174 275.674 22.027C275.517 22.5366 275.341 22.7915 275.145 22.7915H269.676C268.774 22.7915 268.147 22.9091 267.794 23.1443C267.481 23.3403 267.324 23.7127 267.324 24.2616V35.3757C267.324 37.179 267.657 38.5315 268.324 39.4332C269.029 40.2957 269.95 40.7269 271.087 40.7269C272.224 40.7269 273.048 40.6093 273.557 40.3741C274.106 40.1388 274.596 39.9428 275.027 39.786C275.184 39.7076 275.302 39.6684 275.38 39.6684C275.576 39.6684 275.733 39.786 275.851 40.0212C275.968 40.2565 276.027 40.5309 276.027 40.8445C276.027 41.0797 275.615 41.511 274.792 42.1382C273.969 42.7655 272.891 43.3535 271.558 43.9023C270.264 44.4512 268.853 44.7256 267.324 44.7256ZM288.905 44.7256C286.788 44.7256 284.887 44.1768 283.201 43.0791C281.555 41.9422 280.241 40.4133 279.261 38.4923C278.32 36.5322 277.85 34.3172 277.85 31.8474C277.85 29.3776 278.418 27.143 279.555 25.1437C280.692 23.1051 282.241 21.4978 284.201 20.3217C286.161 19.1064 288.317 18.4987 290.669 18.4987C292.355 18.4987 293.864 18.8712 295.197 19.616C296.53 20.3217 297.589 21.2821 298.373 22.4974C299.196 23.7127 299.608 25.0848 299.608 26.6138C299.608 28.1035 299 28.8483 297.785 28.8483H286.024C285.475 28.8483 285.063 29.0052 284.789 29.3188C284.554 29.6324 284.436 30.1617 284.436 30.9065C284.436 32.3962 284.769 33.7683 285.436 35.0228C286.102 36.2381 287.004 37.1986 288.141 37.9043C289.278 38.6099 290.591 38.9628 292.081 38.9628C293.218 38.9628 294.256 38.7471 295.197 38.3159C296.177 37.8847 297.138 37.2966 298.079 36.5518C298.236 36.4341 298.373 36.3361 298.49 36.2577C298.647 36.1401 298.784 36.0813 298.902 36.0813C299.294 36.0813 299.49 36.3361 299.49 36.8458C299.49 37.277 299.333 37.8651 299.02 38.6099C298.628 39.59 297.961 40.5701 297.02 41.5502C296.119 42.491 294.982 43.2555 293.61 43.8435C292.237 44.4316 290.669 44.7256 288.905 44.7256ZM286.024 26.3785H289.552C290.65 26.3785 291.414 26.3589 291.845 26.3197C292.277 26.2805 292.669 26.2021 293.022 26.0845C293.218 26.0061 293.374 25.8101 293.492 25.4965C293.61 25.1829 293.668 24.83 293.668 24.438C293.668 23.3795 293.296 22.517 292.551 21.8506C291.845 21.1841 290.963 20.8509 289.905 20.8509C289.082 20.8509 288.298 21.0861 287.553 21.5566C286.847 21.9878 286.259 22.5758 285.789 23.3207C285.357 24.0264 285.161 24.7712 285.201 25.5553C285.201 26.1041 285.475 26.3785 286.024 26.3785ZM303.194 44.0788C302.959 44.0788 302.743 44.02 302.547 43.9023C302.351 43.7455 302.253 43.5495 302.253 43.3143C302.253 43.0007 302.351 42.7459 302.547 42.5498C302.743 42.3538 302.998 42.2166 303.312 42.1382C304.331 41.903 305.037 41.6482 305.429 41.3737C305.86 41.0601 306.076 40.5897 306.076 39.9624V27.2606C306.076 25.9277 305.86 24.9868 305.429 24.438C305.037 23.8499 304.41 23.4971 303.547 23.3795C303.312 23.3403 303.135 23.2227 303.018 23.0267C302.9 22.8307 302.841 22.5954 302.841 22.321C302.841 21.733 303.057 21.3998 303.488 21.3213C305.527 20.9293 307.33 20.3805 308.898 19.6748C310.506 18.9692 311.741 18.4203 312.603 18.0283C313.23 17.7147 313.622 17.5578 313.779 17.5578C314.289 17.5578 314.544 17.7931 314.544 18.2635C314.504 18.93 314.406 19.7728 314.25 20.7921C314.132 21.7722 314.014 22.7915 313.897 23.8499C313.818 24.9084 313.779 25.9277 313.779 26.9078V39.9036C313.779 40.4525 313.975 40.8837 314.367 41.1973C314.798 41.511 315.543 41.8246 316.602 42.1382C316.915 42.2558 317.17 42.393 317.366 42.5498C317.562 42.7066 317.66 42.9419 317.66 43.2555C317.66 43.7651 317.366 44.02 316.778 44.02C316.033 44.02 315.249 44.0004 314.426 43.9611C313.603 43.9219 312.799 43.8827 312.015 43.8435C311.27 43.8043 310.545 43.7847 309.839 43.7847C309.173 43.7847 308.467 43.8043 307.722 43.8435C307.017 43.8827 306.272 43.9219 305.488 43.9611C304.743 44.0396 303.978 44.0788 303.194 44.0788ZM309.663 14.9116C308.447 14.9116 307.369 14.4608 306.429 13.5591C305.527 12.6575 305.076 11.5794 305.076 10.3249C305.076 8.99197 305.527 7.87468 306.429 6.97301C307.369 6.07133 308.447 5.6205 309.663 5.6205C311.035 5.6205 312.172 6.07133 313.073 6.97301C313.975 7.87468 314.426 8.99197 314.426 10.3249C314.426 11.5794 313.975 12.6575 313.073 13.5591C312.172 14.4608 311.035 14.9116 309.663 14.9116ZM320.831 44.0788C320.517 44.0788 320.243 44.02 320.008 43.9023C319.773 43.7455 319.655 43.5299 319.655 43.2555C319.655 42.9419 319.773 42.7066 320.008 42.5498C320.243 42.3538 320.576 42.197 321.007 42.0794C321.87 41.805 322.438 41.511 322.713 41.1973C323.026 40.8837 323.183 40.4329 323.183 39.8448V26.3197C323.183 25.4965 323.066 24.83 322.83 24.3204C322.634 23.7715 322.164 23.3991 321.419 23.2031C321.223 23.1247 321.047 23.0267 320.89 22.9091C320.733 22.7523 320.655 22.4974 320.655 22.1446C320.655 21.5958 320.89 21.2625 321.36 21.1449C322.615 20.8313 323.987 20.4197 325.477 19.91C327.006 19.4004 328.299 18.8908 329.358 18.3811C329.554 18.2243 329.789 18.0871 330.063 17.9695C330.377 17.8127 330.593 17.7343 330.71 17.7343C331.063 17.7343 331.239 17.9499 331.239 18.3811C331.239 18.5771 331.22 18.9888 331.181 19.616C331.181 20.2041 331.161 20.8117 331.122 21.439C331.122 22.0662 331.102 22.5954 331.063 23.0267C331.063 23.3795 331.141 23.5559 331.298 23.5559C331.886 22.7327 332.572 21.929 333.356 21.1449C334.18 20.3609 335.062 19.714 336.003 19.2044C336.944 18.6947 337.865 18.4399 338.766 18.4399C340.139 18.4399 341.099 18.6947 341.648 19.2044C342.236 19.714 342.53 20.3805 342.53 21.2037C342.53 21.7918 342.354 22.4386 342.001 23.1443C341.687 23.8499 341.275 24.4576 340.766 24.9672C340.256 25.4769 339.707 25.7317 339.119 25.7317C338.766 25.7317 338.394 25.6533 338.002 25.4965C337.61 25.3005 337.218 25.1044 336.826 24.9084C336.434 24.7516 336.042 24.5948 335.65 24.438C335.297 24.242 334.964 24.144 334.65 24.144C333.631 24.144 332.749 24.5164 332.004 25.2613C331.259 26.0061 330.887 27.4958 330.887 29.7304V39.3156C330.887 40.0996 331.122 40.6877 331.592 41.0797C332.102 41.4325 332.906 41.7658 334.003 42.0794C334.435 42.197 334.748 42.3538 334.944 42.5498C335.179 42.7066 335.297 42.9419 335.297 43.2555C335.297 43.8043 334.964 44.0788 334.297 44.0788C333.121 44.0788 331.906 44.02 330.651 43.9023C329.397 43.8239 328.26 43.7847 327.241 43.7847C326.574 43.7847 325.888 43.8043 325.183 43.8435C324.516 43.8827 323.811 43.9219 323.066 43.9611C322.36 44.0396 321.615 44.0788 320.831 44.0788ZM355.9 44.7256C353.548 44.7256 351.431 44.1964 349.549 43.1379C347.668 42.0794 346.158 40.6289 345.021 38.7863C343.924 36.9046 343.375 34.7876 343.375 32.4354C343.375 30.5537 343.728 28.7699 344.433 27.0842C345.139 25.3985 346.119 23.9088 347.374 22.615C348.628 21.3213 350.098 20.3021 351.784 19.5572C353.47 18.8123 355.273 18.4399 357.194 18.4399C359.625 18.4399 361.82 19.0084 363.78 20.1453C365.74 21.2821 367.289 22.7915 368.426 24.6732C369.602 26.5158 370.19 28.5347 370.19 30.7301C370.19 33.2391 369.641 35.5717 368.543 37.7279C367.485 39.8448 365.897 41.5502 363.78 42.8439C361.702 44.0984 359.076 44.7256 355.9 44.7256ZM357.076 42.1382C357.9 42.1382 358.605 41.9814 359.193 41.6678C359.821 41.3149 360.33 40.8053 360.722 40.1388C361.193 39.3548 361.506 38.2963 361.663 36.9634C361.859 35.5913 361.957 33.984 361.957 32.1414C361.957 30.0244 361.722 28.1427 361.251 26.4962C360.781 24.8104 360.115 23.4775 359.252 22.4974C358.429 21.5174 357.449 21.0273 356.312 21.0273C355.685 21.0273 355.116 21.1449 354.607 21.3802C354.097 21.5762 353.646 21.8702 353.254 22.2622C352.588 23.0463 352.117 24.1636 351.843 25.6141C351.608 27.0646 351.49 28.8483 351.49 30.9653C351.49 32.8471 351.725 34.6504 352.196 36.3753C352.705 38.0611 353.372 39.4528 354.195 40.5505C355.057 41.609 356.018 42.1382 357.076 42.1382Z" fill="white"/>
<path d="M22.5806 86.6016H19.7624C19.5958 85.791 19.3041 85.0788 18.8874 84.4652C18.4783 83.8516 17.9783 83.3364 17.3874 82.9197C16.8041 82.4955 16.1564 82.1773 15.4442 81.9652C14.7321 81.7531 13.9897 81.647 13.217 81.647C11.8079 81.647 10.5314 82.0031 9.38743 82.7152C8.25107 83.4273 7.34576 84.4766 6.67152 85.8629C6.00485 87.2493 5.67152 88.95 5.67152 90.9652C5.67152 92.9803 6.00485 94.6811 6.67152 96.0675C7.34576 97.4538 8.25107 98.5031 9.38743 99.2152C10.5314 99.9273 11.8079 100.283 13.217 100.283C13.9897 100.283 14.7321 100.177 15.4442 99.9652C16.1564 99.7531 16.8041 99.4387 17.3874 99.022C17.9783 98.5978 18.4783 98.0788 18.8874 97.4652C19.3041 96.844 19.5958 96.1319 19.7624 95.3288H22.5806C22.3685 96.5182 21.9821 97.5826 21.4215 98.522C20.8609 99.4614 20.1639 100.261 19.3306 100.92C18.4973 101.571 17.5617 102.067 16.5238 102.408C15.4935 102.749 14.3912 102.92 13.217 102.92C11.2321 102.92 9.46697 102.435 7.92152 101.465C6.37607 100.496 5.16016 99.1167 4.27379 97.3288C3.38743 95.541 2.94425 93.4197 2.94425 90.9652C2.94425 88.5107 3.38743 86.3894 4.27379 84.6016C5.16016 82.8137 6.37607 81.4349 7.92152 80.4652C9.46697 79.4955 11.2321 79.0107 13.217 79.0107C14.3912 79.0107 15.4935 79.1811 16.5238 79.522C17.5617 79.8629 18.4973 80.3629 19.3306 81.022C20.1639 81.6735 20.8609 82.469 21.4215 83.4084C21.9821 84.3402 22.3685 85.4046 22.5806 86.6016ZM33.8619 102.965C32.2861 102.965 30.9035 102.59 29.7141 101.84C28.5323 101.09 27.6081 100.041 26.9414 98.6925C26.2823 97.344 25.9528 95.7682 25.9528 93.9652C25.9528 92.147 26.2823 90.5599 26.9414 89.2038C27.6081 87.8478 28.5323 86.7947 29.7141 86.0447C30.9035 85.2947 32.2861 84.9197 33.8619 84.9197C35.4376 84.9197 36.8164 85.2947 37.9982 86.0447C39.1876 86.7947 40.1119 87.8478 40.771 89.2038C41.4376 90.5599 41.771 92.147 41.771 93.9652C41.771 95.7682 41.4376 97.344 40.771 98.6925C40.1119 100.041 39.1876 101.09 37.9982 101.84C36.8164 102.59 35.4376 102.965 33.8619 102.965ZM33.8619 100.556C35.0588 100.556 36.0437 100.249 36.8164 99.6357C37.5891 99.022 38.1611 98.2152 38.5323 97.2152C38.9035 96.2152 39.0891 95.1319 39.0891 93.9652C39.0891 92.7985 38.9035 91.7114 38.5323 90.7038C38.1611 89.6963 37.5891 88.8819 36.8164 88.2607C36.0437 87.6394 35.0588 87.3288 33.8619 87.3288C32.6649 87.3288 31.68 87.6394 30.9073 88.2607C30.1346 88.8819 29.5626 89.6963 29.1914 90.7038C28.8202 91.7114 28.6346 92.7985 28.6346 93.9652C28.6346 95.1319 28.8202 96.2152 29.1914 97.2152C29.5626 98.2152 30.1346 99.022 30.9073 99.6357C31.68 100.249 32.6649 100.556 33.8619 100.556ZM55.8647 91.3743V93.8743H45.6829V91.3743H55.8647ZM60.9471 102.602V79.3288H74.9016V81.8288H63.7653V89.6925H73.8562V92.1925H63.7653V102.602H60.9471ZM85.1744 102.965C83.5986 102.965 82.216 102.59 81.0266 101.84C79.8448 101.09 78.9206 100.041 78.2539 98.6925C77.5948 97.344 77.2653 95.7682 77.2653 93.9652C77.2653 92.147 77.5948 90.5599 78.2539 89.2038C78.9206 87.8478 79.8448 86.7947 81.0266 86.0447C82.216 85.2947 83.5986 84.9197 85.1744 84.9197C86.7501 84.9197 88.1289 85.2947 89.3107 86.0447C90.5001 86.7947 91.4244 87.8478 92.0835 89.2038C92.7501 90.5599 93.0835 92.147 93.0835 93.9652C93.0835 95.7682 92.7501 97.344 92.0835 98.6925C91.4244 100.041 90.5001 101.09 89.3107 101.84C88.1289 102.59 86.7501 102.965 85.1744 102.965ZM85.1744 100.556C86.3713 100.556 87.3562 100.249 88.1289 99.6357C88.9016 99.022 89.4736 98.2152 89.8448 97.2152C90.216 96.2152 90.4016 95.1319 90.4016 93.9652C90.4016 92.7985 90.216 91.7114 89.8448 90.7038C89.4736 89.6963 88.9016 88.8819 88.1289 88.2607C87.3562 87.6394 86.3713 87.3288 85.1744 87.3288C83.9774 87.3288 82.9925 87.6394 82.2198 88.2607C81.4471 88.8819 80.8751 89.6963 80.5039 90.7038C80.1327 91.7114 79.9471 92.7985 79.9471 93.9652C79.9471 95.1319 80.1327 96.2152 80.5039 97.2152C80.8751 98.2152 81.4471 99.022 82.2198 99.6357C82.9925 100.249 83.9774 100.556 85.1744 100.556ZM108.177 95.4652V85.147H110.859V102.602H108.177V99.647H107.995C107.586 100.533 106.95 101.287 106.086 101.908C105.223 102.522 104.132 102.829 102.814 102.829C101.723 102.829 100.753 102.59 99.9045 102.113C99.056 101.628 98.3893 100.901 97.9045 99.9311C97.4196 98.9538 97.1772 97.7228 97.1772 96.2379V85.147H99.859V96.0561C99.859 97.3288 100.215 98.344 100.927 99.1016C101.647 99.8591 102.564 100.238 103.677 100.238C104.344 100.238 105.022 100.067 105.711 99.7266C106.408 99.3857 106.992 98.8629 107.461 98.1584C107.939 97.4538 108.177 96.5561 108.177 95.4652ZM118.453 92.1016V102.602H115.771V85.147H118.362V87.8743H118.589C118.998 86.9879 119.619 86.2758 120.453 85.7379C121.286 85.1925 122.362 84.9197 123.68 84.9197C124.862 84.9197 125.896 85.1622 126.782 85.647C127.669 86.1243 128.358 86.8516 128.85 87.8288C129.343 88.7985 129.589 90.0258 129.589 91.5107V102.602H126.907V91.6925C126.907 90.3213 126.551 89.2531 125.839 88.4879C125.127 87.7152 124.15 87.3288 122.907 87.3288C122.051 87.3288 121.286 87.5144 120.612 87.8857C119.945 88.2569 119.419 88.7985 119.032 89.5107C118.646 90.2228 118.453 91.0864 118.453 92.1016ZM141.081 102.965C139.626 102.965 138.342 102.598 137.228 101.863C136.115 101.121 135.243 100.075 134.615 98.7266C133.986 97.3705 133.672 95.7682 133.672 93.9197C133.672 92.0864 133.986 90.4955 134.615 89.147C135.243 87.7985 136.118 86.7569 137.24 86.022C138.361 85.2872 139.656 84.9197 141.126 84.9197C142.262 84.9197 143.16 85.1091 143.819 85.4879C144.486 85.8591 144.993 86.2834 145.342 86.7607C145.698 87.2303 145.975 87.6167 146.172 87.9197H146.399V79.3288H149.081V102.602H146.49V99.9197H146.172C145.975 100.238 145.694 100.639 145.331 101.124C144.967 101.602 144.448 102.03 143.774 102.408C143.1 102.78 142.202 102.965 141.081 102.965ZM141.444 100.556C142.52 100.556 143.429 100.276 144.172 99.7152C144.914 99.147 145.478 98.3629 145.865 97.3629C146.251 96.3554 146.444 95.1925 146.444 93.8743C146.444 92.5713 146.255 91.4311 145.876 90.4538C145.497 89.469 144.937 88.7038 144.194 88.1584C143.452 87.6053 142.535 87.3288 141.444 87.3288C140.308 87.3288 139.361 87.6205 138.603 88.2038C137.853 88.7796 137.289 89.5637 136.91 90.5561C136.539 91.541 136.353 92.647 136.353 93.8743C136.353 95.1167 136.543 96.2455 136.922 97.2607C137.308 98.2682 137.876 99.0713 138.626 99.6697C139.384 100.261 140.323 100.556 141.444 100.556ZM161.683 102.965C160.001 102.965 158.55 102.594 157.331 101.852C156.118 101.102 155.183 100.056 154.524 98.7152C153.872 97.3667 153.547 95.7985 153.547 94.0107C153.547 92.2228 153.872 90.647 154.524 89.2834C155.183 87.9122 156.1 86.844 157.274 86.0788C158.456 85.3061 159.834 84.9197 161.41 84.9197C162.319 84.9197 163.217 85.0713 164.103 85.3743C164.99 85.6773 165.797 86.1697 166.524 86.8516C167.251 87.5258 167.831 88.4197 168.262 89.5334C168.694 90.647 168.91 92.0182 168.91 93.647V94.7834H155.456V92.4652H166.183C166.183 91.4803 165.986 90.6016 165.592 89.8288C165.206 89.0561 164.653 88.4463 163.933 87.9993C163.221 87.5523 162.38 87.3288 161.41 87.3288C160.342 87.3288 159.418 87.594 158.637 88.1243C157.865 88.647 157.27 89.3288 156.853 90.1697C156.437 91.0107 156.228 91.9122 156.228 92.8743V94.4197C156.228 95.7379 156.456 96.8554 156.91 97.772C157.372 98.6811 158.012 99.3743 158.831 99.8516C159.649 100.321 160.6 100.556 161.683 100.556C162.387 100.556 163.024 100.458 163.592 100.261C164.168 100.056 164.664 99.7531 165.081 99.3516C165.497 98.9425 165.819 98.4349 166.047 97.8288L168.637 98.5561C168.365 99.4349 167.906 100.208 167.262 100.874C166.618 101.533 165.823 102.049 164.876 102.42C163.929 102.783 162.865 102.965 161.683 102.965ZM172.99 102.602V85.147H175.581V87.7834H175.762C176.081 86.9197 176.656 86.219 177.49 85.6811C178.323 85.1432 179.262 84.8743 180.308 84.8743C180.505 84.8743 180.751 84.8781 181.047 84.8857C181.342 84.8932 181.565 84.9046 181.717 84.9197V87.647C181.626 87.6243 181.418 87.5902 181.092 87.5447C180.774 87.4917 180.437 87.4652 180.081 87.4652C179.232 87.4652 178.475 87.6432 177.808 87.9993C177.149 88.3478 176.626 88.8326 176.24 89.4538C175.861 90.0675 175.672 90.7682 175.672 91.5561V102.602H172.99ZM186.896 99.4197L186.714 100.647C186.585 101.511 186.388 102.435 186.123 103.42C185.866 104.405 185.597 105.333 185.316 106.204C185.036 107.075 184.805 107.768 184.623 108.283H182.578C182.676 107.799 182.805 107.158 182.964 106.363C183.123 105.567 183.282 104.677 183.441 103.692C183.608 102.715 183.744 101.715 183.85 100.692L183.987 99.4197H186.896ZM219.956 86.6016H217.137C216.971 85.791 216.679 85.0788 216.262 84.4652C215.853 83.8516 215.353 83.3364 214.762 82.9197C214.179 82.4955 213.531 82.1773 212.819 81.9652C212.107 81.7531 211.365 81.647 210.592 81.647C209.183 81.647 207.906 82.0031 206.762 82.7152C205.626 83.4273 204.721 84.4766 204.047 85.8629C203.38 87.2493 203.047 88.95 203.047 90.9652C203.047 92.9803 203.38 94.6811 204.047 96.0675C204.721 97.4538 205.626 98.5031 206.762 99.2152C207.906 99.9273 209.183 100.283 210.592 100.283C211.365 100.283 212.107 100.177 212.819 99.9652C213.531 99.7531 214.179 99.4387 214.762 99.022C215.353 98.5978 215.853 98.0788 216.262 97.4652C216.679 96.844 216.971 96.1319 217.137 95.3288H219.956C219.743 96.5182 219.357 97.5826 218.797 98.522C218.236 99.4614 217.539 100.261 216.706 100.92C215.872 101.571 214.937 102.067 213.899 102.408C212.868 102.749 211.766 102.92 210.592 102.92C208.607 102.92 206.842 102.435 205.297 101.465C203.751 100.496 202.535 99.1167 201.649 97.3288C200.762 95.541 200.319 93.4197 200.319 90.9652C200.319 88.5107 200.762 86.3894 201.649 84.6016C202.535 82.8137 203.751 81.4349 205.297 80.4652C206.842 79.4955 208.607 79.0107 210.592 79.0107C211.766 79.0107 212.868 79.1811 213.899 79.522C214.937 79.8629 215.872 80.3629 216.706 81.022C217.539 81.6735 218.236 82.469 218.797 83.4084C219.357 84.3402 219.743 85.4046 219.956 86.6016ZM224.51 79.3288H227.873L235.782 98.647H236.055L243.964 79.3288H247.328V102.602H244.691V84.9197H244.464L237.191 102.602H234.646L227.373 84.9197H227.146V102.602H224.51V79.3288ZM272.615 90.9652C272.615 93.4197 272.172 95.541 271.285 97.3288C270.399 99.1167 269.183 100.496 267.637 101.465C266.092 102.435 264.327 102.92 262.342 102.92C260.357 102.92 258.592 102.435 257.047 101.465C255.501 100.496 254.285 99.1167 253.399 97.3288C252.512 95.541 252.069 93.4197 252.069 90.9652C252.069 88.5107 252.512 86.3894 253.399 84.6016C254.285 82.8137 255.501 81.4349 257.047 80.4652C258.592 79.4955 260.357 79.0107 262.342 79.0107C264.327 79.0107 266.092 79.4955 267.637 80.4652C269.183 81.4349 270.399 82.8137 271.285 84.6016C272.172 86.3894 272.615 88.5107 272.615 90.9652ZM269.887 90.9652C269.887 88.95 269.55 87.2493 268.876 85.8629C268.209 84.4766 267.304 83.4273 266.16 82.7152C265.024 82.0031 263.751 81.647 262.342 81.647C260.933 81.647 259.656 82.0031 258.512 82.7152C257.376 83.4273 256.471 84.4766 255.797 85.8629C255.13 87.2493 254.797 88.95 254.797 90.9652C254.797 92.9803 255.13 94.6811 255.797 96.0675C256.471 97.4538 257.376 98.5031 258.512 99.2152C259.656 99.9273 260.933 100.283 262.342 100.283C263.751 100.283 265.024 99.9273 266.16 99.2152C267.304 98.5031 268.209 97.4538 268.876 96.0675C269.55 94.6811 269.887 92.9803 269.887 90.9652ZM292.581 102.92C291.05 102.92 289.732 102.639 288.626 102.079C287.52 101.518 286.668 100.749 286.069 99.772C285.471 98.7947 285.172 97.6773 285.172 96.4197C285.172 95.45 285.376 94.5902 285.785 93.8402C286.202 93.0826 286.774 92.3819 287.501 91.7379C288.236 91.0864 289.081 90.4349 290.035 89.7834L293.399 87.2834C294.058 86.8516 294.584 86.3894 294.978 85.897C295.38 85.4046 295.581 84.7607 295.581 83.9652C295.581 83.3743 295.319 82.8023 294.797 82.2493C294.281 81.6963 293.603 81.4197 292.762 81.4197C292.172 81.4197 291.649 81.5713 291.194 81.8743C290.747 82.1697 290.395 82.5485 290.137 83.0107C289.887 83.4652 289.762 83.9349 289.762 84.4197C289.762 84.9652 289.91 85.5182 290.206 86.0788C290.509 86.6319 290.891 87.2 291.353 87.7834C291.823 88.3591 292.308 88.95 292.808 89.5561L303.49 102.602H300.262L291.444 91.9652C290.626 90.9803 289.884 90.0864 289.217 89.2834C288.55 88.4803 288.02 87.6887 287.626 86.9084C287.232 86.1281 287.035 85.2834 287.035 84.3743C287.035 83.3288 287.266 82.4122 287.728 81.6243C288.198 80.8288 288.853 80.2114 289.694 79.772C290.543 79.325 291.535 79.1016 292.672 79.1016C293.838 79.1016 294.842 79.3288 295.683 79.7834C296.524 80.2303 297.172 80.825 297.626 81.5675C298.081 82.3023 298.308 83.1016 298.308 83.9652C298.308 85.0788 298.031 86.0447 297.478 86.8629C296.925 87.6811 296.172 88.4425 295.217 89.147L290.581 92.6016C289.535 93.3743 288.827 94.1243 288.456 94.8516C288.084 95.5788 287.899 96.1016 287.899 96.4197C287.899 97.147 288.088 97.825 288.467 98.4538C288.846 99.0826 289.38 99.5902 290.069 99.9766C290.759 100.363 291.565 100.556 292.49 100.556C293.368 100.556 294.225 100.371 295.058 99.9993C295.891 99.6205 296.645 99.075 297.319 98.3629C298.001 97.6508 298.539 96.7947 298.933 95.7947C299.334 94.7947 299.535 93.6697 299.535 92.4197H302.126C302.126 93.9652 301.948 95.2266 301.592 96.2038C301.236 97.1811 300.834 97.9463 300.387 98.4993C299.94 99.0523 299.581 99.4652 299.308 99.7379C299.217 99.8516 299.134 99.9652 299.058 100.079C298.982 100.192 298.899 100.306 298.808 100.42C298.058 101.261 297.111 101.889 295.967 102.306C294.823 102.715 293.694 102.92 292.581 102.92ZM334.549 86.6016H331.731C331.565 85.791 331.273 85.0788 330.856 84.4652C330.447 83.8516 329.947 83.3364 329.356 82.9197C328.773 82.4955 328.125 82.1773 327.413 81.9652C326.701 81.7531 325.958 81.647 325.186 81.647C323.777 81.647 322.5 82.0031 321.356 82.7152C320.22 83.4273 319.315 84.4766 318.64 85.8629C317.974 87.2493 317.64 88.95 317.64 90.9652C317.64 92.9803 317.974 94.6811 318.64 96.0675C319.315 97.4538 320.22 98.5031 321.356 99.2152C322.5 99.9273 323.777 100.283 325.186 100.283C325.958 100.283 326.701 100.177 327.413 99.9652C328.125 99.7531 328.773 99.4387 329.356 99.022C329.947 98.5978 330.447 98.0788 330.856 97.4652C331.273 96.844 331.565 96.1319 331.731 95.3288H334.549C334.337 96.5182 333.951 97.5826 333.39 98.522C332.83 99.4614 332.133 100.261 331.299 100.92C330.466 101.571 329.53 102.067 328.493 102.408C327.462 102.749 326.36 102.92 325.186 102.92C323.201 102.92 321.436 102.435 319.89 101.465C318.345 100.496 317.129 99.1167 316.243 97.3288C315.356 95.541 314.913 93.4197 314.913 90.9652C314.913 88.5107 315.356 86.3894 316.243 84.6016C317.129 82.8137 318.345 81.4349 319.89 80.4652C321.436 79.4955 323.201 79.0107 325.186 79.0107C326.36 79.0107 327.462 79.1811 328.493 79.522C329.53 79.8629 330.466 80.3629 331.299 81.022C332.133 81.6735 332.83 82.469 333.39 83.4084C333.951 84.3402 334.337 85.4046 334.549 86.6016ZM351.831 85.147C351.694 83.9955 351.141 83.1016 350.172 82.4652C349.202 81.8288 348.012 81.5107 346.603 81.5107C345.573 81.5107 344.672 81.6773 343.899 82.0107C343.134 82.344 342.535 82.8023 342.103 83.3857C341.679 83.969 341.467 84.6319 341.467 85.3743C341.467 85.9955 341.615 86.5296 341.91 86.9766C342.213 87.416 342.6 87.7834 343.069 88.0788C343.539 88.3667 344.031 88.6053 344.547 88.7947C345.062 88.9766 345.535 89.1243 345.967 89.2379L348.331 89.8743C348.937 90.0334 349.611 90.2531 350.353 90.5334C351.103 90.8137 351.819 91.1963 352.501 91.6811C353.19 92.1584 353.759 92.772 354.206 93.522C354.653 94.272 354.876 95.1925 354.876 96.2834C354.876 97.541 354.547 98.6773 353.887 99.6925C353.236 100.708 352.281 101.514 351.024 102.113C349.774 102.711 348.255 103.011 346.467 103.011C344.8 103.011 343.357 102.742 342.137 102.204C340.925 101.666 339.971 100.916 339.274 99.9538C338.584 98.9917 338.194 97.8743 338.103 96.6016H341.012C341.088 97.4804 341.384 98.2076 341.899 98.7834C342.422 99.3516 343.081 99.7758 343.876 100.056C344.679 100.329 345.543 100.465 346.467 100.465C347.543 100.465 348.509 100.291 349.365 99.9425C350.221 99.5864 350.899 99.094 351.399 98.4652C351.899 97.8288 352.149 97.0864 352.149 96.2379C352.149 95.4652 351.933 94.8364 351.501 94.3516C351.069 93.8667 350.501 93.4728 349.797 93.1697C349.092 92.8667 348.331 92.6016 347.512 92.3743L344.649 91.5561C342.831 91.0334 341.391 90.2872 340.331 89.3175C339.27 88.3478 338.74 87.0788 338.74 85.5107C338.74 84.2076 339.092 83.0713 339.797 82.1016C340.509 81.1243 341.463 80.3667 342.66 79.8288C343.865 79.2834 345.209 79.0107 346.694 79.0107C348.194 79.0107 349.528 79.2796 350.694 79.8175C351.861 80.3478 352.785 81.075 353.467 81.9993C354.156 82.9235 354.52 83.9728 354.558 85.147H351.831ZM379.146 90.9652C379.146 93.4197 378.703 95.541 377.816 97.3288C376.93 99.1167 375.714 100.496 374.169 101.465C372.623 102.435 370.858 102.92 368.873 102.92C366.888 102.92 365.123 102.435 363.578 101.465C362.032 100.496 360.816 99.1167 359.93 97.3288C359.044 95.541 358.6 93.4197 358.6 90.9652C358.6 88.5107 359.044 86.3894 359.93 84.6016C360.816 82.8137 362.032 81.4349 363.578 80.4652C365.123 79.4955 366.888 79.0107 368.873 79.0107C370.858 79.0107 372.623 79.4955 374.169 80.4652C375.714 81.4349 376.93 82.8137 377.816 84.6016C378.703 86.3894 379.146 88.5107 379.146 90.9652ZM376.419 90.9652C376.419 88.95 376.082 87.2493 375.407 85.8629C374.741 84.4766 373.835 83.4273 372.691 82.7152C371.555 82.0031 370.282 81.647 368.873 81.647C367.464 81.647 366.188 82.0031 365.044 82.7152C363.907 83.4273 363.002 84.4766 362.328 85.8629C361.661 87.2493 361.328 88.95 361.328 90.9652C361.328 92.9803 361.661 94.6811 362.328 96.0675C363.002 97.4538 363.907 98.5031 365.044 99.2152C366.188 99.9273 367.464 100.283 368.873 100.283C370.282 100.283 371.555 99.9273 372.691 99.2152C373.835 98.5031 374.741 97.4538 375.407 96.0675C376.082 94.6811 376.419 92.9803 376.419 90.9652ZM386.052 99.4197L385.87 100.647C385.742 101.511 385.545 102.435 385.279 103.42C385.022 104.405 384.753 105.333 384.473 106.204C384.192 107.075 383.961 107.768 383.779 108.283H381.734C381.833 107.799 381.961 107.158 382.12 106.363C382.279 105.567 382.439 104.677 382.598 103.692C382.764 102.715 382.901 101.715 383.007 100.692L383.143 99.4197H386.052ZM400.385 102.602V79.3288H408.521C410.142 79.3288 411.479 79.6091 412.532 80.1697C413.585 80.7228 414.369 81.469 414.885 82.4084C415.4 83.3402 415.657 84.3743 415.657 85.5107C415.657 86.5107 415.479 87.3364 415.123 87.9879C414.775 88.6394 414.313 89.1546 413.737 89.5334C413.169 89.9122 412.551 90.1925 411.885 90.3743V90.6016C412.597 90.647 413.313 90.897 414.032 91.3516C414.752 91.8061 415.354 92.4576 415.839 93.3061C416.324 94.1546 416.566 95.1925 416.566 96.4197C416.566 97.5864 416.301 98.6357 415.771 99.5675C415.241 100.499 414.404 101.238 413.26 101.783C412.116 102.329 410.627 102.602 408.794 102.602H400.385ZM403.203 100.102H408.794C410.635 100.102 411.941 99.7455 412.714 99.0334C413.494 98.3137 413.885 97.4425 413.885 96.4197C413.885 95.6319 413.684 94.9046 413.282 94.2379C412.881 93.5637 412.309 93.0258 411.566 92.6243C410.824 92.2152 409.945 92.0107 408.93 92.0107H403.203V100.102ZM403.203 89.5561H408.43C409.279 89.5561 410.044 89.3894 410.725 89.0561C411.415 88.7228 411.96 88.2531 412.362 87.647C412.771 87.041 412.975 86.3288 412.975 85.5107C412.975 84.4879 412.619 83.6205 411.907 82.9084C411.195 82.1887 410.066 81.8288 408.521 81.8288H403.203V89.5561ZM425.97 103.011C424.864 103.011 423.86 102.802 422.958 102.386C422.057 101.961 421.341 101.352 420.811 100.556C420.28 99.7531 420.015 98.7834 420.015 97.647C420.015 96.647 420.212 95.8364 420.606 95.2152C421 94.5864 421.527 94.094 422.186 93.7379C422.845 93.3819 423.572 93.1167 424.368 92.9425C425.171 92.7607 425.977 92.6167 426.788 92.5107C427.849 92.3743 428.708 92.272 429.368 92.2038C430.034 92.1281 430.519 92.0031 430.822 91.8288C431.133 91.6546 431.288 91.3516 431.288 90.9197V90.8288C431.288 89.7076 430.981 88.8364 430.368 88.2152C429.761 87.594 428.841 87.2834 427.606 87.2834C426.326 87.2834 425.322 87.5637 424.595 88.1243C423.868 88.6849 423.356 89.2834 423.061 89.9197L420.515 89.0107C420.97 87.95 421.576 87.1243 422.333 86.5334C423.099 85.9349 423.932 85.5182 424.833 85.2834C425.743 85.041 426.636 84.9197 427.515 84.9197C428.076 84.9197 428.72 84.9879 429.447 85.1243C430.182 85.2531 430.89 85.522 431.572 85.9311C432.261 86.3402 432.833 86.9576 433.288 87.7834C433.743 88.6091 433.97 89.7152 433.97 91.1016V102.602H431.288V100.238H431.152C430.97 100.617 430.667 101.022 430.243 101.454C429.818 101.886 429.254 102.253 428.549 102.556C427.845 102.859 426.985 103.011 425.97 103.011ZM426.379 100.602C427.44 100.602 428.333 100.393 429.061 99.9766C429.796 99.5599 430.349 99.022 430.72 98.3629C431.099 97.7038 431.288 97.0107 431.288 96.2834V93.8288C431.174 93.9652 430.924 94.0902 430.538 94.2038C430.159 94.3099 429.72 94.4046 429.22 94.4879C428.727 94.5637 428.246 94.6319 427.777 94.6925C427.315 94.7455 426.94 94.791 426.652 94.8288C425.955 94.9197 425.303 95.0675 424.697 95.272C424.099 95.469 423.614 95.7682 423.243 96.1697C422.879 96.5637 422.697 97.1016 422.697 97.7834C422.697 98.7152 423.042 99.4197 423.731 99.897C424.428 100.367 425.311 100.602 426.379 100.602ZM439.228 102.602V79.3288H453.183V81.8288H442.047V89.6925H452.137V92.1925H442.047V102.602H439.228ZM456.737 81.8288V79.3288H474.191V81.8288H466.873V102.602H464.055V81.8288H456.737ZM486.268 81.8288V79.3288H503.723V81.8288H496.404V102.602H493.586V81.8288H486.268ZM512.495 102.965C510.814 102.965 509.363 102.594 508.143 101.852C506.931 101.102 505.995 100.056 505.336 98.7152C504.685 97.3667 504.359 95.7985 504.359 94.0107C504.359 92.2228 504.685 90.647 505.336 89.2834C505.995 87.9122 506.912 86.844 508.086 86.0788C509.268 85.3061 510.647 84.9197 512.223 84.9197C513.132 84.9197 514.029 85.0713 514.916 85.3743C515.802 85.6773 516.609 86.1697 517.336 86.8516C518.064 87.5258 518.643 88.4197 519.075 89.5334C519.507 90.647 519.723 92.0182 519.723 93.647V94.7834H506.268V92.4652H516.995C516.995 91.4803 516.798 90.6016 516.404 89.8288C516.018 89.0561 515.465 88.4463 514.745 87.9993C514.033 87.5523 513.192 87.3288 512.223 87.3288C511.154 87.3288 510.23 87.594 509.45 88.1243C508.677 88.647 508.083 89.3288 507.666 90.1697C507.249 91.0107 507.041 91.9122 507.041 92.8743V94.4197C507.041 95.7379 507.268 96.8554 507.723 97.772C508.185 98.6811 508.825 99.3743 509.643 99.8516C510.461 100.321 511.412 100.556 512.495 100.556C513.2 100.556 513.836 100.458 514.404 100.261C514.98 100.056 515.476 99.7531 515.893 99.3516C516.31 98.9425 516.632 98.4349 516.859 97.8288L519.45 98.5561C519.177 99.4349 518.719 100.208 518.075 100.874C517.431 101.533 516.636 102.049 515.689 102.42C514.742 102.783 513.677 102.965 512.495 102.965ZM530.893 102.965C529.257 102.965 527.848 102.579 526.666 101.806C525.484 101.033 524.575 99.969 523.939 98.6129C523.302 97.2569 522.984 95.7076 522.984 93.9652C522.984 92.1925 523.31 90.6281 523.961 89.272C524.62 87.9084 525.537 86.844 526.711 86.0788C527.893 85.3061 529.272 84.9197 530.848 84.9197C532.075 84.9197 533.181 85.147 534.166 85.6016C535.151 86.0561 535.958 86.6925 536.586 87.5107C537.215 88.3288 537.605 89.2834 537.757 90.3743H535.075C534.87 89.5788 534.416 88.8743 533.711 88.2607C533.014 87.6394 532.075 87.3288 530.893 87.3288C529.848 87.3288 528.931 87.6016 528.143 88.147C527.363 88.6849 526.753 89.4463 526.314 90.4311C525.882 91.4084 525.666 92.5561 525.666 93.8743C525.666 95.2228 525.878 96.397 526.302 97.397C526.734 98.397 527.34 99.1735 528.12 99.7266C528.908 100.28 529.833 100.556 530.893 100.556C531.59 100.556 532.223 100.435 532.791 100.192C533.359 99.95 533.84 99.6016 534.234 99.147C534.628 98.6925 534.908 98.147 535.075 97.5107H537.757C537.605 98.541 537.23 99.469 536.632 100.295C536.041 101.113 535.257 101.764 534.279 102.249C533.31 102.727 532.181 102.965 530.893 102.965ZM544.359 92.1016V102.602H541.677V79.3288H544.359V87.8743H544.586C544.995 86.9728 545.609 86.2569 546.427 85.7266C547.253 85.1887 548.351 84.9197 549.723 84.9197C550.912 84.9197 551.954 85.1584 552.848 85.6357C553.742 86.1053 554.435 86.8288 554.927 87.8061C555.427 88.7758 555.677 90.0107 555.677 91.5107V102.602H552.995V91.6925C552.995 90.3061 552.636 89.2341 551.916 88.4766C551.204 87.7114 550.215 87.3288 548.95 87.3288C548.071 87.3288 547.283 87.5144 546.586 87.8857C545.897 88.2569 545.351 88.7985 544.95 89.5107C544.556 90.2228 544.359 91.0864 544.359 92.1016ZM563.265 92.1016V102.602H560.583V85.147H563.174V87.8743H563.402C563.811 86.9879 564.432 86.2758 565.265 85.7379C566.099 85.1925 567.174 84.9197 568.493 84.9197C569.674 84.9197 570.708 85.1622 571.595 85.647C572.481 86.1243 573.171 86.8516 573.663 87.8288C574.155 88.7985 574.402 90.0258 574.402 91.5107V102.602H571.72V91.6925C571.72 90.3213 571.364 89.2531 570.652 88.4879C569.94 87.7152 568.962 87.3288 567.72 87.3288C566.864 87.3288 566.099 87.5144 565.424 87.8857C564.758 88.2569 564.231 88.7985 563.845 89.5107C563.458 90.2228 563.265 91.0864 563.265 92.1016ZM586.393 102.965C584.817 102.965 583.435 102.59 582.245 101.84C581.064 101.09 580.139 100.041 579.473 98.6925C578.814 97.344 578.484 95.7682 578.484 93.9652C578.484 92.147 578.814 90.5599 579.473 89.2038C580.139 87.8478 581.064 86.7947 582.245 86.0447C583.435 85.2947 584.817 84.9197 586.393 84.9197C587.969 84.9197 589.348 85.2947 590.529 86.0447C591.719 86.7947 592.643 87.8478 593.302 89.2038C593.969 90.5599 594.302 92.147 594.302 93.9652C594.302 95.7682 593.969 97.344 593.302 98.6925C592.643 100.041 591.719 101.09 590.529 101.84C589.348 102.59 587.969 102.965 586.393 102.965ZM586.393 100.556C587.59 100.556 588.575 100.249 589.348 99.6357C590.12 99.022 590.692 98.2152 591.064 97.2152C591.435 96.2152 591.62 95.1319 591.62 93.9652C591.62 92.7985 591.435 91.7114 591.064 90.7038C590.692 89.6963 590.12 88.8819 589.348 88.2607C588.575 87.6394 587.59 87.3288 586.393 87.3288C585.196 87.3288 584.211 87.6394 583.439 88.2607C582.666 88.8819 582.094 89.6963 581.723 90.7038C581.351 91.7114 581.166 92.7985 581.166 93.9652C581.166 95.1319 581.351 96.2152 581.723 97.2152C582.094 98.2152 582.666 99.022 583.439 99.6357C584.211 100.249 585.196 100.556 586.393 100.556ZM601.078 79.3288V102.602H598.396V79.3288H601.078ZM613.081 102.965C611.505 102.965 610.122 102.59 608.933 101.84C607.751 101.09 606.827 100.041 606.16 98.6925C605.501 97.344 605.172 95.7682 605.172 93.9652C605.172 92.147 605.501 90.5599 606.16 89.2038C606.827 87.8478 607.751 86.7947 608.933 86.0447C610.122 85.2947 611.505 84.9197 613.081 84.9197C614.656 84.9197 616.035 85.2947 617.217 86.0447C618.406 86.7947 619.331 87.8478 619.99 89.2038C620.656 90.5599 620.99 92.147 620.99 93.9652C620.99 95.7682 620.656 97.344 619.99 98.6925C619.331 100.041 618.406 101.09 617.217 101.84C616.035 102.59 614.656 102.965 613.081 102.965ZM613.081 100.556C614.278 100.556 615.262 100.249 616.035 99.6357C616.808 99.022 617.38 98.2152 617.751 97.2152C618.122 96.2152 618.308 95.1319 618.308 93.9652C618.308 92.7985 618.122 91.7114 617.751 90.7038C617.38 89.6963 616.808 88.8819 616.035 88.2607C615.262 87.6394 614.278 87.3288 613.081 87.3288C611.884 87.3288 610.899 87.6394 610.126 88.2607C609.353 88.8819 608.781 89.6963 608.41 90.7038C608.039 91.7114 607.853 92.7985 607.853 93.9652C607.853 95.1319 608.039 96.2152 608.41 97.2152C608.781 98.2152 609.353 99.022 610.126 99.6357C610.899 100.249 611.884 100.556 613.081 100.556ZM632.129 109.511C630.833 109.511 629.72 109.344 628.788 109.011C627.856 108.685 627.08 108.253 626.458 107.715C625.845 107.185 625.356 106.617 624.993 106.011L627.129 104.511C627.371 104.829 627.678 105.192 628.049 105.602C628.421 106.018 628.928 106.378 629.572 106.681C630.224 106.992 631.076 107.147 632.129 107.147C633.538 107.147 634.701 106.806 635.618 106.124C636.534 105.442 636.993 104.374 636.993 102.92V99.3743H636.765C636.568 99.6925 636.288 100.086 635.924 100.556C635.568 101.018 635.053 101.431 634.379 101.795C633.712 102.151 632.811 102.329 631.674 102.329C630.265 102.329 629 101.996 627.879 101.329C626.765 100.662 625.883 99.6925 625.231 98.4197C624.587 97.147 624.265 95.6016 624.265 93.7834C624.265 91.9955 624.58 90.4387 625.208 89.1129C625.837 87.7796 626.712 86.7493 627.833 86.022C628.955 85.2872 630.25 84.9197 631.72 84.9197C632.856 84.9197 633.758 85.1091 634.424 85.4879C635.099 85.8591 635.614 86.2834 635.97 86.7607C636.333 87.2303 636.614 87.6167 636.811 87.9197H637.083V85.147H639.674V103.102C639.674 104.602 639.333 105.821 638.652 106.761C637.977 107.708 637.068 108.401 635.924 108.84C634.788 109.287 633.523 109.511 632.129 109.511ZM632.038 99.9197C633.114 99.9197 634.023 99.6735 634.765 99.1811C635.508 98.6887 636.072 97.9804 636.458 97.0561C636.845 96.1319 637.038 95.0258 637.038 93.7379C637.038 92.4804 636.849 91.3705 636.47 90.4084C636.091 89.4463 635.53 88.6925 634.788 88.147C634.046 87.6016 633.129 87.3288 632.038 87.3288C630.902 87.3288 629.955 87.6167 629.197 88.1925C628.447 88.7682 627.883 89.541 627.504 90.5107C627.133 91.4804 626.947 92.5561 626.947 93.7379C626.947 94.95 627.136 96.022 627.515 96.9538C627.902 97.8781 628.47 98.6054 629.22 99.1357C629.977 99.6584 630.917 99.9197 632.038 99.9197ZM644.583 102.602V85.147H647.265V102.602H644.583ZM645.947 82.2379C645.424 82.2379 644.974 82.0599 644.595 81.7038C644.224 81.3478 644.038 80.9197 644.038 80.4197C644.038 79.9197 644.224 79.4917 644.595 79.1357C644.974 78.7796 645.424 78.6016 645.947 78.6016C646.47 78.6016 646.917 78.7796 647.288 79.1357C647.667 79.4917 647.856 79.9197 647.856 80.4197C647.856 80.9197 647.667 81.3478 647.288 81.7038C646.917 82.0599 646.47 82.2379 645.947 82.2379ZM659.495 102.965C657.814 102.965 656.363 102.594 655.143 101.852C653.931 101.102 652.995 100.056 652.336 98.7152C651.685 97.3667 651.359 95.7985 651.359 94.0107C651.359 92.2228 651.685 90.647 652.336 89.2834C652.995 87.9122 653.912 86.844 655.086 86.0788C656.268 85.3061 657.647 84.9197 659.223 84.9197C660.132 84.9197 661.029 85.0713 661.916 85.3743C662.802 85.6773 663.609 86.1697 664.336 86.8516C665.064 87.5258 665.643 88.4197 666.075 89.5334C666.507 90.647 666.723 92.0182 666.723 93.647V94.7834H653.268V92.4652H663.995C663.995 91.4803 663.798 90.6016 663.404 89.8288C663.018 89.0561 662.465 88.4463 661.745 87.9993C661.033 87.5523 660.192 87.3288 659.223 87.3288C658.154 87.3288 657.23 87.594 656.45 88.1243C655.677 88.647 655.083 89.3288 654.666 90.1697C654.249 91.0107 654.041 91.9122 654.041 92.8743V94.4197C654.041 95.7379 654.268 96.8554 654.723 97.772C655.185 98.6811 655.825 99.3743 656.643 99.8516C657.461 100.321 658.412 100.556 659.495 100.556C660.2 100.556 660.836 100.458 661.404 100.261C661.98 100.056 662.476 99.7531 662.893 99.3516C663.31 98.9425 663.632 98.4349 663.859 97.8288L666.45 98.5561C666.177 99.4349 665.719 100.208 665.075 100.874C664.431 101.533 663.636 102.049 662.689 102.42C661.742 102.783 660.677 102.965 659.495 102.965ZM683.166 89.0561L680.757 89.7379C680.605 89.3364 680.382 88.9463 680.086 88.5675C679.798 88.1811 679.404 87.8629 678.904 87.6129C678.404 87.3629 677.764 87.2379 676.984 87.2379C675.916 87.2379 675.026 87.4841 674.314 87.9766C673.609 88.4614 673.257 89.0788 673.257 89.8288C673.257 90.4955 673.499 91.022 673.984 91.4084C674.469 91.7947 675.226 92.1167 676.257 92.3743L678.848 93.0107C680.408 93.3894 681.571 93.969 682.336 94.7493C683.101 95.522 683.484 96.5182 683.484 97.7379C683.484 98.7379 683.196 99.6319 682.62 100.42C682.052 101.208 681.257 101.829 680.234 102.283C679.211 102.738 678.022 102.965 676.666 102.965C674.886 102.965 673.412 102.579 672.245 101.806C671.079 101.033 670.34 99.9046 670.029 98.4197L672.575 97.7834C672.817 98.7228 673.276 99.4273 673.95 99.897C674.632 100.367 675.522 100.602 676.62 100.602C677.87 100.602 678.863 100.336 679.598 99.8061C680.34 99.2682 680.711 98.6243 680.711 97.8743C680.711 97.2682 680.499 96.7607 680.075 96.3516C679.651 95.9349 678.999 95.6243 678.12 95.4197L675.211 94.7379C673.613 94.3591 672.439 93.772 671.689 92.9766C670.946 92.1735 670.575 91.1697 670.575 89.9652C670.575 88.9803 670.851 88.1091 671.404 87.3516C671.965 86.594 672.726 85.9993 673.689 85.5675C674.658 85.1357 675.757 84.9197 676.984 84.9197C678.711 84.9197 680.067 85.2985 681.052 86.0561C682.045 86.8137 682.749 87.8137 683.166 89.0561Z" fill="white"/>
</svg>
