<svg width="592" height="111" viewBox="0 0 592 111" fill="none" xmlns="http://www.w3.org/2000/svg">
<path d="M285.162 44.7256C283.476 44.7256 281.849 44.5296 280.281 44.1376C278.713 43.7455 277.243 43.1183 275.871 42.2558C275.635 42.0598 275.4 41.8442 275.165 41.609C274.93 41.3737 274.753 41.1189 274.636 40.8445C274.244 39.786 273.969 38.4923 273.813 36.9634C273.695 35.4345 273.656 33.8859 273.695 32.3178C273.695 32.0434 273.813 31.8474 274.048 31.7298C274.283 31.6122 274.557 31.5534 274.871 31.5534C275.263 31.5534 275.518 31.6122 275.635 31.7298C275.792 31.8082 275.949 31.9846 276.106 32.259C276.968 35.1993 278.242 37.571 279.928 39.3744C281.653 41.1777 283.653 42.0794 285.926 42.0794C287.181 42.0794 288.2 41.805 288.984 41.2561C289.807 40.6681 290.435 39.9428 290.866 39.0804C291.297 38.1787 291.513 37.277 291.513 36.3753C291.513 35.1208 291.258 34.0624 290.748 33.1999C290.278 32.3374 289.553 31.5534 288.572 30.8477C287.592 30.142 286.338 29.3776 284.809 28.5543C283.162 27.6134 281.575 26.6334 280.046 25.6141C278.517 24.5556 277.262 23.2815 276.282 21.7918C275.302 20.3021 274.812 18.4399 274.812 16.2053C274.812 13.8924 275.4 11.893 276.576 10.2073C277.792 8.52153 279.438 7.20822 281.516 6.26735C283.594 5.32647 285.926 4.85604 288.514 4.85604C290.003 4.85604 291.415 5.01285 292.748 5.32648C294.12 5.6401 295.217 5.95373 296.041 6.26735C296.511 6.46336 296.844 6.67898 297.04 6.9142C297.276 7.14942 297.472 7.56105 297.628 8.1491C297.824 8.97236 297.981 9.97204 298.099 11.1481C298.256 12.3242 298.334 13.6179 298.334 15.0292C298.334 15.5389 297.981 15.7937 297.276 15.7937C296.923 15.7937 296.59 15.7153 296.276 15.5585C296.001 15.3625 295.825 15.1273 295.747 14.8528C295.08 12.5006 294.1 10.7169 292.806 9.50161C291.513 8.28631 289.925 7.67866 288.043 7.67866C286.867 7.67866 285.867 7.87468 285.044 8.26671C284.221 8.65874 283.594 9.24679 283.162 10.0308C282.77 10.8149 282.574 11.795 282.574 12.9711C282.574 13.912 282.888 14.794 283.515 15.6173C284.182 16.4014 285.123 17.205 286.338 18.0283C287.553 18.8516 288.945 19.7336 290.513 20.6745C292.63 21.929 294.316 23.1639 295.57 24.3792C296.825 25.5945 297.726 26.8882 298.275 28.2603C298.863 29.5932 299.157 31.1417 299.157 32.9059C299.157 35.5717 298.569 37.7867 297.393 39.5508C296.256 41.3149 294.629 42.6282 292.512 43.4907C290.435 44.314 287.984 44.7256 285.162 44.7256ZM308.927 44.7256C307.869 44.7256 306.889 44.4708 305.987 43.9611C305.085 43.4515 304.36 42.7851 303.811 41.9618C303.302 41.1385 303.047 40.2369 303.047 39.2568C303.047 37.9239 303.458 36.8066 304.282 35.9049C305.144 35.0032 306.399 34.1996 308.045 33.4939L313.279 31.2005C314.063 30.8477 314.533 30.5341 314.69 30.2597C314.886 29.9852 314.984 29.4756 314.984 28.7307L315.043 25.3789C315.082 24.2812 314.886 23.4187 314.455 22.7915C314.024 22.125 313.377 21.7918 312.514 21.7918C312.005 21.7918 311.495 21.9094 310.985 22.1446C310.476 22.3406 310.084 22.5758 309.809 22.8503C309.692 23.0071 309.594 23.2031 309.515 23.4383C309.476 23.6343 309.456 23.8499 309.456 24.0852C309.456 24.3204 309.476 24.6144 309.515 24.9672C309.554 25.2809 309.574 25.5553 309.574 25.7905C309.574 26.0257 309.26 26.3393 308.633 26.7314C308.006 27.0842 307.281 27.4174 306.457 27.7311C305.634 28.0055 304.928 28.1427 304.34 28.1427C304.066 28.1427 303.811 28.0251 303.576 27.7899C303.38 27.5546 303.282 27.2606 303.282 26.9078C303.282 26.2805 303.498 25.6729 303.929 25.0848C304.36 24.4576 305.066 23.7519 306.046 22.9679C307.065 22.1054 308.182 21.3409 309.398 20.6745C310.613 20.008 311.809 19.4788 312.985 19.0868C314.2 18.6947 315.219 18.4987 316.043 18.4987C318.16 18.4987 319.845 19.1848 321.1 20.5569C322.354 21.8898 322.942 23.6735 322.864 25.9081L322.57 37.7867C322.531 38.6883 322.687 39.4528 323.04 40.08C323.393 40.7073 323.824 41.0209 324.334 41.0209C325.079 41.0209 325.726 40.7661 326.275 40.2565C326.392 40.1388 326.51 40.08 326.627 40.08C326.823 40.08 326.98 40.1388 327.098 40.2565C327.255 40.3741 327.333 40.5309 327.333 40.7269C327.333 41.1973 326.98 41.805 326.275 42.5498C325.53 43.2555 324.746 43.7847 323.922 44.1376C323.099 44.5296 322.237 44.7256 321.335 44.7256C319.14 44.7256 317.317 43.6083 315.866 41.3737H315.749C314.455 42.5498 313.279 43.3927 312.22 43.9023C311.201 44.4512 310.103 44.7256 308.927 44.7256ZM312.455 40.9033C312.887 40.9033 313.24 40.8445 313.514 40.7269C313.788 40.5701 314.063 40.3349 314.337 40.0212C314.455 39.8644 314.553 39.6684 314.631 39.4332C314.71 39.1588 314.749 38.8451 314.749 38.4923L314.925 34.2584C314.925 33.8663 314.866 33.6115 314.749 33.4939C314.631 33.3763 314.494 33.3175 314.337 33.3175C314.259 33.3175 314.161 33.3371 314.043 33.3763C313.926 33.4155 313.788 33.4743 313.632 33.5527C312.495 34.1016 311.652 34.67 311.103 35.2581C310.554 35.8069 310.28 36.7086 310.28 37.9631C310.28 39.1 310.515 39.884 310.985 40.3153C311.456 40.7073 311.946 40.9033 312.455 40.9033ZM329.243 44.0788C328.459 44.0788 328.067 43.8043 328.067 43.2555C328.067 42.9419 328.184 42.7066 328.42 42.5498C328.655 42.3538 328.988 42.197 329.419 42.0794C330.007 41.8834 330.517 41.6678 330.948 41.4325C331.419 41.1973 331.654 40.6485 331.654 39.786V11.5598C331.654 10.4621 331.517 9.54081 331.242 8.79595C330.968 8.01189 330.341 7.52185 329.36 7.32583C328.929 7.24743 328.714 6.9534 328.714 6.44376C328.714 5.93412 328.91 5.6401 329.302 5.56169C330.282 5.36568 331.34 5.09126 332.477 4.73843C333.653 4.3464 334.77 3.95436 335.829 3.56233C336.887 3.1311 337.711 2.81748 338.299 2.62146C338.612 2.50385 338.867 2.44504 339.063 2.44504C339.298 2.44504 339.455 2.52345 339.534 2.68026C339.612 2.79787 339.651 2.95469 339.651 3.1507C339.651 3.46433 339.592 3.99357 339.475 4.73843C339.396 5.48329 339.338 6.30655 339.298 7.20823L339.357 29.2012C339.357 29.6716 339.534 29.9068 339.886 29.9068C340.004 29.9068 340.141 29.8676 340.298 29.7892C340.494 29.6716 340.671 29.554 340.827 29.4364C342.278 28.1819 343.572 26.9078 344.708 25.6141C345.845 24.3204 346.61 23.3795 347.002 22.7915C347.159 22.5562 347.276 22.3602 347.355 22.2034C347.472 22.0466 347.531 21.9094 347.531 21.7918C347.531 21.5958 347.374 21.3998 347.061 21.2037C346.747 20.9685 346.277 20.8117 345.649 20.7333C345.179 20.6549 344.944 20.4393 344.944 20.0864C344.944 19.7336 345.081 19.518 345.355 19.4396C345.669 19.322 345.963 19.2632 346.237 19.2632H349.119C349.824 19.2632 350.746 19.2436 351.883 19.2044C353.02 19.126 354.137 19.028 355.234 18.9104C356.332 18.7927 357.116 18.7339 357.587 18.7339C358.018 18.7339 358.234 18.9496 358.234 19.3808C358.234 19.6944 358.116 19.9688 357.881 20.2041C357.645 20.4001 357.312 20.5373 356.881 20.6157C356.215 20.7725 355.431 21.0469 354.529 21.439C353.627 21.831 352.725 22.2818 351.824 22.7915C351.157 23.1443 350.432 23.5951 349.648 24.144C348.903 24.6536 348.158 25.2025 347.413 25.7905C346.708 26.3785 346.061 26.947 345.473 27.4958C345.277 27.6919 345.179 27.9075 345.179 28.1427C345.179 28.2603 345.218 28.3779 345.296 28.4955C345.375 28.5739 345.453 28.6719 345.532 28.7895C346.473 30.0048 347.374 31.2005 348.237 32.3766C349.099 33.5527 349.962 34.6896 350.824 35.7873C351.687 36.8458 352.569 37.9043 353.47 38.9628C354.137 39.6684 354.94 40.3153 355.881 40.9033C356.822 41.4914 357.606 41.903 358.234 42.1382C358.547 42.2558 358.88 42.393 359.233 42.5498C359.625 42.7066 359.821 42.9419 359.821 43.2555C359.821 43.8043 359.39 44.0788 358.528 44.0788C356.175 44.0788 353.862 44.0396 351.589 43.9611C349.354 43.9219 347.257 43.9023 345.296 43.9023C344.512 43.9023 344.12 43.6279 344.12 43.0791C344.12 42.7655 344.238 42.5302 344.473 42.3734C344.708 42.2166 345.022 42.0598 345.414 41.903C345.767 41.7854 346.002 41.6482 346.12 41.4914C346.277 41.3345 346.375 41.1581 346.414 40.9621C346.414 40.8053 346.335 40.6289 346.179 40.4329C346.061 40.1976 345.904 39.9428 345.708 39.6684L340.004 31.7886C339.886 31.7102 339.788 31.671 339.71 31.671C339.475 31.7102 339.357 31.8474 339.357 32.0826C339.357 32.6707 339.357 33.2783 339.357 33.9055C339.357 34.5328 339.357 35.1404 339.357 35.7285C339.357 36.3557 339.357 37.0418 339.357 37.7867C339.357 38.4923 339.357 39.1784 339.357 39.8448C339.357 40.5113 339.494 41.0013 339.769 41.3149C340.082 41.5894 340.533 41.8246 341.121 42.0206C341.435 42.1382 341.709 42.295 341.945 42.491C342.219 42.6478 342.356 42.8831 342.356 43.1967C342.356 43.4711 342.239 43.6867 342.003 43.8435C341.807 44.0004 341.572 44.0788 341.298 44.0788C340.514 44.0788 339.788 44.0396 339.122 43.9611C338.495 43.9219 337.887 43.8827 337.299 43.8435C336.711 43.8043 336.064 43.7847 335.359 43.7847C334.692 43.7847 334.026 43.8043 333.359 43.8435C332.732 43.8827 332.085 43.9219 331.419 43.9611C330.752 44.0396 330.027 44.0788 329.243 44.0788ZM370.429 44.7256C368.312 44.7256 366.411 44.1768 364.725 43.0791C363.078 41.9422 361.765 40.4133 360.785 38.4923C359.844 36.5322 359.374 34.3172 359.374 31.8474C359.374 29.3776 359.942 27.143 361.079 25.1437C362.216 23.1051 363.765 21.4978 365.725 20.3217C367.685 19.1064 369.841 18.4987 372.193 18.4987C373.879 18.4987 375.388 18.8712 376.721 19.616C378.054 20.3217 379.113 21.2821 379.897 22.4974C380.72 23.7127 381.132 25.0848 381.132 26.6138C381.132 28.1035 380.524 28.8483 379.309 28.8483H367.548C366.999 28.8483 366.587 29.0052 366.313 29.3188C366.078 29.6324 365.96 30.1617 365.96 30.9065C365.96 32.3962 366.293 33.7683 366.96 35.0228C367.626 36.2381 368.528 37.1986 369.665 37.9043C370.801 38.6099 372.115 38.9628 373.605 38.9628C374.741 38.9628 375.78 38.7471 376.721 38.3159C377.701 37.8847 378.662 37.2966 379.603 36.5518C379.759 36.4341 379.897 36.3361 380.014 36.2577C380.171 36.1401 380.308 36.0813 380.426 36.0813C380.818 36.0813 381.014 36.3361 381.014 36.8458C381.014 37.277 380.857 37.8651 380.543 38.6099C380.151 39.59 379.485 40.5701 378.544 41.5502C377.642 42.491 376.506 43.2555 375.133 43.8435C373.761 44.4316 372.193 44.7256 370.429 44.7256ZM367.548 26.3785H371.076C372.174 26.3785 372.938 26.3589 373.369 26.3197C373.801 26.2805 374.193 26.2021 374.545 26.0845C374.741 26.0061 374.898 25.8101 375.016 25.4965C375.133 25.1829 375.192 24.83 375.192 24.438C375.192 23.3795 374.82 22.517 374.075 21.8506C373.369 21.1841 372.487 20.8509 371.429 20.8509C370.605 20.8509 369.821 21.0861 369.077 21.5566C368.371 21.9878 367.783 22.5758 367.312 23.3207C366.881 24.0264 366.685 24.7712 366.724 25.5553C366.724 26.1041 366.999 26.3785 367.548 26.3785ZM395.421 44.7256C392.833 44.7256 390.893 44.0788 389.599 42.7851C388.305 41.4521 387.658 39.59 387.658 37.1986V23.6735C387.658 23.3207 387.521 23.0659 387.247 22.9091C387.012 22.7523 386.541 22.6543 385.835 22.615H385.071C384.797 22.615 384.561 22.3994 384.365 21.9682C384.208 21.4978 384.13 21.0861 384.13 20.7333C384.13 20.6549 384.15 20.5569 384.189 20.4393C384.267 20.2825 384.365 20.1845 384.483 20.1453C385.424 19.7924 386.423 19.2632 387.482 18.5575C388.58 17.8127 389.619 17.0286 390.599 16.2053C391.618 15.3821 392.441 14.696 393.068 14.1472C393.343 13.9512 393.578 13.7747 393.774 13.6179C393.97 13.4611 394.225 13.3827 394.539 13.3827C394.891 13.3827 395.146 13.4611 395.303 13.6179C395.46 13.7355 395.499 14.0492 395.421 14.5588L395.068 18.0283C395.029 18.4987 395.127 18.8319 395.362 19.028C395.636 19.1848 396.009 19.2632 396.479 19.2632H403.477C403.594 19.2632 403.712 19.4004 403.83 19.6748C403.947 19.9492 404.006 20.2041 404.006 20.4393C404.006 20.9881 403.928 21.5174 403.771 22.027C403.614 22.5366 403.438 22.7915 403.242 22.7915H397.773C396.871 22.7915 396.244 22.9091 395.891 23.1443C395.577 23.3403 395.421 23.7127 395.421 24.2616V35.3757C395.421 37.179 395.754 38.5315 396.42 39.4332C397.126 40.2957 398.047 40.7269 399.184 40.7269C400.321 40.7269 401.144 40.6093 401.654 40.3741C402.203 40.1388 402.693 39.9428 403.124 39.786C403.281 39.7076 403.398 39.6684 403.477 39.6684C403.673 39.6684 403.83 39.786 403.947 40.0212C404.065 40.2565 404.124 40.5309 404.124 40.8445C404.124 41.0797 403.712 41.511 402.889 42.1382C402.066 42.7655 400.987 43.3535 399.655 43.9023C398.361 44.4512 396.95 44.7256 395.421 44.7256ZM420.725 44.1964C420.372 44.1964 420.078 44.0984 419.842 43.9023C419.646 43.7455 419.548 43.5495 419.548 43.3143C419.548 42.7263 419.98 42.3146 420.842 42.0794C422.175 41.7266 423.116 41.3149 423.665 40.8445C424.253 40.3741 424.547 39.5116 424.547 38.2571V11.501C424.547 10.2465 424.292 9.3448 423.782 8.79595C423.273 8.2079 422.332 7.77667 420.96 7.50225C420.45 7.38464 420.097 7.22783 419.901 7.03181C419.705 6.79659 419.607 6.54177 419.607 6.26735C419.607 6.03213 419.725 5.83611 419.96 5.6793C420.195 5.48329 420.489 5.38528 420.842 5.38528C422.097 5.38528 423.136 5.42448 423.959 5.50289C424.782 5.58129 425.547 5.6597 426.252 5.73811C426.997 5.77731 427.859 5.79691 428.84 5.79691C429.741 5.79691 430.565 5.75771 431.309 5.6793C432.054 5.56169 432.877 5.46368 433.779 5.38528C434.72 5.30687 435.857 5.26767 437.19 5.26767C441.855 5.26767 445.383 5.93412 447.775 7.26703C450.205 8.56073 451.421 10.8149 451.421 14.0296C451.421 15.2449 451.146 16.4014 450.597 17.499C450.048 18.5575 449.343 19.4396 448.48 20.1453C447.853 20.6941 447.187 21.1449 446.481 21.4978C445.815 21.8506 445.05 22.1446 444.188 22.3798C444.031 22.419 443.952 22.517 443.952 22.6739C443.952 22.8307 444.031 22.9287 444.188 22.9679C445.207 23.2031 446.265 23.5167 447.363 23.9088C448.461 24.2616 449.48 24.7908 450.421 25.4965C451.401 26.2021 452.165 27.1234 452.714 28.2603C453.302 29.358 453.596 30.7693 453.596 32.4942C453.596 34.6896 453.244 36.4341 452.538 37.7279C451.871 38.9824 451.048 39.9428 450.068 40.6093C449.127 41.2757 448.245 41.8246 447.422 42.2558C446.128 42.8831 444.658 43.3535 443.011 43.6671C441.365 43.9807 439.405 44.1376 437.131 44.1376C435.837 44.1376 434.524 44.0984 433.191 44.02C431.897 43.9415 430.525 43.9023 429.075 43.9023C428.252 43.9023 427.35 43.9219 426.37 43.9611C425.39 44.0004 424.41 44.0396 423.43 44.0788C422.489 44.1572 421.587 44.1964 420.725 44.1964ZM437.19 40.9033C438.366 40.9033 439.464 40.5505 440.483 39.8448C441.541 39.1392 442.365 38.1983 442.953 37.0222C443.58 35.8069 443.894 34.4348 443.894 32.9059C443.894 31.573 443.717 30.4557 443.364 29.554C443.051 28.6523 442.659 27.9271 442.188 27.3782C441.757 26.8294 441.345 26.4178 440.953 26.1433C440.64 25.8689 440.071 25.5945 439.248 25.3201C438.464 25.0064 437.484 24.8496 436.308 24.8496C435.641 24.8496 435.014 25.026 434.426 25.3789C433.877 25.6925 433.603 26.1629 433.603 26.7902V37.1398C433.603 38.4335 433.916 39.394 434.544 40.0212C435.171 40.6093 436.053 40.9033 437.19 40.9033ZM435.955 22.2034C436.896 22.2034 437.758 22.1054 438.542 21.9094C439.326 21.6742 440.13 21.2429 440.953 20.6157C441.228 20.3413 441.6 19.7924 442.071 18.9692C442.58 18.1067 442.835 16.8718 442.835 15.2645C442.835 13.6179 442.619 12.2458 442.188 11.1481C441.757 10.0504 441.091 9.22718 440.189 8.67834C439.326 8.1295 438.17 7.85508 436.719 7.85508C435.622 7.85508 434.818 8.07069 434.308 8.50193C433.838 8.89396 433.603 9.50161 433.603 10.3249V20.1453C433.603 20.9293 433.877 21.4782 434.426 21.7918C434.975 22.0662 435.484 22.2034 435.955 22.2034ZM469.296 44.7256C466.944 44.7256 464.827 44.1964 462.945 43.1379C461.063 42.0794 459.554 40.6289 458.417 38.7863C457.319 36.9046 456.77 34.7876 456.77 32.4354C456.77 30.5537 457.123 28.7699 457.829 27.0842C458.535 25.3985 459.515 23.9088 460.769 22.615C462.024 21.3213 463.494 20.3021 465.179 19.5572C466.865 18.8123 468.669 18.4399 470.59 18.4399C473.02 18.4399 475.215 19.0084 477.176 20.1453C479.136 21.2821 480.684 22.7915 481.821 24.6732C482.997 26.5158 483.585 28.5347 483.585 30.7301C483.585 33.2391 483.037 35.5717 481.939 37.7279C480.88 39.8448 479.293 41.5502 477.176 42.8439C475.098 44.0984 472.471 44.7256 469.296 44.7256ZM470.472 42.1382C471.295 42.1382 472.001 41.9814 472.589 41.6678C473.216 41.3149 473.726 40.8053 474.118 40.1388C474.588 39.3548 474.902 38.2963 475.059 36.9634C475.255 35.5913 475.353 33.984 475.353 32.1414C475.353 30.0244 475.117 28.1427 474.647 26.4962C474.177 24.8104 473.51 23.4775 472.648 22.4974C471.824 21.5174 470.844 21.0273 469.707 21.0273C469.08 21.0273 468.512 21.1449 468.002 21.3802C467.492 21.5762 467.042 21.8702 466.65 22.2622C465.983 23.0463 465.513 24.1636 465.238 25.6141C465.003 27.0646 464.885 28.8483 464.885 30.9653C464.885 32.8471 465.121 34.6504 465.591 36.3753C466.101 38.0611 466.767 39.4528 467.59 40.5505C468.453 41.609 469.413 42.1382 470.472 42.1382ZM487.404 44.0788C487.09 44.0788 486.815 44.02 486.58 43.9023C486.345 43.7455 486.227 43.5299 486.227 43.2555C486.227 42.9419 486.345 42.7066 486.58 42.5498C486.815 42.3538 487.149 42.197 487.58 42.0794C488.442 41.805 489.011 41.511 489.285 41.1973C489.599 40.8837 489.756 40.4329 489.756 39.8448V26.3197C489.756 25.4965 489.638 24.83 489.403 24.3204C489.207 23.7715 488.736 23.3991 487.992 23.2031C487.796 23.1247 487.619 23.0267 487.462 22.9091C487.306 22.7523 487.227 22.4974 487.227 22.1446C487.227 21.5958 487.462 21.2625 487.933 21.1449C489.187 20.8313 490.559 20.4197 492.049 19.91C493.578 19.4004 494.872 18.8908 495.93 18.3811C496.126 18.2243 496.361 18.0871 496.636 17.9695C496.949 17.8127 497.165 17.7343 497.283 17.7343C497.636 17.7343 497.812 17.9499 497.812 18.3811C497.812 18.5771 497.792 18.9888 497.753 19.616C497.753 20.2041 497.734 20.8117 497.694 21.439C497.694 22.0662 497.675 22.5954 497.636 23.0267C497.636 23.3795 497.714 23.5559 497.871 23.5559C498.459 22.7327 499.145 21.929 499.929 21.1449C500.752 20.3609 501.634 19.714 502.575 19.2044C503.516 18.6947 504.437 18.4399 505.339 18.4399C506.711 18.4399 507.672 18.6947 508.22 19.2044C508.808 19.714 509.102 20.3805 509.102 21.2037C509.102 21.7918 508.926 22.4386 508.573 23.1443C508.26 23.8499 507.848 24.4576 507.338 24.9672C506.829 25.4769 506.28 25.7317 505.692 25.7317C505.339 25.7317 504.967 25.6533 504.574 25.4965C504.182 25.3005 503.79 25.1044 503.398 24.9084C503.006 24.7516 502.614 24.5948 502.222 24.438C501.869 24.242 501.536 24.144 501.223 24.144C500.203 24.144 499.321 24.5164 498.576 25.2613C497.832 26.0061 497.459 27.4958 497.459 29.7304V39.3156C497.459 40.0996 497.694 40.6877 498.165 41.0797C498.674 41.4325 499.478 41.7658 500.576 42.0794C501.007 42.197 501.321 42.3538 501.517 42.5498C501.752 42.7066 501.869 42.9419 501.869 43.2555C501.869 43.8043 501.536 44.0788 500.87 44.0788C499.694 44.0788 498.478 44.02 497.224 43.9023C495.969 43.8239 494.833 43.7847 493.813 43.7847C493.147 43.7847 492.461 43.8043 491.755 43.8435C491.089 43.8827 490.383 43.9219 489.638 43.9611C488.932 44.0396 488.188 44.0788 487.404 44.0788ZM511.399 44.0788C510.615 44.0788 510.223 43.8043 510.223 43.2555C510.223 42.9419 510.341 42.7066 510.576 42.5498C510.811 42.3538 511.145 42.197 511.576 42.0794C512.164 41.8834 512.674 41.6678 513.105 41.4325C513.575 41.1973 513.81 40.6485 513.81 39.786V11.5598C513.81 10.4621 513.673 9.54081 513.399 8.79595C513.124 8.01189 512.497 7.52185 511.517 7.32583C511.086 7.24743 510.87 6.9534 510.87 6.44376C510.87 5.93412 511.066 5.6401 511.458 5.56169C512.438 5.36568 513.497 5.09126 514.634 4.73843C515.81 4.3464 516.927 3.95436 517.986 3.56233C519.044 3.1311 519.867 2.81748 520.455 2.62146C520.769 2.50385 521.024 2.44504 521.22 2.44504C521.455 2.44504 521.612 2.52345 521.69 2.68026C521.769 2.79787 521.808 2.95469 521.808 3.1507C521.808 3.46433 521.749 3.99357 521.631 4.73843C521.553 5.48329 521.494 6.30655 521.455 7.20823L521.514 29.2012C521.514 29.6716 521.69 29.9068 522.043 29.9068C522.161 29.9068 522.298 29.8676 522.455 29.7892C522.651 29.6716 522.827 29.554 522.984 29.4364C524.435 28.1819 525.728 26.9078 526.865 25.6141C528.002 24.3204 528.766 23.3795 529.158 22.7915C529.315 22.5562 529.433 22.3602 529.511 22.2034C529.629 22.0466 529.688 21.9094 529.688 21.7918C529.688 21.5958 529.531 21.3998 529.217 21.2037C528.904 20.9685 528.433 20.8117 527.806 20.7333C527.336 20.6549 527.1 20.4393 527.1 20.0864C527.1 19.7336 527.238 19.518 527.512 19.4396C527.826 19.322 528.12 19.2632 528.394 19.2632H531.275C531.981 19.2632 532.902 19.2436 534.039 19.2044C535.176 19.126 536.293 19.028 537.391 18.9104C538.489 18.7927 539.273 18.7339 539.743 18.7339C540.175 18.7339 540.39 18.9496 540.39 19.3808C540.39 19.6944 540.273 19.9688 540.037 20.2041C539.802 20.4001 539.469 20.5373 539.038 20.6157C538.371 20.7725 537.587 21.0469 536.685 21.439C535.784 21.831 534.882 22.2818 533.98 22.7915C533.314 23.1443 532.589 23.5951 531.805 24.144C531.06 24.6536 530.315 25.2025 529.57 25.7905C528.864 26.3785 528.218 26.947 527.63 27.4958C527.434 27.6919 527.336 27.9075 527.336 28.1427C527.336 28.2603 527.375 28.3779 527.453 28.4955C527.532 28.5739 527.61 28.6719 527.688 28.7895C528.629 30.0048 529.531 31.2005 530.393 32.3766C531.256 33.5527 532.118 34.6896 532.981 35.7873C533.843 36.8458 534.725 37.9043 535.627 38.9628C536.293 39.6684 537.097 40.3153 538.038 40.9033C538.979 41.4914 539.763 41.903 540.39 42.1382C540.704 42.2558 541.037 42.393 541.39 42.5498C541.782 42.7066 541.978 42.9419 541.978 43.2555C541.978 43.8043 541.547 44.0788 540.684 44.0788C538.332 44.0788 536.019 44.0396 533.745 43.9611C531.511 43.9219 529.413 43.9023 527.453 43.9023C526.669 43.9023 526.277 43.6279 526.277 43.0791C526.277 42.7655 526.395 42.5302 526.63 42.3734C526.865 42.2166 527.179 42.0598 527.571 41.903C527.924 41.7854 528.159 41.6482 528.276 41.4914C528.433 41.3345 528.531 41.1581 528.57 40.9621C528.57 40.8053 528.492 40.6289 528.335 40.4329C528.218 40.1976 528.061 39.9428 527.865 39.6684L522.161 31.7886C522.043 31.7102 521.945 31.671 521.867 31.671C521.631 31.7102 521.514 31.8474 521.514 32.0826C521.514 32.6707 521.514 33.2783 521.514 33.9055C521.514 34.5328 521.514 35.1404 521.514 35.7285C521.514 36.3557 521.514 37.0418 521.514 37.7867C521.514 38.4923 521.514 39.1784 521.514 39.8448C521.514 40.5113 521.651 41.0013 521.926 41.3149C522.239 41.5894 522.69 41.8246 523.278 42.0206C523.592 42.1382 523.866 42.295 524.101 42.491C524.376 42.6478 524.513 42.8831 524.513 43.1967C524.513 43.4711 524.395 43.6867 524.16 43.8435C523.964 44.0004 523.729 44.0788 523.454 44.0788C522.67 44.0788 521.945 44.0396 521.279 43.9611C520.651 43.9219 520.044 43.8827 519.456 43.8435C518.868 43.8043 518.221 43.7847 517.515 43.7847C516.849 43.7847 516.182 43.8043 515.516 43.8435C514.889 43.8827 514.242 43.9219 513.575 43.9611C512.909 44.0396 512.184 44.0788 511.399 44.0788ZM548.97 44.7256C547.911 44.7256 546.931 44.4708 546.029 43.9611C545.128 43.4515 544.403 42.7851 543.854 41.9618C543.344 41.1385 543.089 40.2369 543.089 39.2568C543.089 37.9239 543.501 36.8066 544.324 35.9049C545.187 35.0032 546.441 34.1996 548.088 33.4939L553.321 31.2005C554.105 30.8477 554.576 30.5341 554.733 30.2597C554.929 29.9852 555.027 29.4756 555.027 28.7307L555.085 25.3789C555.125 24.2812 554.929 23.4187 554.497 22.7915C554.066 22.125 553.419 21.7918 552.557 21.7918C552.047 21.7918 551.538 21.9094 551.028 22.1446C550.518 22.3406 550.126 22.5758 549.852 22.8503C549.734 23.0071 549.636 23.2031 549.558 23.4383C549.519 23.6343 549.499 23.8499 549.499 24.0852C549.499 24.3204 549.519 24.6144 549.558 24.9672C549.597 25.2809 549.617 25.5553 549.617 25.7905C549.617 26.0257 549.303 26.3393 548.676 26.7314C548.048 27.0842 547.323 27.4174 546.5 27.7311C545.677 28.0055 544.971 28.1427 544.383 28.1427C544.109 28.1427 543.854 28.0251 543.618 27.7899C543.422 27.5546 543.324 27.2606 543.324 26.9078C543.324 26.2805 543.54 25.6729 543.971 25.0848C544.403 24.4576 545.108 23.7519 546.088 22.9679C547.108 22.1054 548.225 21.3409 549.44 20.6745C550.655 20.008 551.851 19.4788 553.027 19.0868C554.243 18.6947 555.262 18.4987 556.085 18.4987C558.202 18.4987 559.888 19.1848 561.142 20.5569C562.397 21.8898 562.985 23.6735 562.906 25.9081L562.612 37.7867C562.573 38.6883 562.73 39.4528 563.083 40.08C563.436 40.7073 563.867 41.0209 564.377 41.0209C565.121 41.0209 565.768 40.7661 566.317 40.2565C566.435 40.1388 566.552 40.08 566.67 40.08C566.866 40.08 567.023 40.1388 567.14 40.2565C567.297 40.3741 567.376 40.5309 567.376 40.7269C567.376 41.1973 567.023 41.805 566.317 42.5498C565.572 43.2555 564.788 43.7847 563.965 44.1376C563.142 44.5296 562.279 44.7256 561.378 44.7256C559.182 44.7256 557.359 43.6083 555.909 41.3737H555.791C554.497 42.5498 553.321 43.3927 552.263 43.9023C551.243 44.4512 550.146 44.7256 548.97 44.7256ZM552.498 40.9033C552.929 40.9033 553.282 40.8445 553.556 40.7269C553.831 40.5701 554.105 40.3349 554.38 40.0212C554.497 39.8644 554.595 39.6684 554.674 39.4332C554.752 39.1588 554.791 38.8451 554.791 38.4923L554.968 34.2584C554.968 33.8663 554.909 33.6115 554.791 33.4939C554.674 33.3763 554.537 33.3175 554.38 33.3175C554.301 33.3175 554.203 33.3371 554.086 33.3763C553.968 33.4155 553.831 33.4743 553.674 33.5527C552.537 34.1016 551.694 34.67 551.145 35.2581C550.597 35.8069 550.322 36.7086 550.322 37.9631C550.322 39.1 550.557 39.884 551.028 40.3153C551.498 40.7073 551.988 40.9033 552.498 40.9033ZM569.638 44.0788C569.325 44.0788 569.05 44.02 568.815 43.9023C568.58 43.7455 568.462 43.5299 568.462 43.2555C568.462 42.9419 568.58 42.7066 568.815 42.5498C569.05 42.3538 569.383 42.197 569.815 42.0794C570.677 41.805 571.245 41.511 571.52 41.1973C571.834 40.8837 571.99 40.4329 571.99 39.8448V26.3197C571.99 25.4965 571.873 24.83 571.638 24.3204C571.442 23.7715 570.971 23.3991 570.226 23.2031C570.03 23.1247 569.854 23.0267 569.697 22.9091C569.54 22.7523 569.462 22.4974 569.462 22.1446C569.462 21.5958 569.697 21.2625 570.167 21.1449C571.422 20.8313 572.794 20.4197 574.284 19.91C575.813 19.4004 577.106 18.8908 578.165 18.3811C578.361 18.2243 578.596 18.0871 578.87 17.9695C579.184 17.8127 579.4 17.7343 579.517 17.7343C579.87 17.7343 580.047 17.9499 580.047 18.3811C580.047 18.5771 580.027 18.9888 579.988 19.616C579.988 20.2041 579.968 20.8117 579.929 21.439C579.929 22.0662 579.909 22.5954 579.87 23.0267C579.87 23.3795 579.949 23.5559 580.105 23.5559C580.693 22.7327 581.379 21.929 582.164 21.1449C582.987 20.3609 583.869 19.714 584.81 19.2044C585.751 18.6947 586.672 18.4399 587.574 18.4399C588.946 18.4399 589.906 18.6947 590.455 19.2044C591.043 19.714 591.337 20.3805 591.337 21.2037C591.337 21.7918 591.161 22.4386 590.808 23.1443C590.494 23.8499 590.083 24.4576 589.573 24.9672C589.063 25.4769 588.514 25.7317 587.926 25.7317C587.574 25.7317 587.201 25.6533 586.809 25.4965C586.417 25.3005 586.025 25.1044 585.633 24.9084C585.241 24.7516 584.849 24.5948 584.457 24.438C584.104 24.242 583.771 24.144 583.457 24.144C582.438 24.144 581.556 24.5164 580.811 25.2613C580.066 26.0061 579.694 27.4958 579.694 29.7304V39.3156C579.694 40.0996 579.929 40.6877 580.399 41.0797C580.909 41.4325 581.713 41.7658 582.81 42.0794C583.242 42.197 583.555 42.3538 583.751 42.5498C583.987 42.7066 584.104 42.9419 584.104 43.2555C584.104 43.8043 583.771 44.0788 583.104 44.0788C581.928 44.0788 580.713 44.02 579.459 43.9023C578.204 43.8239 577.067 43.7847 576.048 43.7847C575.381 43.7847 574.695 43.8043 573.99 43.8435C573.323 43.8827 572.618 43.9219 571.873 43.9611C571.167 44.0396 570.422 44.0788 569.638 44.0788Z" fill="white"/>
<path d="M22.6177 86.6016H19.7995C19.6329 85.791 19.3412 85.0788 18.9245 84.4652C18.5154 83.8516 18.0154 83.3364 17.4245 82.9197C16.8412 82.4955 16.1935 82.1773 15.4814 81.9652C14.7692 81.7531 14.0268 81.647 13.2541 81.647C11.845 81.647 10.5685 82.0031 9.42454 82.7152C8.28817 83.4273 7.38287 84.4766 6.70863 85.8629C6.04196 87.2493 5.70863 88.95 5.70863 90.9652C5.70863 92.9803 6.04196 94.6811 6.70863 96.0675C7.38287 97.4538 8.28817 98.5031 9.42454 99.2152C10.5685 99.9273 11.845 100.283 13.2541 100.283C14.0268 100.283 14.7692 100.177 15.4814 99.9652C16.1935 99.7531 16.8412 99.4387 17.4245 99.022C18.0154 98.5978 18.5154 98.0788 18.9245 97.4652C19.3412 96.844 19.6329 96.1319 19.7995 95.3288H22.6177C22.4056 96.5182 22.0192 97.5826 21.4586 98.522C20.898 99.4614 20.2011 100.261 19.3677 100.92C18.5344 101.571 17.5988 102.067 16.5609 102.408C15.5306 102.749 14.4283 102.92 13.2541 102.92C11.2692 102.92 9.50408 102.435 7.95863 101.465C6.41317 100.496 5.19727 99.1167 4.3109 97.3288C3.42454 95.541 2.98136 93.4197 2.98136 90.9652C2.98136 88.5107 3.42454 86.3894 4.3109 84.6016C5.19727 82.8137 6.41317 81.4349 7.95863 80.4652C9.50408 79.4955 11.2692 79.0107 13.2541 79.0107C14.4283 79.0107 15.5306 79.1811 16.5609 79.522C17.5988 79.8629 18.5344 80.3629 19.3677 81.022C20.2011 81.6735 20.898 82.469 21.4586 83.4084C22.0192 84.3402 22.4056 85.4046 22.6177 86.6016ZM33.899 102.965C32.3232 102.965 30.9406 102.59 29.7512 101.84C28.5694 101.09 27.6452 100.041 26.9785 98.6925C26.3194 97.344 25.9899 95.7682 25.9899 93.9652C25.9899 92.147 26.3194 90.5599 26.9785 89.2038C27.6452 87.8478 28.5694 86.7947 29.7512 86.0447C30.9406 85.2947 32.3232 84.9197 33.899 84.9197C35.4747 84.9197 36.8535 85.2947 38.0353 86.0447C39.2247 86.7947 40.149 87.8478 40.8081 89.2038C41.4747 90.5599 41.8081 92.147 41.8081 93.9652C41.8081 95.7682 41.4747 97.344 40.8081 98.6925C40.149 100.041 39.2247 101.09 38.0353 101.84C36.8535 102.59 35.4747 102.965 33.899 102.965ZM33.899 100.556C35.0959 100.556 36.0808 100.249 36.8535 99.6357C37.6262 99.022 38.1982 98.2152 38.5694 97.2152C38.9406 96.2152 39.1262 95.1319 39.1262 93.9652C39.1262 92.7985 38.9406 91.7114 38.5694 90.7038C38.1982 89.6963 37.6262 88.8819 36.8535 88.2607C36.0808 87.6394 35.0959 87.3288 33.899 87.3288C32.702 87.3288 31.7172 87.6394 30.9444 88.2607C30.1717 88.8819 29.5997 89.6963 29.2285 90.7038C28.8573 91.7114 28.6717 92.7985 28.6717 93.9652C28.6717 95.1319 28.8573 96.2152 29.2285 97.2152C29.5997 98.2152 30.1717 99.022 30.9444 99.6357C31.7172 100.249 32.702 100.556 33.899 100.556ZM55.9018 91.3743V93.8743H45.72V91.3743H55.9018ZM60.9842 102.602V79.3288H74.9387V81.8288H63.8024V89.6925H73.8933V92.1925H63.8024V102.602H60.9842ZM85.2115 102.965C83.6357 102.965 82.2531 102.59 81.0637 101.84C79.8819 101.09 78.9577 100.041 78.291 98.6925C77.6319 97.344 77.3024 95.7682 77.3024 93.9652C77.3024 92.147 77.6319 90.5599 78.291 89.2038C78.9577 87.8478 79.8819 86.7947 81.0637 86.0447C82.2531 85.2947 83.6357 84.9197 85.2115 84.9197C86.7872 84.9197 88.166 85.2947 89.3478 86.0447C90.5372 86.7947 91.4615 87.8478 92.1206 89.2038C92.7872 90.5599 93.1206 92.147 93.1206 93.9652C93.1206 95.7682 92.7872 97.344 92.1206 98.6925C91.4615 100.041 90.5372 101.09 89.3478 101.84C88.166 102.59 86.7872 102.965 85.2115 102.965ZM85.2115 100.556C86.4084 100.556 87.3933 100.249 88.166 99.6357C88.9387 99.022 89.5107 98.2152 89.8819 97.2152C90.2531 96.2152 90.4387 95.1319 90.4387 93.9652C90.4387 92.7985 90.2531 91.7114 89.8819 90.7038C89.5107 89.6963 88.9387 88.8819 88.166 88.2607C87.3933 87.6394 86.4084 87.3288 85.2115 87.3288C84.0145 87.3288 83.0297 87.6394 82.2569 88.2607C81.4842 88.8819 80.9122 89.6963 80.541 90.7038C80.1698 91.7114 79.9842 92.7985 79.9842 93.9652C79.9842 95.1319 80.1698 96.2152 80.541 97.2152C80.9122 98.2152 81.4842 99.022 82.2569 99.6357C83.0297 100.249 84.0145 100.556 85.2115 100.556ZM108.214 95.4652V85.147H110.896V102.602H108.214V99.647H108.032C107.623 100.533 106.987 101.287 106.123 101.908C105.26 102.522 104.169 102.829 102.851 102.829C101.76 102.829 100.79 102.59 99.9416 102.113C99.0931 101.628 98.4264 100.901 97.9416 99.9311C97.4567 98.9538 97.2143 97.7228 97.2143 96.2379V85.147H99.8961V96.0561C99.8961 97.3288 100.252 98.344 100.964 99.1016C101.684 99.8591 102.601 100.238 103.714 100.238C104.381 100.238 105.059 100.067 105.748 99.7266C106.445 99.3857 107.029 98.8629 107.498 98.1584C107.976 97.4538 108.214 96.5561 108.214 95.4652ZM118.49 92.1016V102.602H115.808V85.147H118.399V87.8743H118.626C119.035 86.9879 119.657 86.2758 120.49 85.7379C121.323 85.1925 122.399 84.9197 123.717 84.9197C124.899 84.9197 125.933 85.1622 126.819 85.647C127.706 86.1243 128.395 86.8516 128.888 87.8288C129.38 88.7985 129.626 90.0258 129.626 91.5107V102.602H126.944V91.6925C126.944 90.3213 126.588 89.2531 125.876 88.4879C125.164 87.7152 124.187 87.3288 122.944 87.3288C122.088 87.3288 121.323 87.5144 120.649 87.8857C119.982 88.2569 119.456 88.7985 119.069 89.5107C118.683 90.2228 118.49 91.0864 118.49 92.1016ZM141.118 102.965C139.663 102.965 138.379 102.598 137.265 101.863C136.152 101.121 135.281 100.075 134.652 98.7266C134.023 97.3705 133.709 95.7682 133.709 93.9197C133.709 92.0864 134.023 90.4955 134.652 89.147C135.281 87.7985 136.156 86.7569 137.277 86.022C138.398 85.2872 139.693 84.9197 141.163 84.9197C142.3 84.9197 143.197 85.1091 143.856 85.4879C144.523 85.8591 145.031 86.2834 145.379 86.7607C145.735 87.2303 146.012 87.6167 146.209 87.9197H146.436V79.3288H149.118V102.602H146.527V99.9197H146.209C146.012 100.238 145.731 100.639 145.368 101.124C145.004 101.602 144.485 102.03 143.811 102.408C143.137 102.78 142.239 102.965 141.118 102.965ZM141.481 100.556C142.557 100.556 143.466 100.276 144.209 99.7152C144.951 99.147 145.515 98.3629 145.902 97.3629C146.288 96.3554 146.481 95.1925 146.481 93.8743C146.481 92.5713 146.292 91.4311 145.913 90.4538C145.534 89.469 144.974 88.7038 144.231 88.1584C143.489 87.6053 142.572 87.3288 141.481 87.3288C140.345 87.3288 139.398 87.6205 138.64 88.2038C137.89 88.7796 137.326 89.5637 136.947 90.5561C136.576 91.541 136.39 92.647 136.39 93.8743C136.39 95.1167 136.58 96.2455 136.959 97.2607C137.345 98.2682 137.913 99.0713 138.663 99.6697C139.421 100.261 140.36 100.556 141.481 100.556ZM161.72 102.965C160.038 102.965 158.587 102.594 157.368 101.852C156.156 101.102 155.22 100.056 154.561 98.7152C153.909 97.3667 153.584 95.7985 153.584 94.0107C153.584 92.2228 153.909 90.647 154.561 89.2834C155.22 87.9122 156.137 86.844 157.311 86.0788C158.493 85.3061 159.872 84.9197 161.447 84.9197C162.356 84.9197 163.254 85.0713 164.14 85.3743C165.027 85.6773 165.834 86.1697 166.561 86.8516C167.288 87.5258 167.868 88.4197 168.3 89.5334C168.731 90.647 168.947 92.0182 168.947 93.647V94.7834H155.493V92.4652H166.22C166.22 91.4803 166.023 90.6016 165.629 89.8288C165.243 89.0561 164.69 88.4463 163.97 87.9993C163.258 87.5523 162.417 87.3288 161.447 87.3288C160.379 87.3288 159.455 87.594 158.675 88.1243C157.902 88.647 157.307 89.3288 156.89 90.1697C156.474 91.0107 156.265 91.9122 156.265 92.8743V94.4197C156.265 95.7379 156.493 96.8554 156.947 97.772C157.409 98.6811 158.05 99.3743 158.868 99.8516C159.686 100.321 160.637 100.556 161.72 100.556C162.425 100.556 163.061 100.458 163.629 100.261C164.205 100.056 164.701 99.7531 165.118 99.3516C165.534 98.9425 165.856 98.4349 166.084 97.8288L168.675 98.5561C168.402 99.4349 167.943 100.208 167.3 100.874C166.656 101.533 165.86 102.049 164.913 102.42C163.966 102.783 162.902 102.965 161.72 102.965ZM173.027 102.602V85.147H175.618V87.7834H175.8C176.118 86.9197 176.693 86.219 177.527 85.6811C178.36 85.1432 179.3 84.8743 180.345 84.8743C180.542 84.8743 180.788 84.8781 181.084 84.8857C181.379 84.8932 181.603 84.9046 181.754 84.9197V87.647C181.663 87.6243 181.455 87.5902 181.129 87.5447C180.811 87.4917 180.474 87.4652 180.118 87.4652C179.269 87.4652 178.512 87.6432 177.845 87.9993C177.186 88.3478 176.663 88.8326 176.277 89.4538C175.898 90.0675 175.709 90.7682 175.709 91.5561V102.602H173.027ZM200.524 102.92C198.994 102.92 197.675 102.639 196.569 102.079C195.463 101.518 194.611 100.749 194.013 99.772C193.414 98.7947 193.115 97.6773 193.115 96.4197C193.115 95.45 193.319 94.5902 193.729 93.8402C194.145 93.0826 194.717 92.3819 195.444 91.7379C196.179 91.0864 197.024 90.4349 197.979 89.7834L201.342 87.2834C202.001 86.8516 202.528 86.3894 202.922 85.897C203.323 85.4046 203.524 84.7607 203.524 83.9652C203.524 83.3743 203.263 82.8023 202.74 82.2493C202.225 81.6963 201.547 81.4197 200.706 81.4197C200.115 81.4197 199.592 81.5713 199.138 81.8743C198.691 82.1697 198.338 82.5485 198.081 83.0107C197.831 83.4652 197.706 83.9349 197.706 84.4197C197.706 84.9652 197.854 85.5182 198.149 86.0788C198.452 86.6319 198.835 87.2 199.297 87.7834C199.766 88.3591 200.251 88.95 200.751 89.5561L211.433 102.602H208.206L199.388 91.9652C198.569 90.9803 197.827 90.0864 197.16 89.2834C196.494 88.4803 195.963 87.6887 195.569 86.9084C195.175 86.1281 194.979 85.2834 194.979 84.3743C194.979 83.3288 195.21 82.4122 195.672 81.6243C196.141 80.8288 196.797 80.2114 197.638 79.772C198.486 79.325 199.479 79.1016 200.615 79.1016C201.782 79.1016 202.785 79.3288 203.626 79.7834C204.467 80.2303 205.115 80.825 205.569 81.5675C206.024 82.3023 206.251 83.1016 206.251 83.9652C206.251 85.0788 205.975 86.0447 205.422 86.8629C204.869 87.6811 204.115 88.4425 203.16 89.147L198.524 92.6016C197.479 93.3743 196.77 94.1243 196.399 94.8516C196.028 95.5788 195.842 96.1016 195.842 96.4197C195.842 97.147 196.032 97.825 196.41 98.4538C196.789 99.0826 197.323 99.5902 198.013 99.9766C198.702 100.363 199.509 100.556 200.433 100.556C201.312 100.556 202.168 100.371 203.001 99.9993C203.835 99.6205 204.588 99.075 205.263 98.3629C205.944 97.6508 206.482 96.7947 206.876 95.7947C207.278 94.7947 207.479 93.6697 207.479 92.4197H210.069C210.069 93.9652 209.891 95.2266 209.535 96.2038C209.179 97.1811 208.778 97.9463 208.331 98.4993C207.884 99.0523 207.524 99.4652 207.251 99.7379C207.16 99.8516 207.077 99.9652 207.001 100.079C206.925 100.192 206.842 100.306 206.751 100.42C206.001 101.261 205.054 101.889 203.91 102.306C202.766 102.715 201.638 102.92 200.524 102.92ZM242.493 86.6016H239.675C239.508 85.791 239.216 85.0788 238.8 84.4652C238.39 83.8516 237.89 83.3364 237.3 82.9197C236.716 82.4955 236.068 82.1773 235.356 81.9652C234.644 81.7531 233.902 81.647 233.129 81.647C231.72 81.647 230.443 82.0031 229.3 82.7152C228.163 83.4273 227.258 84.4766 226.584 85.8629C225.917 87.2493 225.584 88.95 225.584 90.9652C225.584 92.9803 225.917 94.6811 226.584 96.0675C227.258 97.4538 228.163 98.5031 229.3 99.2152C230.443 99.9273 231.72 100.283 233.129 100.283C233.902 100.283 234.644 100.177 235.356 99.9652C236.068 99.7531 236.716 99.4387 237.3 99.022C237.89 98.5978 238.39 98.0788 238.8 97.4652C239.216 96.844 239.508 96.1319 239.675 95.3288H242.493C242.281 96.5182 241.894 97.5826 241.334 98.522C240.773 99.4614 240.076 100.261 239.243 100.92C238.409 101.571 237.474 102.067 236.436 102.408C235.406 102.749 234.303 102.92 233.129 102.92C231.144 102.92 229.379 102.435 227.834 101.465C226.288 100.496 225.072 99.1167 224.186 97.3288C223.3 95.541 222.856 93.4197 222.856 90.9652C222.856 88.5107 223.3 86.3894 224.186 84.6016C225.072 82.8137 226.288 81.4349 227.834 80.4652C229.379 79.4955 231.144 79.0107 233.129 79.0107C234.303 79.0107 235.406 79.1811 236.436 79.522C237.474 79.8629 238.409 80.3629 239.243 81.022C240.076 81.6735 240.773 82.469 241.334 83.4084C241.894 84.3402 242.281 85.4046 242.493 86.6016ZM247.047 102.602V79.3288H261.092V81.8288H249.865V89.6925H260.365V92.1925H249.865V100.102H261.274V102.602H247.047ZM285.808 90.9652C285.808 93.4197 285.365 95.541 284.479 97.3288C283.592 99.1167 282.376 100.496 280.831 101.465C279.285 102.435 277.52 102.92 275.535 102.92C273.55 102.92 271.785 102.435 270.24 101.465C268.694 100.496 267.479 99.1167 266.592 97.3288C265.706 95.541 265.263 93.4197 265.263 90.9652C265.263 88.5107 265.706 86.3894 266.592 84.6016C267.479 82.8137 268.694 81.4349 270.24 80.4652C271.785 79.4955 273.55 79.0107 275.535 79.0107C277.52 79.0107 279.285 79.4955 280.831 80.4652C282.376 81.4349 283.592 82.8137 284.479 84.6016C285.365 86.3894 285.808 88.5107 285.808 90.9652ZM283.081 90.9652C283.081 88.95 282.744 87.2493 282.069 85.8629C281.403 84.4766 280.497 83.4273 279.354 82.7152C278.217 82.0031 276.944 81.647 275.535 81.647C274.126 81.647 272.85 82.0031 271.706 82.7152C270.569 83.4273 269.664 84.4766 268.99 85.8629C268.323 87.2493 267.99 88.95 267.99 90.9652C267.99 92.9803 268.323 94.6811 268.99 96.0675C269.664 97.4538 270.569 98.5031 271.706 99.2152C272.85 99.9273 274.126 100.283 275.535 100.283C276.944 100.283 278.217 99.9273 279.354 99.2152C280.497 98.5031 281.403 97.4538 282.069 96.0675C282.744 94.6811 283.081 92.9803 283.081 90.9652ZM292.714 99.4197L292.532 100.647C292.404 101.511 292.207 102.435 291.942 103.42C291.684 104.405 291.415 105.333 291.135 106.204C290.854 107.075 290.623 107.768 290.442 108.283H288.396C288.495 107.799 288.623 107.158 288.782 106.363C288.942 105.567 289.101 104.677 289.26 103.692C289.426 102.715 289.563 101.715 289.669 100.692L289.805 99.4197H292.714ZM307.047 102.602V79.3288H315.183C316.804 79.3288 318.141 79.6091 319.194 80.1697C320.247 80.7228 321.032 81.469 321.547 82.4084C322.062 83.3402 322.319 84.3743 322.319 85.5107C322.319 86.5107 322.141 87.3364 321.785 87.9879C321.437 88.6394 320.975 89.1546 320.399 89.5334C319.831 89.9122 319.213 90.1925 318.547 90.3743V90.6016C319.259 90.647 319.975 90.897 320.694 91.3516C321.414 91.8061 322.016 92.4576 322.501 93.3061C322.986 94.1546 323.229 95.1925 323.229 96.4197C323.229 97.5864 322.963 98.6357 322.433 99.5675C321.903 100.499 321.066 101.238 319.922 101.783C318.778 102.329 317.289 102.602 315.456 102.602H307.047ZM309.865 100.102H315.456C317.297 100.102 318.604 99.7455 319.376 99.0334C320.157 98.3137 320.547 97.4425 320.547 96.4197C320.547 95.6319 320.346 94.9046 319.944 94.2379C319.543 93.5637 318.971 93.0258 318.229 92.6243C317.486 92.2152 316.607 92.0107 315.592 92.0107H309.865V100.102ZM309.865 89.5561H315.092C315.941 89.5561 316.706 89.3894 317.388 89.0561C318.077 88.7228 318.622 88.2531 319.024 87.647C319.433 87.041 319.638 86.3288 319.638 85.5107C319.638 84.4879 319.282 83.6205 318.569 82.9084C317.857 82.1887 316.729 81.8288 315.183 81.8288H309.865V89.5561ZM332.632 103.011C331.526 103.011 330.522 102.802 329.621 102.386C328.719 101.961 328.003 101.352 327.473 100.556C326.943 99.7531 326.677 98.7834 326.677 97.647C326.677 96.647 326.874 95.8364 327.268 95.2152C327.662 94.5864 328.189 94.094 328.848 93.7379C329.507 93.3819 330.234 93.1167 331.03 92.9425C331.833 92.7607 332.64 92.6167 333.45 92.5107C334.511 92.3743 335.371 92.272 336.03 92.2038C336.696 92.1281 337.181 92.0031 337.484 91.8288C337.795 91.6546 337.95 91.3516 337.95 90.9197V90.8288C337.95 89.7076 337.643 88.8364 337.03 88.2152C336.424 87.594 335.503 87.2834 334.268 87.2834C332.988 87.2834 331.984 87.5637 331.257 88.1243C330.53 88.6849 330.018 89.2834 329.723 89.9197L327.177 89.0107C327.632 87.95 328.238 87.1243 328.996 86.5334C329.761 85.9349 330.594 85.5182 331.496 85.2834C332.405 85.041 333.299 84.9197 334.177 84.9197C334.738 84.9197 335.382 84.9879 336.109 85.1243C336.844 85.2531 337.552 85.522 338.234 85.9311C338.924 86.3402 339.496 86.9576 339.95 87.7834C340.405 88.6091 340.632 89.7152 340.632 91.1016V102.602H337.95V100.238H337.814C337.632 100.617 337.329 101.022 336.905 101.454C336.48 101.886 335.916 102.253 335.211 102.556C334.507 102.859 333.647 103.011 332.632 103.011ZM333.041 100.602C334.102 100.602 334.996 100.393 335.723 99.9766C336.458 99.5599 337.011 99.022 337.382 98.3629C337.761 97.7038 337.95 97.0107 337.95 96.2834V93.8288C337.836 93.9652 337.586 94.0902 337.2 94.2038C336.821 94.3099 336.382 94.4046 335.882 94.4879C335.39 94.5637 334.908 94.6319 334.439 94.6925C333.977 94.7455 333.602 94.791 333.314 94.8288C332.617 94.9197 331.965 95.0675 331.359 95.272C330.761 95.469 330.276 95.7682 329.905 96.1697C329.541 96.5637 329.359 97.1016 329.359 97.7834C329.359 98.7152 329.704 99.4197 330.393 99.897C331.09 100.367 331.973 100.602 333.041 100.602ZM345.89 102.602V79.3288H359.845V81.8288H348.709V89.6925H358.8V92.1925H348.709V102.602H345.89ZM363.399 81.8288V79.3288H380.854V81.8288H373.535V102.602H370.717V81.8288H363.399ZM392.93 81.8288V79.3288H410.385V81.8288H403.067V102.602H400.248V81.8288H392.93ZM419.157 102.965C417.476 102.965 416.025 102.594 414.805 101.852C413.593 101.102 412.657 100.056 411.998 98.7152C411.347 97.3667 411.021 95.7985 411.021 94.0107C411.021 92.2228 411.347 90.647 411.998 89.2834C412.657 87.9122 413.574 86.844 414.748 86.0788C415.93 85.3061 417.309 84.9197 418.885 84.9197C419.794 84.9197 420.692 85.0713 421.578 85.3743C422.464 85.6773 423.271 86.1697 423.998 86.8516C424.726 87.5258 425.305 88.4197 425.737 89.5334C426.169 90.647 426.385 92.0182 426.385 93.647V94.7834H412.93V92.4652H423.657C423.657 91.4803 423.461 90.6016 423.067 89.8288C422.68 89.0561 422.127 88.4463 421.407 87.9993C420.695 87.5523 419.854 87.3288 418.885 87.3288C417.817 87.3288 416.892 87.594 416.112 88.1243C415.339 88.647 414.745 89.3288 414.328 90.1697C413.911 91.0107 413.703 91.9122 413.703 92.8743V94.4197C413.703 95.7379 413.93 96.8554 414.385 97.772C414.847 98.6811 415.487 99.3743 416.305 99.8516C417.123 100.321 418.074 100.556 419.157 100.556C419.862 100.556 420.498 100.458 421.067 100.261C421.642 100.056 422.139 99.7531 422.555 99.3516C422.972 98.9425 423.294 98.4349 423.521 97.8288L426.112 98.5561C425.839 99.4349 425.381 100.208 424.737 100.874C424.093 101.533 423.298 102.049 422.351 102.42C421.404 102.783 420.339 102.965 419.157 102.965ZM437.555 102.965C435.919 102.965 434.51 102.579 433.328 101.806C432.146 101.033 431.237 99.969 430.601 98.6129C429.964 97.2569 429.646 95.7076 429.646 93.9652C429.646 92.1925 429.972 90.6281 430.623 89.272C431.282 87.9084 432.199 86.844 433.373 86.0788C434.555 85.3061 435.934 84.9197 437.51 84.9197C438.737 84.9197 439.843 85.147 440.828 85.6016C441.813 86.0561 442.62 86.6925 443.248 87.5107C443.877 88.3288 444.267 89.2834 444.419 90.3743H441.737C441.532 89.5788 441.078 88.8743 440.373 88.2607C439.676 87.6394 438.737 87.3288 437.555 87.3288C436.51 87.3288 435.593 87.6016 434.805 88.147C434.025 88.6849 433.415 89.4463 432.976 90.4311C432.544 91.4084 432.328 92.5561 432.328 93.8743C432.328 95.2228 432.54 96.397 432.964 97.397C433.396 98.397 434.002 99.1735 434.782 99.7266C435.57 100.28 436.495 100.556 437.555 100.556C438.252 100.556 438.885 100.435 439.453 100.192C440.021 99.95 440.502 99.6016 440.896 99.147C441.29 98.6925 441.57 98.147 441.737 97.5107H444.419C444.267 98.541 443.892 99.469 443.294 100.295C442.703 101.113 441.919 101.764 440.942 102.249C439.972 102.727 438.843 102.965 437.555 102.965ZM451.021 92.1016V102.602H448.339V79.3288H451.021V87.8743H451.248C451.657 86.9728 452.271 86.2569 453.089 85.7266C453.915 85.1887 455.014 84.9197 456.385 84.9197C457.574 84.9197 458.616 85.1584 459.51 85.6357C460.404 86.1053 461.097 86.8288 461.589 87.8061C462.089 88.7758 462.339 90.0107 462.339 91.5107V102.602H459.657V91.6925C459.657 90.3061 459.298 89.2341 458.578 88.4766C457.866 87.7114 456.877 87.3288 455.612 87.3288C454.733 87.3288 453.945 87.5144 453.248 87.8857C452.559 88.2569 452.014 88.7985 451.612 89.5107C451.218 90.2228 451.021 91.0864 451.021 92.1016ZM469.927 92.1016V102.602H467.246V85.147H469.836V87.8743H470.064C470.473 86.9879 471.094 86.2758 471.927 85.7379C472.761 85.1925 473.836 84.9197 475.155 84.9197C476.336 84.9197 477.371 85.1622 478.257 85.647C479.143 86.1243 479.833 86.8516 480.325 87.8288C480.818 88.7985 481.064 90.0258 481.064 91.5107V102.602H478.382V91.6925C478.382 90.3213 478.026 89.2531 477.314 88.4879C476.602 87.7152 475.624 87.3288 474.382 87.3288C473.526 87.3288 472.761 87.5144 472.086 87.8857C471.42 88.2569 470.893 88.7985 470.507 89.5107C470.121 90.2228 469.927 91.0864 469.927 92.1016ZM493.055 102.965C491.479 102.965 490.097 102.59 488.907 101.84C487.726 101.09 486.801 100.041 486.135 98.6925C485.476 97.344 485.146 95.7682 485.146 93.9652C485.146 92.147 485.476 90.5599 486.135 89.2038C486.801 87.8478 487.726 86.7947 488.907 86.0447C490.097 85.2947 491.479 84.9197 493.055 84.9197C494.631 84.9197 496.01 85.2947 497.192 86.0447C498.381 86.7947 499.305 87.8478 499.964 89.2038C500.631 90.5599 500.964 92.147 500.964 93.9652C500.964 95.7682 500.631 97.344 499.964 98.6925C499.305 100.041 498.381 101.09 497.192 101.84C496.01 102.59 494.631 102.965 493.055 102.965ZM493.055 100.556C494.252 100.556 495.237 100.249 496.01 99.6357C496.782 99.022 497.354 98.2152 497.726 97.2152C498.097 96.2152 498.282 95.1319 498.282 93.9652C498.282 92.7985 498.097 91.7114 497.726 90.7038C497.354 89.6963 496.782 88.8819 496.01 88.2607C495.237 87.6394 494.252 87.3288 493.055 87.3288C491.858 87.3288 490.873 87.6394 490.101 88.2607C489.328 88.8819 488.756 89.6963 488.385 90.7038C488.014 91.7114 487.828 92.7985 487.828 93.9652C487.828 95.1319 488.014 96.2152 488.385 97.2152C488.756 98.2152 489.328 99.022 490.101 99.6357C490.873 100.249 491.858 100.556 493.055 100.556ZM507.74 79.3288V102.602H505.058V79.3288H507.74ZM519.743 102.965C518.167 102.965 516.784 102.59 515.595 101.84C514.413 101.09 513.489 100.041 512.822 98.6925C512.163 97.344 511.834 95.7682 511.834 93.9652C511.834 92.147 512.163 90.5599 512.822 89.2038C513.489 87.8478 514.413 86.7947 515.595 86.0447C516.784 85.2947 518.167 84.9197 519.743 84.9197C521.318 84.9197 522.697 85.2947 523.879 86.0447C525.068 86.7947 525.993 87.8478 526.652 89.2038C527.318 90.5599 527.652 92.147 527.652 93.9652C527.652 95.7682 527.318 97.344 526.652 98.6925C525.993 100.041 525.068 101.09 523.879 101.84C522.697 102.59 521.318 102.965 519.743 102.965ZM519.743 100.556C520.94 100.556 521.925 100.249 522.697 99.6357C523.47 99.022 524.042 98.2152 524.413 97.2152C524.784 96.2152 524.97 95.1319 524.97 93.9652C524.97 92.7985 524.784 91.7114 524.413 90.7038C524.042 89.6963 523.47 88.8819 522.697 88.2607C521.925 87.6394 520.94 87.3288 519.743 87.3288C518.546 87.3288 517.561 87.6394 516.788 88.2607C516.015 88.8819 515.443 89.6963 515.072 90.7038C514.701 91.7114 514.515 92.7985 514.515 93.9652C514.515 95.1319 514.701 96.2152 515.072 97.2152C515.443 98.2152 516.015 99.022 516.788 99.6357C517.561 100.249 518.546 100.556 519.743 100.556ZM538.791 109.511C537.496 109.511 536.382 109.344 535.45 109.011C534.518 108.685 533.742 108.253 533.121 107.715C532.507 107.185 532.018 106.617 531.655 106.011L533.791 104.511C534.033 104.829 534.34 105.192 534.711 105.602C535.083 106.018 535.59 106.378 536.234 106.681C536.886 106.992 537.738 107.147 538.791 107.147C540.2 107.147 541.363 106.806 542.28 106.124C543.196 105.442 543.655 104.374 543.655 102.92V99.3743H543.427C543.23 99.6925 542.95 100.086 542.586 100.556C542.23 101.018 541.715 101.431 541.041 101.795C540.374 102.151 539.473 102.329 538.336 102.329C536.927 102.329 535.662 101.996 534.541 101.329C533.427 100.662 532.545 99.6925 531.893 98.4197C531.249 97.147 530.927 95.6016 530.927 93.7834C530.927 91.9955 531.242 90.4387 531.871 89.1129C532.499 87.7796 533.374 86.7493 534.496 86.022C535.617 85.2872 536.912 84.9197 538.382 84.9197C539.518 84.9197 540.42 85.1091 541.086 85.4879C541.761 85.8591 542.276 86.2834 542.632 86.7607C542.996 87.2303 543.276 87.6167 543.473 87.9197H543.746V85.147H546.336V103.102C546.336 104.602 545.996 105.821 545.314 106.761C544.64 107.708 543.73 108.401 542.586 108.84C541.45 109.287 540.185 109.511 538.791 109.511ZM538.7 99.9197C539.776 99.9197 540.685 99.6735 541.427 99.1811C542.17 98.6887 542.734 97.9804 543.121 97.0561C543.507 96.1319 543.7 95.0258 543.7 93.7379C543.7 92.4804 543.511 91.3705 543.132 90.4084C542.753 89.4463 542.193 88.6925 541.45 88.147C540.708 87.6016 539.791 87.3288 538.7 87.3288C537.564 87.3288 536.617 87.6167 535.859 88.1925C535.109 88.7682 534.545 89.541 534.166 90.5107C533.795 91.4804 533.609 92.5561 533.609 93.7379C533.609 94.95 533.799 96.022 534.177 96.9538C534.564 97.8781 535.132 98.6054 535.882 99.1357C536.64 99.6584 537.579 99.9197 538.7 99.9197ZM551.246 102.602V85.147H553.927V102.602H551.246ZM552.609 82.2379C552.086 82.2379 551.636 82.0599 551.257 81.7038C550.886 81.3478 550.7 80.9197 550.7 80.4197C550.7 79.9197 550.886 79.4917 551.257 79.1357C551.636 78.7796 552.086 78.6016 552.609 78.6016C553.132 78.6016 553.579 78.7796 553.95 79.1357C554.329 79.4917 554.518 79.9197 554.518 80.4197C554.518 80.9197 554.329 81.3478 553.95 81.7038C553.579 82.0599 553.132 82.2379 552.609 82.2379ZM566.157 102.965C564.476 102.965 563.025 102.594 561.805 101.852C560.593 101.102 559.657 100.056 558.998 98.7152C558.347 97.3667 558.021 95.7985 558.021 94.0107C558.021 92.2228 558.347 90.647 558.998 89.2834C559.657 87.9122 560.574 86.844 561.748 86.0788C562.93 85.3061 564.309 84.9197 565.885 84.9197C566.794 84.9197 567.692 85.0713 568.578 85.3743C569.464 85.6773 570.271 86.1697 570.998 86.8516C571.726 87.5258 572.305 88.4197 572.737 89.5334C573.169 90.647 573.385 92.0182 573.385 93.647V94.7834H559.93V92.4652H570.657C570.657 91.4803 570.461 90.6016 570.067 89.8288C569.68 89.0561 569.127 88.4463 568.407 87.9993C567.695 87.5523 566.854 87.3288 565.885 87.3288C564.817 87.3288 563.892 87.594 563.112 88.1243C562.339 88.647 561.745 89.3288 561.328 90.1697C560.911 91.0107 560.703 91.9122 560.703 92.8743V94.4197C560.703 95.7379 560.93 96.8554 561.385 97.772C561.847 98.6811 562.487 99.3743 563.305 99.8516C564.123 100.321 565.074 100.556 566.157 100.556C566.862 100.556 567.498 100.458 568.067 100.261C568.642 100.056 569.139 99.7531 569.555 99.3516C569.972 98.9425 570.294 98.4349 570.521 97.8288L573.112 98.5561C572.839 99.4349 572.381 100.208 571.737 100.874C571.093 101.533 570.298 102.049 569.351 102.42C568.404 102.783 567.339 102.965 566.157 102.965ZM589.828 89.0561L587.419 89.7379C587.267 89.3364 587.044 88.9463 586.748 88.5675C586.461 88.1811 586.067 87.8629 585.567 87.6129C585.067 87.3629 584.426 87.2379 583.646 87.2379C582.578 87.2379 581.688 87.4841 580.976 87.9766C580.271 88.4614 579.919 89.0788 579.919 89.8288C579.919 90.4955 580.161 91.022 580.646 91.4084C581.131 91.7947 581.889 92.1167 582.919 92.3743L585.51 93.0107C587.07 93.3894 588.233 93.969 588.998 94.7493C589.764 95.522 590.146 96.5182 590.146 97.7379C590.146 98.7379 589.858 99.6319 589.282 100.42C588.714 101.208 587.919 101.829 586.896 102.283C585.873 102.738 584.684 102.965 583.328 102.965C581.548 102.965 580.074 102.579 578.907 101.806C577.741 101.033 577.002 99.9046 576.692 98.4197L579.237 97.7834C579.479 98.7228 579.938 99.4273 580.612 99.897C581.294 100.367 582.184 100.602 583.282 100.602C584.532 100.602 585.525 100.336 586.26 99.8061C587.002 99.2682 587.373 98.6243 587.373 97.8743C587.373 97.2682 587.161 96.7607 586.737 96.3516C586.313 95.9349 585.661 95.6243 584.782 95.4197L581.873 94.7379C580.275 94.3591 579.101 93.772 578.351 92.9766C577.608 92.1735 577.237 91.1697 577.237 89.9652C577.237 88.9803 577.514 88.1091 578.067 87.3516C578.627 86.594 579.389 85.9993 580.351 85.5675C581.32 85.1357 582.419 84.9197 583.646 84.9197C585.373 84.9197 586.729 85.2985 587.714 86.0561C588.707 86.8137 589.411 87.8137 589.828 89.0561Z" fill="white"/>
</svg>
