<svg width="35" height="32" viewBox="0 0 35 32" fill="none" xmlns="http://www.w3.org/2000/svg">
<path d="M30.6869 7.99219H28.6316C28.8809 7.23855 29.0008 6.45426 28.9869 5.66719C28.9869 2.67569 26.3179 0.242188 23.0369 0.242188C20.2795 0.242188 18.4384 2.53929 17.2501 5.02394C16.0788 2.67569 14.1442 0.242188 11.1369 0.242188C7.85591 0.242188 5.18691 2.67569 5.18691 5.66719C5.18691 6.59099 5.32121 7.35514 5.54221 7.99219H3.48691C1.61181 7.99219 0.0869141 9.38254 0.0869141 11.0922V14.1922C0.0869141 15.9018 1.61181 17.2922 3.48691 17.2922V28.1422C3.48691 29.8518 5.01181 31.2422 6.88691 31.2422H27.2869C29.162 31.2422 30.6869 29.8518 30.6869 28.1422V17.2922C32.562 17.2922 34.0869 15.9018 34.0869 14.1922V11.0922C34.0869 9.38254 32.562 7.99219 30.6869 7.99219ZM23.0369 3.34219C24.4428 3.34219 25.5869 4.38534 25.5869 5.66719C25.5869 7.99219 24.5227 7.99219 23.8869 7.99219H19.6743C20.543 5.54939 21.8044 3.34219 23.0369 3.34219ZM8.58691 5.66719C8.58691 4.38534 9.73101 3.34219 11.1369 3.34219C12.6465 3.34219 14.0507 5.70594 14.8735 7.99219H10.2869C9.65111 7.99219 8.58691 7.99219 8.58691 5.66719ZM3.48691 11.0922H15.3869V14.1922H3.48691V11.0922ZM6.88691 28.1422V17.2922H15.3869V28.1422H6.88691ZM27.2869 28.1422H18.7869V17.2922H27.2869V28.1422ZM18.7869 14.1922V11.2239L18.8158 11.0922H30.6869L30.6886 14.1922H18.7869Z" fill="#1966BB"/>
</svg>
