<svg width="594" height="110" viewBox="0 0 594 110" fill="none" xmlns="http://www.w3.org/2000/svg">
<path d="M152.736 43.9997C152.227 43.9997 151.835 43.6861 151.56 43.0588C151.286 42.4708 150.933 41.6867 150.502 40.7066C150.11 39.7265 149.776 38.8053 149.502 37.9428L137.917 10.6574C137.525 9.71655 136.996 8.89329 136.33 8.18763C135.703 7.44277 134.82 6.93313 133.684 6.65871C133.292 6.5019 132.958 6.34508 132.684 6.18827C132.409 6.03146 132.272 5.75704 132.272 5.365C132.272 5.09058 132.39 4.89457 132.625 4.77696C132.899 4.62015 133.194 4.54174 133.507 4.54174C134.291 4.54174 135.193 4.56134 136.212 4.60054C137.271 4.63975 138.329 4.67895 139.388 4.71815C140.446 4.75736 141.348 4.77696 142.093 4.77696C142.877 4.77696 143.837 4.75736 144.974 4.71815C146.111 4.63975 147.248 4.60054 148.385 4.60054C149.522 4.56134 150.482 4.54174 151.266 4.54174C151.619 4.54174 151.972 4.62015 152.325 4.77696C152.677 4.89457 152.854 5.09058 152.854 5.365C152.854 5.67863 152.677 5.95305 152.325 6.18827C151.972 6.38429 151.58 6.5215 151.149 6.5999C150.012 6.87433 149.169 7.16835 148.62 7.48197C148.071 7.7956 147.797 8.28564 147.797 8.95209C147.797 9.22651 147.836 9.52054 147.914 9.83416C147.993 10.1086 148.052 10.3634 148.091 10.5986L155.677 31.8859C155.755 32.1211 155.833 32.2583 155.912 32.2975C156.029 32.3368 156.147 32.1799 156.265 31.8271L163.145 13.7741C163.929 11.7747 164.086 10.1478 163.615 8.89329C163.145 7.63879 162.047 6.89393 160.322 6.65871C159.891 6.5803 159.479 6.44309 159.087 6.24708C158.695 6.01186 158.499 5.71783 158.499 5.365C158.499 5.09058 158.676 4.89457 159.028 4.77696C159.42 4.65935 159.812 4.60054 160.204 4.60054C161.028 4.60054 161.714 4.62015 162.263 4.65935C162.811 4.65935 163.341 4.67895 163.85 4.71815C164.399 4.71815 165.066 4.71815 165.85 4.71815C166.987 4.71815 168.065 4.67895 169.084 4.60054C170.103 4.48294 171.181 4.42413 172.318 4.42413C172.749 4.42413 173.141 4.48294 173.494 4.60054C173.886 4.71815 174.082 4.97297 174.082 5.365C174.082 5.71783 173.906 5.97265 173.553 6.12947C173.24 6.24708 172.887 6.38429 172.495 6.5411C171.24 6.85472 170.221 7.46237 169.437 8.36404C168.692 9.22651 167.967 10.5202 167.261 12.2452L158.323 33.6501C157.695 35.1006 157.127 36.3747 156.617 37.4724C156.147 38.57 155.716 39.5697 155.324 40.4714C154.932 41.3731 154.52 42.2355 154.089 43.0588C153.971 43.4116 153.814 43.6469 153.618 43.7645C153.422 43.9213 153.128 43.9997 152.736 43.9997ZM174.359 43.1764C174.124 43.1764 173.909 43.1176 173.713 43C173.517 42.8432 173.419 42.6472 173.419 42.412C173.419 42.0983 173.517 41.8435 173.713 41.6475C173.909 41.4515 174.163 41.3143 174.477 41.2359C175.496 41.0006 176.202 40.7458 176.594 40.4714C177.025 40.1578 177.241 39.6873 177.241 39.0601V26.3583C177.241 25.0254 177.025 24.0845 176.594 23.5357C176.202 22.9476 175.575 22.5948 174.712 22.4772C174.477 22.438 174.301 22.3204 174.183 22.1243C174.065 21.9283 174.007 21.6931 174.007 21.4187C174.007 20.8306 174.222 20.4974 174.653 20.419C176.692 20.027 178.495 19.4781 180.063 18.7725C181.671 18.0668 182.906 17.518 183.768 17.1259C184.395 16.8123 184.787 16.6555 184.944 16.6555C185.454 16.6555 185.709 16.8907 185.709 17.3612C185.669 18.0276 185.571 18.8705 185.415 19.8898C185.297 20.8698 185.179 21.8891 185.062 22.9476C184.983 24.0061 184.944 25.0254 184.944 26.0054V39.0013C184.944 39.5501 185.14 39.9814 185.532 40.295C185.964 40.6086 186.708 40.9222 187.767 41.2359C188.08 41.3535 188.335 41.4907 188.531 41.6475C188.727 41.8043 188.825 42.0395 188.825 42.3531C188.825 42.8628 188.531 43.1176 187.943 43.1176C187.198 43.1176 186.414 43.098 185.591 43.0588C184.768 43.0196 183.964 42.9804 183.18 42.9412C182.435 42.902 181.71 42.8824 181.004 42.8824C180.338 42.8824 179.632 42.902 178.887 42.9412C178.182 42.9804 177.437 43.0196 176.653 43.0588C175.908 43.1372 175.143 43.1764 174.359 43.1764ZM180.828 14.0093C179.613 14.0093 178.535 13.5585 177.594 12.6568C176.692 11.7551 176.241 10.677 176.241 9.42253C176.241 8.08962 176.692 6.97233 177.594 6.07066C178.535 5.16899 179.613 4.71815 180.828 4.71815C182.2 4.71815 183.337 5.16899 184.239 6.07066C185.14 6.97233 185.591 8.08962 185.591 9.42253C185.591 10.677 185.14 11.7551 184.239 12.6568C183.337 13.5585 182.2 14.0093 180.828 14.0093ZM205.698 43.8233C204.561 43.8233 203.502 43.7253 202.522 43.5292C201.581 43.3332 200.719 43.1372 199.935 42.9412C199.347 42.7452 198.798 42.5884 198.288 42.4708C197.818 42.3531 197.426 42.2943 197.112 42.2943C196.72 42.2943 196.348 42.3728 195.995 42.5296C195.642 42.6472 195.309 42.8236 194.995 43.0588C194.642 43.3332 194.368 43.4704 194.172 43.4704C193.819 43.4704 193.545 43.392 193.349 43.2352C193.192 43.0784 193.113 42.902 193.113 42.706C193.113 42.3531 193.212 41.6671 193.408 40.6478C193.643 39.6285 193.741 38.3544 193.702 36.8255L193.466 10.6574C193.466 9.63815 193.31 8.73647 192.996 7.95241C192.721 7.12915 192.114 6.6195 191.173 6.42349C190.977 6.38429 190.801 6.28628 190.644 6.12947C190.526 5.97265 190.467 5.75704 190.467 5.48262C190.467 5.2866 190.526 5.11019 190.644 4.95337C190.761 4.79656 190.918 4.69855 191.114 4.65935C191.977 4.50254 192.976 4.24772 194.113 3.89489C195.25 3.50286 196.348 3.11083 197.406 2.71879C198.504 2.28756 199.347 1.97394 199.935 1.77792C200.327 1.62111 200.601 1.5427 200.758 1.5427C200.993 1.5427 201.15 1.62111 201.229 1.77792C201.346 1.89553 201.405 2.05234 201.405 2.24836C201.405 2.48358 201.346 2.97361 201.229 3.71847C201.15 4.46333 201.111 5.20819 201.111 5.95305V18.5373C201.111 19.0469 201.15 19.4585 201.229 19.7722C201.307 20.0466 201.444 20.1838 201.64 20.1838C202.855 19.3605 204.11 18.7333 205.404 18.302C206.737 17.8316 207.991 17.5964 209.167 17.5964C211.206 17.5964 213.048 18.1256 214.695 19.1841C216.341 20.2426 217.635 21.6931 218.576 23.5357C219.556 25.3782 220.046 27.456 220.046 29.7689C220.046 32.5132 219.438 34.9634 218.223 37.1195C217.008 39.2365 215.322 40.883 213.166 42.0591C211.049 43.2352 208.56 43.8233 205.698 43.8233ZM206.756 41.3535C207.815 41.3535 208.716 40.9026 209.461 40.001C210.206 39.0601 210.774 37.8252 211.167 36.2963C211.598 34.7673 211.813 33.1012 211.813 31.2979C211.813 29.7297 211.598 28.142 211.167 26.5347C210.774 24.9274 210.128 23.5945 209.226 22.536C208.364 21.4383 207.246 20.8894 205.874 20.8894C205.168 20.8894 204.345 21.0071 203.404 21.2423C202.463 21.4383 201.699 21.7715 201.111 22.2419V34.7673C201.111 36.0218 201.366 37.1587 201.875 38.178C202.424 39.1973 203.13 39.9814 203.992 40.5302C204.855 41.079 205.776 41.3535 206.756 41.3535ZM222.712 43.1764C221.928 43.1764 221.536 42.902 221.536 42.3531C221.536 41.8435 221.987 41.4515 222.889 41.1771C223.477 40.981 223.987 40.7654 224.418 40.5302C224.849 40.295 225.084 39.7461 225.123 38.8837V10.6574C225.123 9.59894 224.986 8.67767 224.712 7.89361C224.437 7.10954 223.81 6.6195 222.83 6.42349C222.399 6.34508 222.183 6.05106 222.183 5.54142C222.183 5.03178 222.379 4.73776 222.771 4.65935C223.673 4.46334 224.692 4.18891 225.829 3.83609C227.005 3.44405 228.142 3.05202 229.24 2.65999C230.337 2.22876 231.18 1.91513 231.768 1.71912C232.082 1.60151 232.337 1.5427 232.533 1.5427C232.768 1.5427 232.925 1.62111 233.003 1.77792C233.082 1.89553 233.121 2.05234 233.121 2.24836C233.121 2.44437 233.082 2.7384 233.003 3.13043C232.964 3.48326 232.925 3.93409 232.886 4.48294C232.846 4.99258 232.807 5.60023 232.768 6.30588V19.8898C232.768 20.2818 232.788 20.6346 232.827 20.9482C232.866 21.2619 232.964 21.4775 233.121 21.5951C233.709 21.0855 234.415 20.5366 235.238 19.9486C236.061 19.3213 237.002 18.7725 238.06 18.302C239.158 17.8316 240.373 17.5964 241.706 17.5964C243.784 17.5964 245.529 18.3412 246.94 19.831C248.351 21.2815 249.057 23.32 249.057 25.9466V38.7661C249.057 39.5893 249.273 40.1578 249.704 40.4714C250.135 40.7458 250.625 40.981 251.174 41.1771C251.605 41.2947 251.919 41.4515 252.115 41.6475C252.35 41.8043 252.468 42.0395 252.468 42.3531C252.468 42.902 252.036 43.1764 251.174 43.1764C250.233 43.1764 249.469 43.1372 248.881 43.0588C248.292 43.0196 247.724 42.9804 247.175 42.9412C246.666 42.902 245.999 42.8824 245.176 42.8824C244.313 42.8824 243.647 42.902 243.176 42.9412C242.706 42.9804 242.216 43.0196 241.706 43.0588C241.197 43.1372 240.471 43.1764 239.531 43.1764C238.551 43.1764 238.06 42.8824 238.06 42.2943C238.06 41.9807 238.178 41.7455 238.413 41.5887C238.688 41.3927 238.982 41.2555 239.295 41.1771C239.805 40.981 240.275 40.7262 240.707 40.4126C241.138 40.099 241.354 39.5109 241.354 38.6485V27.0639C241.354 26.2015 241.177 25.437 240.824 24.7706C240.471 24.0649 240.001 23.516 239.413 23.124C238.864 22.6928 238.256 22.4772 237.59 22.4772C237.002 22.4772 236.355 22.5752 235.649 22.7712C234.944 22.9672 234.258 23.3004 233.591 23.7709C233.278 24.0061 233.062 24.2805 232.944 24.5941C232.866 24.8686 232.827 25.2998 232.827 25.8878V38.7661C232.827 39.5501 233.023 40.099 233.415 40.4126C233.807 40.687 234.258 40.9222 234.767 41.1183C235.12 41.2359 235.414 41.3927 235.649 41.5887C235.885 41.7455 236.002 41.9807 236.002 42.2943C236.002 42.8824 235.649 43.1764 234.944 43.1764C234.16 43.1764 233.415 43.1372 232.709 43.0588C232.043 43.0196 231.396 42.9804 230.769 42.9412C230.181 42.902 229.534 42.8824 228.828 42.8824C228.162 42.8824 227.495 42.902 226.829 42.9412C226.202 42.9804 225.555 43.0196 224.888 43.0588C224.222 43.1372 223.497 43.1764 222.712 43.1764ZM260.97 43.8233C259.912 43.8233 258.932 43.5684 258.03 43.0588C257.129 42.5492 256.403 41.8827 255.854 41.0594C255.345 40.2362 255.09 39.3345 255.09 38.3544C255.09 37.0215 255.502 35.9042 256.325 35.0026C257.187 34.1009 258.442 33.2972 260.088 32.5916L265.322 30.2982C266.106 29.9454 266.576 29.6317 266.733 29.3573C266.929 29.0829 267.027 28.5733 267.027 27.8284L267.086 24.4765C267.125 23.3788 266.929 22.5164 266.498 21.8891C266.067 21.2227 265.42 20.8894 264.558 20.8894C264.048 20.8894 263.538 21.0071 263.029 21.2423C262.519 21.4383 262.127 21.6735 261.852 21.9479C261.735 22.1047 261.637 22.3008 261.558 22.536C261.519 22.732 261.5 22.9476 261.5 23.1828C261.5 23.418 261.519 23.7121 261.558 24.0649C261.598 24.3785 261.617 24.6529 261.617 24.8882C261.617 25.1234 261.304 25.437 260.676 25.829C260.049 26.1819 259.324 26.5151 258.501 26.8287C257.677 27.1031 256.972 27.2403 256.384 27.2403C256.109 27.2403 255.854 27.1227 255.619 26.8875C255.423 26.6523 255.325 26.3583 255.325 26.0054C255.325 25.3782 255.541 24.7705 255.972 24.1825C256.403 23.5553 257.109 22.8496 258.089 22.0655C259.108 21.2031 260.226 20.4386 261.441 19.7722C262.656 19.1057 263.852 18.5765 265.028 18.1844C266.243 17.7924 267.263 17.5964 268.086 17.5964C270.203 17.5964 271.888 18.2824 273.143 19.6545C274.397 20.9874 274.986 22.7712 274.907 25.0058L274.613 36.8843C274.574 37.786 274.731 38.5504 275.084 39.1777C275.436 39.8049 275.868 40.1186 276.377 40.1186C277.122 40.1186 277.769 39.8638 278.318 39.3541C278.435 39.2365 278.553 39.1777 278.671 39.1777C278.867 39.1777 279.023 39.2365 279.141 39.3541C279.298 39.4717 279.376 39.6285 279.376 39.8245C279.376 40.295 279.023 40.9026 278.318 41.6475C277.573 42.3531 276.789 42.8824 275.966 43.2352C275.142 43.6272 274.28 43.8233 273.378 43.8233C271.183 43.8233 269.36 42.706 267.909 40.4714H267.792C266.498 41.6475 265.322 42.4904 264.263 43C263.244 43.5488 262.147 43.8233 260.97 43.8233ZM264.499 40.001C264.93 40.001 265.283 39.9422 265.557 39.8245C265.832 39.6677 266.106 39.4325 266.38 39.1189C266.498 38.9621 266.596 38.7661 266.674 38.5308C266.753 38.2564 266.792 37.9428 266.792 37.59L266.968 33.356C266.968 32.964 266.91 32.7092 266.792 32.5916C266.674 32.474 266.537 32.4152 266.38 32.4152C266.302 32.4152 266.204 32.4348 266.086 32.474C265.969 32.5132 265.832 32.572 265.675 32.6504C264.538 33.1992 263.695 33.7677 263.146 34.3557C262.597 34.9046 262.323 35.8062 262.323 37.0607C262.323 38.1976 262.558 38.9817 263.029 39.4129C263.499 39.8049 263.989 40.001 264.499 40.001ZM295.417 43.1764C295.143 43.1764 294.868 43.1176 294.594 43C294.359 42.8432 294.241 42.6276 294.241 42.3531C294.241 41.7259 294.653 41.3143 295.476 41.1183C296.848 40.8046 297.769 40.4126 298.24 39.9422C298.749 39.4325 299.004 38.5504 299.004 37.2959V10.5986C299.004 9.30492 298.769 8.40325 298.299 7.89361C297.867 7.38397 296.966 6.95273 295.593 6.5999C294.731 6.40389 294.3 5.99226 294.3 5.365C294.3 5.09058 294.417 4.87497 294.653 4.71815C294.927 4.56134 295.201 4.48294 295.476 4.48294C296.378 4.48294 297.299 4.50254 298.24 4.54174C299.181 4.58094 300.102 4.63975 301.004 4.71815C301.905 4.75736 302.748 4.77696 303.532 4.77696C304.316 4.77696 305.198 4.75736 306.178 4.71815C307.198 4.67895 308.217 4.63975 309.236 4.60054C310.295 4.56134 311.255 4.54174 312.118 4.54174C312.823 4.54174 313.176 4.83576 313.176 5.42381C313.176 5.77664 313.058 6.03146 312.823 6.18827C312.627 6.34508 312.333 6.48229 311.941 6.5999C310.373 7.03114 309.334 7.52118 308.825 8.07002C308.315 8.61886 308.06 9.48133 308.06 10.6574V21.2423C308.06 21.5559 308.138 21.7715 308.295 21.8891C308.491 22.0067 308.727 22.0655 309.001 22.0655H324.525C325.035 22.0655 325.29 21.7911 325.29 21.2423V10.6574C325.29 9.48133 325.035 8.61886 324.525 8.07002C324.055 7.52118 323.036 7.03114 321.468 6.5999C321.036 6.48229 320.703 6.34508 320.468 6.18827C320.272 6.03146 320.174 5.77664 320.174 5.42381C320.174 4.83576 320.546 4.54174 321.291 4.54174C322.154 4.54174 323.114 4.56134 324.173 4.60054C325.231 4.63975 326.27 4.67895 327.289 4.71815C328.309 4.75736 329.21 4.77696 329.994 4.77696C330.739 4.77696 331.543 4.75736 332.405 4.71815C333.307 4.63975 334.209 4.58094 335.11 4.54174C336.051 4.50254 336.972 4.48294 337.874 4.48294C338.188 4.48294 338.462 4.56134 338.697 4.71815C338.933 4.87497 339.05 5.09058 339.05 5.365C339.05 5.99226 338.639 6.40389 337.815 6.5999C336.404 6.95273 335.463 7.40357 334.993 7.95241C334.561 8.46205 334.346 9.34412 334.346 10.5986V37.2371C334.346 38.5308 334.581 39.4325 335.051 39.9422C335.561 40.4126 336.482 40.8046 337.815 41.1183C338.639 41.3143 339.05 41.7259 339.05 42.3531C339.05 42.6276 338.933 42.8432 338.697 43C338.462 43.1176 338.207 43.1764 337.933 43.1764C337.11 43.1764 336.228 43.1372 335.287 43.0588C334.346 43.0196 333.405 42.9804 332.464 42.9412C331.523 42.902 330.661 42.8824 329.877 42.8824C329.093 42.8824 328.191 42.902 327.172 42.9412C326.192 42.9804 325.172 43.0196 324.114 43.0588C323.055 43.1372 322.095 43.1764 321.232 43.1764C320.919 43.1764 320.664 43.098 320.468 42.9412C320.272 42.7844 320.174 42.5688 320.174 42.2943C320.174 41.9023 320.272 41.6475 320.468 41.5299C320.703 41.3731 321.017 41.2359 321.409 41.1183C322.898 40.7262 323.918 40.2754 324.467 39.7657C325.015 39.2169 325.29 38.374 325.29 37.2371V26.2407C325.29 25.927 325.231 25.6918 325.113 25.535C325.035 25.339 324.859 25.241 324.584 25.241H308.883C308.335 25.241 308.06 25.5546 308.06 26.1819V37.1783C308.06 38.276 308.354 39.1189 308.942 39.7069C309.53 40.2558 310.569 40.7262 312.059 41.1183C312.451 41.2359 312.745 41.3731 312.941 41.5299C313.176 41.6475 313.294 41.9023 313.294 42.2943C313.294 42.5688 313.196 42.7844 313 42.9412C312.843 43.098 312.588 43.1764 312.235 43.1764C311.373 43.1764 310.412 43.1372 309.354 43.0588C308.295 43.0196 307.256 42.9804 306.237 42.9412C305.218 42.902 304.316 42.8824 303.532 42.8824C302.748 42.8824 301.866 42.902 300.886 42.9412C299.945 42.9804 298.985 43.0196 298.004 43.0588C297.064 43.1372 296.201 43.1764 295.417 43.1764ZM347.799 43.8233C346.741 43.8233 345.761 43.5684 344.859 43.0588C343.957 42.5492 343.232 41.8827 342.683 41.0594C342.174 40.2362 341.919 39.3345 341.919 38.3544C341.919 37.0215 342.33 35.9042 343.154 35.0026C344.016 34.1009 345.271 33.2972 346.917 32.5916L352.151 30.2982C352.935 29.9454 353.405 29.6317 353.562 29.3573C353.758 29.0829 353.856 28.5733 353.856 27.8284L353.915 24.4765C353.954 23.3788 353.758 22.5164 353.327 21.8891C352.896 21.2227 352.249 20.8894 351.386 20.8894C350.877 20.8894 350.367 21.0071 349.857 21.2423C349.348 21.4383 348.956 21.6735 348.681 21.9479C348.564 22.1047 348.466 22.3008 348.387 22.536C348.348 22.732 348.328 22.9476 348.328 23.1828C348.328 23.418 348.348 23.7121 348.387 24.0649C348.426 24.3785 348.446 24.6529 348.446 24.8882C348.446 25.1234 348.132 25.437 347.505 25.829C346.878 26.1819 346.153 26.5151 345.329 26.8287C344.506 27.1031 343.8 27.2403 343.212 27.2403C342.938 27.2403 342.683 27.1227 342.448 26.8875C342.252 26.6523 342.154 26.3583 342.154 26.0054C342.154 25.3782 342.37 24.7705 342.801 24.1825C343.232 23.5553 343.938 22.8496 344.918 22.0655C345.937 21.2031 347.054 20.4386 348.27 19.7722C349.485 19.1057 350.681 18.5765 351.857 18.1844C353.072 17.7924 354.091 17.5964 354.915 17.5964C357.032 17.5964 358.717 18.2824 359.972 19.6545C361.226 20.9874 361.814 22.7712 361.736 25.0058L361.442 36.8843C361.403 37.786 361.559 38.5504 361.912 39.1777C362.265 39.8049 362.696 40.1186 363.206 40.1186C363.951 40.1186 364.598 39.8638 365.147 39.3541C365.264 39.2365 365.382 39.1777 365.499 39.1777C365.695 39.1777 365.852 39.2365 365.97 39.3541C366.127 39.4717 366.205 39.6285 366.205 39.8245C366.205 40.295 365.852 40.9026 365.147 41.6475C364.402 42.3531 363.618 42.8824 362.794 43.2352C361.971 43.6272 361.109 43.8233 360.207 43.8233C358.012 43.8233 356.189 42.706 354.738 40.4714H354.621C353.327 41.6475 352.151 42.4904 351.092 43C350.073 43.5488 348.975 43.8233 347.799 43.8233ZM351.327 40.001C351.759 40.001 352.112 39.9422 352.386 39.8245C352.66 39.6677 352.935 39.4325 353.209 39.1189C353.327 38.9621 353.425 38.7661 353.503 38.5308C353.582 38.2564 353.621 37.9428 353.621 37.59L353.797 33.356C353.797 32.964 353.738 32.7092 353.621 32.5916C353.503 32.474 353.366 32.4152 353.209 32.4152C353.131 32.4152 353.033 32.4348 352.915 32.474C352.798 32.5132 352.66 32.572 352.504 32.6504C351.367 33.1992 350.524 33.7677 349.975 34.3557C349.426 34.9046 349.152 35.8062 349.152 37.0607C349.152 38.1976 349.387 38.9817 349.857 39.4129C350.328 39.8049 350.818 40.001 351.327 40.001ZM368.468 43.1764C368.154 43.1764 367.88 43.1176 367.644 43C367.409 42.8432 367.292 42.6276 367.292 42.3531C367.292 42.0395 367.409 41.8043 367.644 41.6475C367.88 41.4515 368.213 41.2947 368.644 41.1771C369.507 40.9026 370.075 40.6086 370.349 40.295C370.663 39.9814 370.82 39.5305 370.82 38.9425V25.4174C370.82 24.5941 370.702 23.9277 370.467 23.418C370.271 22.8692 369.801 22.4968 369.056 22.3008C368.86 22.2223 368.683 22.1243 368.526 22.0067C368.37 21.8499 368.291 21.5951 368.291 21.2423C368.291 20.6934 368.526 20.3602 368.997 20.2426C370.251 19.929 371.624 19.5173 373.113 19.0077C374.642 18.498 375.936 17.9884 376.994 17.4788C377.19 17.322 377.426 17.1847 377.7 17.0671C378.014 16.9103 378.229 16.8319 378.347 16.8319C378.7 16.8319 378.876 17.0475 378.876 17.4788C378.876 17.6748 378.856 18.0864 378.817 18.7137C378.817 19.3017 378.798 19.9094 378.758 20.5366C378.758 21.1639 378.739 21.6931 378.7 22.1243C378.7 22.4772 378.778 22.6536 378.935 22.6536C379.523 21.8303 380.209 21.0267 380.993 20.2426C381.816 19.4585 382.698 18.8117 383.639 18.302C384.58 17.7924 385.501 17.5376 386.403 17.5376C387.775 17.5376 388.736 17.7924 389.285 18.302C389.873 18.8117 390.167 19.4781 390.167 20.3014C390.167 20.8894 389.99 21.5363 389.637 22.2419C389.324 22.9476 388.912 23.5553 388.402 24.0649C387.893 24.5745 387.344 24.8294 386.756 24.8294C386.403 24.8294 386.031 24.7509 385.639 24.5941C385.247 24.3981 384.855 24.2021 384.463 24.0061C384.071 23.8493 383.678 23.6925 383.286 23.5357C382.934 23.3396 382.6 23.2416 382.287 23.2416C381.267 23.2416 380.385 23.6141 379.641 24.3589C378.896 25.1038 378.523 26.5935 378.523 28.8281V38.4132C378.523 39.1973 378.758 39.7853 379.229 40.1774C379.739 40.5302 380.542 40.8634 381.64 41.1771C382.071 41.2947 382.385 41.4515 382.581 41.6475C382.816 41.8043 382.934 42.0395 382.934 42.3531C382.934 42.902 382.6 43.1764 381.934 43.1764C380.758 43.1764 379.543 43.1176 378.288 43C377.034 42.9216 375.897 42.8824 374.877 42.8824C374.211 42.8824 373.525 42.902 372.819 42.9412C372.153 42.9804 371.447 43.0196 370.702 43.0588C369.997 43.1372 369.252 43.1764 368.468 43.1764ZM392.522 43.1764C392.287 43.1764 392.072 43.1176 391.876 43C391.68 42.8432 391.582 42.6472 391.582 42.412C391.582 42.0983 391.68 41.8435 391.876 41.6475C392.072 41.4515 392.326 41.3143 392.64 41.2359C393.659 41.0006 394.365 40.7458 394.757 40.4714C395.188 40.1578 395.404 39.6873 395.404 39.0601V26.3583C395.404 25.0254 395.188 24.0845 394.757 23.5357C394.365 22.9476 393.738 22.5948 392.875 22.4772C392.64 22.438 392.464 22.3204 392.346 22.1243C392.228 21.9283 392.17 21.6931 392.17 21.4187C392.17 20.8306 392.385 20.4974 392.816 20.419C394.855 20.027 396.658 19.4781 398.227 18.7725C399.834 18.0668 401.069 17.518 401.931 17.1259C402.558 16.8123 402.95 16.6555 403.107 16.6555C403.617 16.6555 403.872 16.8907 403.872 17.3612C403.833 18.0276 403.735 18.8705 403.578 19.8898C403.46 20.8698 403.343 21.8891 403.225 22.9476C403.146 24.0061 403.107 25.0254 403.107 26.0054V39.0013C403.107 39.5501 403.303 39.9814 403.695 40.295C404.127 40.6086 404.871 40.9222 405.93 41.2359C406.244 41.3535 406.498 41.4907 406.694 41.6475C406.89 41.8043 406.988 42.0395 406.988 42.3531C406.988 42.8628 406.694 43.1176 406.106 43.1176C405.361 43.1176 404.577 43.098 403.754 43.0588C402.931 43.0196 402.127 42.9804 401.343 42.9412C400.598 42.902 399.873 42.8824 399.167 42.8824C398.501 42.8824 397.795 42.902 397.05 42.9412C396.345 42.9804 395.6 43.0196 394.816 43.0588C394.071 43.1372 393.307 43.1764 392.522 43.1764ZM398.991 14.0093C397.776 14.0093 396.698 13.5585 395.757 12.6568C394.855 11.7551 394.404 10.677 394.404 9.42253C394.404 8.08962 394.855 6.97233 395.757 6.07066C396.698 5.16899 397.776 4.71815 398.991 4.71815C400.363 4.71815 401.5 5.16899 402.402 6.07066C403.303 6.97233 403.754 8.08962 403.754 9.42253C403.754 10.677 403.303 11.7551 402.402 12.6568C401.5 13.5585 400.363 14.0093 398.991 14.0093ZM417.392 43.8233C416.099 43.8233 414.844 43.6665 413.629 43.3528C412.413 43.0392 411.316 42.5296 410.336 41.8239C409.983 41.2359 409.728 40.3146 409.571 39.0601C409.414 37.8056 409.356 36.4923 409.395 35.1202C409.395 34.6497 409.787 34.4145 410.571 34.4145C410.885 34.4145 411.159 34.5125 411.394 34.7085C411.629 34.9046 411.767 35.1006 411.806 35.2966C412.551 36.9431 413.413 38.3544 414.393 39.5305C415.373 40.6674 416.549 41.2359 417.921 41.2359C418.98 41.2359 419.784 40.9222 420.332 40.295C420.881 39.6285 421.156 38.8837 421.156 38.0604C421.156 37.0411 420.744 36.1983 419.921 35.5318C419.137 34.8261 418.176 34.1793 417.039 33.5913C415.903 33.0032 414.824 32.3368 413.805 31.5919C412.786 30.847 411.943 29.965 411.277 28.9457C410.649 27.8872 410.336 26.6327 410.336 25.1822C410.336 23.6533 410.747 22.3204 411.571 21.1835C412.433 20.0466 413.57 19.1645 414.981 18.5373C416.432 17.8708 418.039 17.5376 419.803 17.5376C421.097 17.5376 422.293 17.6944 423.39 18.008C424.488 18.2824 425.233 18.5569 425.625 18.8313C425.939 19.2233 426.193 19.9682 426.389 21.0659C426.585 22.1243 426.683 23.3004 426.683 24.5941C426.683 25.0254 426.331 25.241 425.625 25.241C425.35 25.241 425.056 25.143 424.743 24.947C424.468 24.7509 424.292 24.5549 424.214 24.3589C423.704 22.83 423.037 21.6931 422.214 20.9482C421.43 20.1642 420.548 19.7722 419.568 19.7722C418.706 19.7722 417.921 20.0466 417.216 20.5954C416.51 21.1443 416.157 21.8891 416.157 22.83C416.157 23.6533 416.53 24.3981 417.275 25.0646C418.059 25.6918 419.019 26.3191 420.156 26.9463C422.704 28.2792 424.527 29.5729 425.625 30.8274C426.723 32.0427 427.271 33.6697 427.271 35.7082C427.271 38.2564 426.429 40.2558 424.743 41.7063C423.096 43.1176 420.646 43.8233 417.392 43.8233ZM431.056 43.1764C430.272 43.1764 429.88 42.902 429.88 42.3531C429.88 41.8435 430.33 41.4515 431.232 41.1771C431.82 40.981 432.33 40.7654 432.761 40.5302C433.192 40.295 433.427 39.7461 433.467 38.8837V10.6574C433.467 9.59894 433.329 8.67767 433.055 7.89361C432.781 7.10954 432.153 6.6195 431.173 6.42349C430.742 6.34508 430.526 6.05106 430.526 5.54142C430.526 5.03178 430.722 4.73776 431.114 4.65935C432.016 4.46334 433.035 4.18891 434.172 3.83609C435.348 3.44405 436.485 3.05202 437.583 2.65999C438.681 2.22876 439.523 1.91513 440.112 1.71912C440.425 1.60151 440.68 1.5427 440.876 1.5427C441.111 1.5427 441.268 1.62111 441.346 1.77792C441.425 1.89553 441.464 2.05234 441.464 2.24836C441.464 2.44437 441.425 2.7384 441.346 3.13043C441.307 3.48326 441.268 3.93409 441.229 4.48294C441.19 4.99258 441.15 5.60023 441.111 6.30588V19.8898C441.111 20.2818 441.131 20.6346 441.17 20.9482C441.209 21.2619 441.307 21.4775 441.464 21.5951C442.052 21.0855 442.758 20.5366 443.581 19.9486C444.404 19.3213 445.345 18.7725 446.404 18.302C447.501 17.8316 448.717 17.5964 450.05 17.5964C452.127 17.5964 453.872 18.3412 455.283 19.831C456.694 21.2815 457.4 23.32 457.4 25.9466V38.7661C457.4 39.5893 457.616 40.1578 458.047 40.4714C458.478 40.7458 458.968 40.981 459.517 41.1771C459.948 41.2947 460.262 41.4515 460.458 41.6475C460.693 41.8043 460.811 42.0395 460.811 42.3531C460.811 42.902 460.38 43.1764 459.517 43.1764C458.576 43.1764 457.812 43.1372 457.224 43.0588C456.636 43.0196 456.067 42.9804 455.518 42.9412C455.009 42.902 454.342 42.8824 453.519 42.8824C452.657 42.8824 451.99 42.902 451.52 42.9412C451.049 42.9804 450.559 43.0196 450.05 43.0588C449.54 43.1372 448.815 43.1764 447.874 43.1764C446.894 43.1764 446.404 42.8824 446.404 42.2943C446.404 41.9807 446.521 41.7455 446.756 41.5887C447.031 41.3927 447.325 41.2555 447.639 41.1771C448.148 40.981 448.619 40.7262 449.05 40.4126C449.481 40.099 449.697 39.5109 449.697 38.6485V27.0639C449.697 26.2015 449.52 25.437 449.167 24.7706C448.815 24.0649 448.344 23.516 447.756 23.124C447.207 22.6928 446.6 22.4772 445.933 22.4772C445.345 22.4772 444.698 22.5752 443.993 22.7712C443.287 22.9672 442.601 23.3004 441.934 23.7709C441.621 24.0061 441.405 24.2805 441.288 24.5941C441.209 24.8686 441.17 25.2998 441.17 25.8878V38.7661C441.17 39.5501 441.366 40.099 441.758 40.4126C442.15 40.687 442.601 40.9222 443.111 41.1183C443.463 41.2359 443.757 41.3927 443.993 41.5887C444.228 41.7455 444.345 41.9807 444.345 42.2943C444.345 42.8824 443.993 43.1764 443.287 43.1764C442.503 43.1764 441.758 43.1372 441.052 43.0588C440.386 43.0196 439.739 42.9804 439.112 42.9412C438.524 42.902 437.877 42.8824 437.171 42.8824C436.505 42.8824 435.838 42.902 435.172 42.9412C434.545 42.9804 433.898 43.0196 433.231 43.0588C432.565 43.1372 431.84 43.1764 431.056 43.1764Z" fill="white"/>
<path d="M20.5923 85.6992H17.7741C17.6075 84.8886 17.3158 84.1765 16.8991 83.5629C16.4901 82.9492 15.9901 82.4341 15.3991 82.0174C14.8158 81.5932 14.1681 81.275 13.456 81.0629C12.7438 80.8507 12.0014 80.7447 11.2287 80.7447C9.8196 80.7447 8.54309 81.1007 7.39915 81.8129C6.26278 82.525 5.35748 83.5742 4.68324 84.9606C4.01657 86.3469 3.68324 88.0477 3.68324 90.0629C3.68324 92.078 4.01657 93.7788 4.68324 95.1651C5.35748 96.5515 6.26278 97.6007 7.39915 98.3129C8.54309 99.025 9.8196 99.381 11.2287 99.381C12.0014 99.381 12.7438 99.275 13.456 99.0629C14.1681 98.8507 14.8158 98.5363 15.3991 98.1197C15.9901 97.6954 16.4901 97.1765 16.8991 96.5629C17.3158 95.9416 17.6075 95.2295 17.7741 94.4265H20.5923C20.3802 95.6159 19.9938 96.6803 19.4332 97.6197C18.8726 98.5591 18.1757 99.3583 17.3423 100.017C16.509 100.669 15.5734 101.165 14.5355 101.506C13.5052 101.847 12.4029 102.017 11.2287 102.017C9.24385 102.017 7.47869 101.533 5.93324 100.563C4.38778 99.5932 3.17188 98.2144 2.28551 96.4265C1.39915 94.6386 0.955966 92.5174 0.955966 90.0629C0.955966 87.6083 1.39915 85.4871 2.28551 83.6992C3.17188 81.9113 4.38778 80.5326 5.93324 79.5629C7.47869 78.5932 9.24385 78.1083 11.2287 78.1083C12.4029 78.1083 13.5052 78.2788 14.5355 78.6197C15.5734 78.9606 16.509 79.4606 17.3423 80.1197C18.1757 80.7712 18.8726 81.5666 19.4332 82.506C19.9938 83.4379 20.3802 84.5022 20.5923 85.6992ZM31.8736 102.063C30.2978 102.063 28.9152 101.688 27.7259 100.938C26.544 100.188 25.6198 99.1386 24.9531 97.7901C24.294 96.4416 23.9645 94.8659 23.9645 93.0629C23.9645 91.2447 24.294 89.6576 24.9531 88.3015C25.6198 86.9454 26.544 85.8924 27.7259 85.1424C28.9152 84.3924 30.2978 84.0174 31.8736 84.0174C33.4493 84.0174 34.8281 84.3924 36.0099 85.1424C37.1993 85.8924 38.1236 86.9454 38.7827 88.3015C39.4493 89.6576 39.7827 91.2447 39.7827 93.0629C39.7827 94.8659 39.4493 96.4416 38.7827 97.7901C38.1236 99.1386 37.1993 100.188 36.0099 100.938C34.8281 101.688 33.4493 102.063 31.8736 102.063ZM31.8736 99.6538C33.0705 99.6538 34.0554 99.3469 34.8281 98.7333C35.6009 98.1197 36.1728 97.3129 36.544 96.3129C36.9152 95.3129 37.1009 94.2295 37.1009 93.0629C37.1009 91.8962 36.9152 90.8091 36.544 89.8015C36.1728 88.7939 35.6009 87.9795 34.8281 87.3583C34.0554 86.7371 33.0705 86.4265 31.8736 86.4265C30.6766 86.4265 29.6918 86.7371 28.919 87.3583C28.1463 87.9795 27.5743 88.7939 27.2031 89.8015C26.8319 90.8091 26.6463 91.8962 26.6463 93.0629C26.6463 94.2295 26.8319 95.3129 27.2031 96.3129C27.5743 97.3129 28.1463 98.1197 28.919 98.7333C29.6918 99.3469 30.6766 99.6538 31.8736 99.6538ZM53.8764 90.4719V92.9719H43.6946V90.4719H53.8764ZM58.9588 101.699V78.4265H72.9134V80.9265H61.777V88.7901H71.8679V91.2901H61.777V101.699H58.9588ZM83.1861 102.063C81.6103 102.063 80.2277 101.688 79.0384 100.938C77.8565 100.188 76.9323 99.1386 76.2656 97.7901C75.6065 96.4416 75.277 94.8659 75.277 93.0629C75.277 91.2447 75.6065 89.6576 76.2656 88.3015C76.9323 86.9454 77.8565 85.8924 79.0384 85.1424C80.2277 84.3924 81.6103 84.0174 83.1861 84.0174C84.7618 84.0174 86.1406 84.3924 87.3224 85.1424C88.5118 85.8924 89.4361 86.9454 90.0952 88.3015C90.7618 89.6576 91.0952 91.2447 91.0952 93.0629C91.0952 94.8659 90.7618 96.4416 90.0952 97.7901C89.4361 99.1386 88.5118 100.188 87.3224 100.938C86.1406 101.688 84.7618 102.063 83.1861 102.063ZM83.1861 99.6538C84.383 99.6538 85.3679 99.3469 86.1406 98.7333C86.9134 98.1197 87.4853 97.3129 87.8565 96.3129C88.2277 95.3129 88.4134 94.2295 88.4134 93.0629C88.4134 91.8962 88.2277 90.8091 87.8565 89.8015C87.4853 88.7939 86.9134 87.9795 86.1406 87.3583C85.3679 86.7371 84.383 86.4265 83.1861 86.4265C81.9891 86.4265 81.0043 86.7371 80.2315 87.3583C79.4588 87.9795 78.8868 88.7939 78.5156 89.8015C78.1444 90.8091 77.9588 91.8962 77.9588 93.0629C77.9588 94.2295 78.1444 95.3129 78.5156 96.3129C78.8868 97.3129 79.4588 98.1197 80.2315 98.7333C81.0043 99.3469 81.9891 99.6538 83.1861 99.6538ZM106.189 94.5629V84.2447H108.871V101.699H106.189V98.7447H106.007C105.598 99.631 104.962 100.385 104.098 101.006C103.234 101.62 102.143 101.926 100.825 101.926C99.7344 101.926 98.7647 101.688 97.9162 101.211C97.0677 100.726 96.401 99.9985 95.9162 99.0288C95.4313 98.0515 95.1889 96.8204 95.1889 95.3356V84.2447H97.8707V95.1538C97.8707 96.4265 98.2268 97.4416 98.9389 98.1992C99.6586 98.9568 100.575 99.3356 101.689 99.3356C102.356 99.3356 103.034 99.1651 103.723 98.8242C104.42 98.4833 105.003 97.9606 105.473 97.256C105.95 96.5515 106.189 95.6538 106.189 94.5629ZM116.464 91.1992V101.699H113.783V84.2447H116.374V86.9719H116.601C117.01 86.0856 117.631 85.3735 118.464 84.8356C119.298 84.2901 120.374 84.0174 121.692 84.0174C122.874 84.0174 123.908 84.2598 124.794 84.7447C125.68 85.2219 126.37 85.9492 126.862 86.9265C127.355 87.8962 127.601 89.1235 127.601 90.6083V101.699H124.919V90.7901C124.919 89.4189 124.563 88.3507 123.851 87.5856C123.139 86.8129 122.161 86.4265 120.919 86.4265C120.063 86.4265 119.298 86.6121 118.624 86.9833C117.957 87.3545 117.43 87.8962 117.044 88.6083C116.658 89.3204 116.464 90.1841 116.464 91.1992ZM139.092 102.063C137.638 102.063 136.354 101.695 135.24 100.961C134.126 100.218 133.255 99.1727 132.626 97.8242C131.998 96.4682 131.683 94.8659 131.683 93.0174C131.683 91.1841 131.998 89.5932 132.626 88.2447C133.255 86.8962 134.13 85.8545 135.251 85.1197C136.373 84.3848 137.668 84.0174 139.138 84.0174C140.274 84.0174 141.172 84.2068 141.831 84.5856C142.498 84.9568 143.005 85.381 143.354 85.8583C143.71 86.328 143.986 86.7144 144.183 87.0174H144.411V78.4265H147.092V101.699H144.501V99.0174H144.183C143.986 99.3356 143.706 99.7371 143.342 100.222C142.979 100.699 142.46 101.127 141.786 101.506C141.111 101.877 140.214 102.063 139.092 102.063ZM139.456 99.6538C140.532 99.6538 141.441 99.3735 142.183 98.8129C142.926 98.2447 143.49 97.4606 143.876 96.4606C144.263 95.453 144.456 94.2901 144.456 92.9719C144.456 91.6689 144.267 90.5288 143.888 89.5515C143.509 88.5666 142.948 87.8015 142.206 87.256C141.464 86.703 140.547 86.4265 139.456 86.4265C138.32 86.4265 137.373 86.7182 136.615 87.3015C135.865 87.8772 135.301 88.6613 134.922 89.6538C134.551 90.6386 134.365 91.7447 134.365 92.9719C134.365 94.2144 134.554 95.3432 134.933 96.3583C135.32 97.3659 135.888 98.1689 136.638 98.7674C137.395 99.3583 138.335 99.6538 139.456 99.6538ZM159.695 102.063C158.013 102.063 156.562 101.692 155.342 100.949C154.13 100.199 153.195 99.1538 152.536 97.8129C151.884 96.4644 151.558 94.8962 151.558 93.1083C151.558 91.3204 151.884 89.7447 152.536 88.381C153.195 87.0098 154.111 85.9416 155.286 85.1765C156.467 84.4038 157.846 84.0174 159.422 84.0174C160.331 84.0174 161.229 84.1689 162.115 84.4719C163.001 84.775 163.808 85.2674 164.536 85.9492C165.263 86.6235 165.842 87.5174 166.274 88.631C166.706 89.7447 166.922 91.1159 166.922 92.7447V93.881H153.467V91.5629H164.195C164.195 90.578 163.998 89.6992 163.604 88.9265C163.217 88.1538 162.664 87.5439 161.945 87.0969C161.232 86.65 160.392 86.4265 159.422 86.4265C158.354 86.4265 157.429 86.6916 156.649 87.2219C155.876 87.7447 155.282 88.4265 154.865 89.2674C154.448 90.1083 154.24 91.0098 154.24 91.9719V93.5174C154.24 94.8356 154.467 95.953 154.922 96.8697C155.384 97.7788 156.024 98.4719 156.842 98.9492C157.661 99.4189 158.611 99.6538 159.695 99.6538C160.399 99.6538 161.036 99.5553 161.604 99.3583C162.179 99.1538 162.676 98.8507 163.092 98.4492C163.509 98.0401 163.831 97.5326 164.058 96.9265L166.649 97.6538C166.376 98.5326 165.918 99.3053 165.274 99.9719C164.63 100.631 163.835 101.146 162.888 101.517C161.941 101.881 160.876 102.063 159.695 102.063ZM171.001 101.699V84.2447H173.592V86.881H173.774C174.092 86.0174 174.668 85.3166 175.501 84.7788C176.335 84.2409 177.274 83.9719 178.32 83.9719C178.517 83.9719 178.763 83.9757 179.058 83.9833C179.354 83.9909 179.577 84.0022 179.729 84.0174V86.7447C179.638 86.7219 179.429 86.6879 179.104 86.6424C178.786 86.5894 178.448 86.5629 178.092 86.5629C177.244 86.5629 176.486 86.7409 175.82 87.0969C175.161 87.4454 174.638 87.9303 174.251 88.5515C173.873 89.1651 173.683 89.8659 173.683 90.6538V101.699H171.001ZM198.499 102.017C196.968 102.017 195.65 101.737 194.544 101.176C193.438 100.616 192.586 99.8469 191.987 98.8697C191.389 97.8924 191.089 96.775 191.089 95.5174C191.089 94.5477 191.294 93.6879 191.703 92.9379C192.12 92.1803 192.692 91.4795 193.419 90.8356C194.154 90.1841 194.999 89.5326 195.953 88.881L199.317 86.381C199.976 85.9492 200.502 85.4871 200.896 84.9947C201.298 84.5022 201.499 83.8583 201.499 83.0629C201.499 82.4719 201.237 81.9 200.714 81.3469C200.199 80.7939 199.521 80.5174 198.68 80.5174C198.089 80.5174 197.567 80.6689 197.112 80.9719C196.665 81.2674 196.313 81.6462 196.055 82.1083C195.805 82.5629 195.68 83.0326 195.68 83.5174C195.68 84.0629 195.828 84.6159 196.124 85.1765C196.427 85.7295 196.809 86.2977 197.271 86.881C197.741 87.4568 198.226 88.0477 198.726 88.6538L209.408 101.699H206.18L197.362 91.0629C196.544 90.078 195.802 89.1841 195.135 88.381C194.468 87.578 193.938 86.7863 193.544 86.006C193.15 85.2257 192.953 84.381 192.953 83.4719C192.953 82.4265 193.184 81.5098 193.646 80.7219C194.116 79.9265 194.771 79.3091 195.612 78.8697C196.461 78.4227 197.453 78.1992 198.589 78.1992C199.756 78.1992 200.76 78.4265 201.601 78.881C202.442 79.328 203.089 79.9227 203.544 80.6651C203.999 81.4 204.226 82.1992 204.226 83.0629C204.226 84.1765 203.949 85.1424 203.396 85.9606C202.843 86.7788 202.089 87.5401 201.135 88.2447L196.499 91.6992C195.453 92.4719 194.745 93.2219 194.374 93.9492C194.002 94.6765 193.817 95.1992 193.817 95.5174C193.817 96.2447 194.006 96.9227 194.385 97.5515C194.764 98.1803 195.298 98.6879 195.987 99.0742C196.677 99.4606 197.483 99.6538 198.408 99.6538C199.286 99.6538 200.143 99.4682 200.976 99.0969C201.809 98.7182 202.563 98.1727 203.237 97.4606C203.919 96.7485 204.457 95.8924 204.851 94.8924C205.252 93.8924 205.453 92.7674 205.453 91.5174H208.044C208.044 93.0629 207.866 94.3242 207.51 95.3015C207.154 96.2788 206.752 97.0439 206.305 97.5969C205.858 98.15 205.499 98.5629 205.226 98.8356C205.135 98.9492 205.052 99.0629 204.976 99.1765C204.9 99.2901 204.817 99.4038 204.726 99.5174C203.976 100.358 203.029 100.987 201.885 101.404C200.741 101.813 199.612 102.017 198.499 102.017ZM240.467 85.6992H237.649C237.482 84.8886 237.191 84.1765 236.774 83.5629C236.365 82.9492 235.865 82.4341 235.274 82.0174C234.691 81.5932 234.043 81.275 233.331 81.0629C232.619 80.8507 231.876 80.7447 231.104 80.7447C229.695 80.7447 228.418 81.1007 227.274 81.8129C226.138 82.525 225.232 83.5742 224.558 84.9606C223.892 86.3469 223.558 88.0477 223.558 90.0629C223.558 92.078 223.892 93.7788 224.558 95.1651C225.232 96.5515 226.138 97.6007 227.274 98.3129C228.418 99.025 229.695 99.381 231.104 99.381C231.876 99.381 232.619 99.275 233.331 99.0629C234.043 98.8507 234.691 98.5363 235.274 98.1197C235.865 97.6954 236.365 97.1765 236.774 96.5629C237.191 95.9416 237.482 95.2295 237.649 94.4265H240.467C240.255 95.6159 239.869 96.6803 239.308 97.6197C238.748 98.5591 238.051 99.3583 237.217 100.017C236.384 100.669 235.448 101.165 234.411 101.506C233.38 101.847 232.278 102.017 231.104 102.017C229.119 102.017 227.354 101.533 225.808 100.563C224.263 99.5932 223.047 98.2144 222.161 96.4265C221.274 94.6386 220.831 92.5174 220.831 90.0629C220.831 87.6083 221.274 85.4871 222.161 83.6992C223.047 81.9113 224.263 80.5326 225.808 79.5629C227.354 78.5932 229.119 78.1083 231.104 78.1083C232.278 78.1083 233.38 78.2788 234.411 78.6197C235.448 78.9606 236.384 79.4606 237.217 80.1197C238.051 80.7712 238.748 81.5666 239.308 82.506C239.869 83.4379 240.255 84.5022 240.467 85.6992ZM264.658 90.0629C264.658 92.5174 264.214 94.6386 263.328 96.4265C262.442 98.2144 261.226 99.5932 259.68 100.563C258.135 101.533 256.37 102.017 254.385 102.017C252.4 102.017 250.635 101.533 249.089 100.563C247.544 99.5932 246.328 98.2144 245.442 96.4265C244.555 94.6386 244.112 92.5174 244.112 90.0629C244.112 87.6083 244.555 85.4871 245.442 83.6992C246.328 81.9113 247.544 80.5326 249.089 79.5629C250.635 78.5932 252.4 78.1083 254.385 78.1083C256.37 78.1083 258.135 78.5932 259.68 79.5629C261.226 80.5326 262.442 81.9113 263.328 83.6992C264.214 85.4871 264.658 87.6083 264.658 90.0629ZM261.93 90.0629C261.93 88.0477 261.593 86.3469 260.919 84.9606C260.252 83.5742 259.347 82.525 258.203 81.8129C257.067 81.1007 255.794 80.7447 254.385 80.7447C252.976 80.7447 251.699 81.1007 250.555 81.8129C249.419 82.525 248.514 83.5742 247.839 84.9606C247.173 86.3469 246.839 88.0477 246.839 90.0629C246.839 92.078 247.173 93.7788 247.839 95.1651C248.514 96.5515 249.419 97.6007 250.555 98.3129C251.699 99.025 252.976 99.381 254.385 99.381C255.794 99.381 257.067 99.025 258.203 98.3129C259.347 97.6007 260.252 96.5515 260.919 95.1651C261.593 93.7788 261.93 92.078 261.93 90.0629ZM289.033 90.0629C289.033 92.5174 288.589 94.6386 287.703 96.4265C286.817 98.2144 285.601 99.5932 284.055 100.563C282.51 101.533 280.745 102.017 278.76 102.017C276.775 102.017 275.01 101.533 273.464 100.563C271.919 99.5932 270.703 98.2144 269.817 96.4265C268.93 94.6386 268.487 92.5174 268.487 90.0629C268.487 87.6083 268.93 85.4871 269.817 83.6992C270.703 81.9113 271.919 80.5326 273.464 79.5629C275.01 78.5932 276.775 78.1083 278.76 78.1083C280.745 78.1083 282.51 78.5932 284.055 79.5629C285.601 80.5326 286.817 81.9113 287.703 83.6992C288.589 85.4871 289.033 87.6083 289.033 90.0629ZM286.305 90.0629C286.305 88.0477 285.968 86.3469 285.294 84.9606C284.627 83.5742 283.722 82.525 282.578 81.8129C281.442 81.1007 280.169 80.7447 278.76 80.7447C277.351 80.7447 276.074 81.1007 274.93 81.8129C273.794 82.525 272.889 83.5742 272.214 84.9606C271.548 86.3469 271.214 88.0477 271.214 90.0629C271.214 92.078 271.548 93.7788 272.214 95.1651C272.889 96.5515 273.794 97.6007 274.93 98.3129C276.074 99.025 277.351 99.381 278.76 99.381C280.169 99.381 281.442 99.025 282.578 98.3129C283.722 97.6007 284.627 96.5515 285.294 95.1651C285.968 93.7788 286.305 92.078 286.305 90.0629ZM295.939 98.5174L295.757 99.7447C295.628 100.608 295.431 101.533 295.166 102.517C294.909 103.502 294.64 104.43 294.359 105.301C294.079 106.173 293.848 106.866 293.666 107.381H291.621C291.719 106.896 291.848 106.256 292.007 105.461C292.166 104.665 292.325 103.775 292.484 102.79C292.651 101.813 292.787 100.813 292.893 99.7901L293.03 98.5174H295.939ZM310.271 101.699V78.4265H318.408C320.029 78.4265 321.366 78.7068 322.419 79.2674C323.472 79.8204 324.256 80.5666 324.771 81.506C325.286 82.4379 325.544 83.4719 325.544 84.6083C325.544 85.6083 325.366 86.4341 325.01 87.0856C324.661 87.7371 324.199 88.2522 323.624 88.631C323.055 89.0098 322.438 89.2901 321.771 89.4719V89.6992C322.483 89.7447 323.199 89.9947 323.919 90.4492C324.639 90.9038 325.241 91.5553 325.726 92.4038C326.211 93.2522 326.453 94.2901 326.453 95.5174C326.453 96.6841 326.188 97.7333 325.658 98.6651C325.127 99.5969 324.29 100.336 323.146 100.881C322.002 101.426 320.514 101.699 318.68 101.699H310.271ZM313.089 99.1992H318.68C320.521 99.1992 321.828 98.8432 322.601 98.131C323.381 97.4113 323.771 96.5401 323.771 95.5174C323.771 94.7295 323.571 94.0022 323.169 93.3356C322.768 92.6613 322.196 92.1235 321.453 91.7219C320.711 91.3129 319.832 91.1083 318.817 91.1083H313.089V99.1992ZM313.089 88.6538H318.317C319.165 88.6538 319.93 88.4871 320.612 88.1538C321.302 87.8204 321.847 87.3507 322.249 86.7447C322.658 86.1386 322.862 85.4265 322.862 84.6083C322.862 83.5856 322.506 82.7182 321.794 82.006C321.082 81.2863 319.953 80.9265 318.408 80.9265H313.089V88.6538ZM335.857 102.108C334.75 102.108 333.747 101.9 332.845 101.483C331.944 101.059 331.228 100.449 330.697 99.6538C330.167 98.8507 329.902 97.881 329.902 96.7447C329.902 95.7447 330.099 94.9341 330.493 94.3129C330.887 93.6841 331.413 93.1916 332.072 92.8356C332.732 92.4795 333.459 92.2144 334.254 92.0401C335.057 91.8583 335.864 91.7144 336.675 91.6083C337.735 91.4719 338.595 91.3697 339.254 91.3015C339.921 91.2257 340.406 91.1007 340.709 90.9265C341.019 90.7522 341.175 90.4492 341.175 90.0174V89.9265C341.175 88.8053 340.868 87.9341 340.254 87.3129C339.648 86.6916 338.728 86.381 337.493 86.381C336.213 86.381 335.209 86.6613 334.482 87.2219C333.754 87.7826 333.243 88.381 332.947 89.0174L330.402 88.1083C330.857 87.0477 331.463 86.2219 332.22 85.631C332.985 85.0326 333.819 84.6159 334.72 84.381C335.629 84.1386 336.523 84.0174 337.402 84.0174C337.963 84.0174 338.607 84.0856 339.334 84.2219C340.069 84.3507 340.777 84.6197 341.459 85.0288C342.148 85.4379 342.72 86.0553 343.175 86.881C343.629 87.7068 343.857 88.8129 343.857 90.1992V101.699H341.175V99.3356H341.038C340.857 99.7144 340.554 100.12 340.129 100.551C339.705 100.983 339.141 101.351 338.436 101.654C337.732 101.957 336.872 102.108 335.857 102.108ZM336.266 99.6992C337.326 99.6992 338.22 99.4909 338.947 99.0742C339.682 98.6576 340.235 98.1197 340.607 97.4606C340.985 96.8015 341.175 96.1083 341.175 95.381V92.9265C341.061 93.0629 340.811 93.1879 340.425 93.3015C340.046 93.4076 339.607 93.5022 339.107 93.5856C338.614 93.6613 338.133 93.7295 337.663 93.7901C337.201 93.8432 336.826 93.8886 336.538 93.9265C335.841 94.0174 335.19 94.1651 334.584 94.3697C333.985 94.5666 333.5 94.8659 333.129 95.2674C332.766 95.6613 332.584 96.1992 332.584 96.881C332.584 97.8129 332.929 98.5174 333.618 98.9947C334.315 99.4644 335.197 99.6992 336.266 99.6992ZM349.115 101.699V78.4265H363.07V80.9265H351.933V88.7901H362.024V91.2901H351.933V101.699H349.115ZM366.624 80.9265V78.4265H384.078V80.9265H376.76V101.699H373.942V80.9265H366.624ZM396.155 80.9265V78.4265H413.609V80.9265H406.291V101.699H403.473V80.9265H396.155ZM422.382 102.063C420.7 102.063 419.25 101.692 418.03 100.949C416.818 100.199 415.882 99.1538 415.223 97.8129C414.571 96.4644 414.246 94.8962 414.246 93.1083C414.246 91.3204 414.571 89.7447 415.223 88.381C415.882 87.0098 416.799 85.9416 417.973 85.1765C419.155 84.4038 420.534 84.0174 422.109 84.0174C423.018 84.0174 423.916 84.1689 424.803 84.4719C425.689 84.775 426.496 85.2674 427.223 85.9492C427.95 86.6235 428.53 87.5174 428.962 88.631C429.393 89.7447 429.609 91.1159 429.609 92.7447V93.881H416.155V91.5629H426.882C426.882 90.578 426.685 89.6992 426.291 88.9265C425.905 88.1538 425.352 87.5439 424.632 87.0969C423.92 86.65 423.079 86.4265 422.109 86.4265C421.041 86.4265 420.117 86.6916 419.337 87.2219C418.564 87.7447 417.969 88.4265 417.553 89.2674C417.136 90.1083 416.928 91.0098 416.928 91.9719V93.5174C416.928 94.8356 417.155 95.953 417.609 96.8697C418.071 97.7788 418.712 98.4719 419.53 98.9492C420.348 99.4189 421.299 99.6538 422.382 99.6538C423.087 99.6538 423.723 99.5553 424.291 99.3583C424.867 99.1538 425.363 98.8507 425.78 98.4492C426.196 98.0401 426.518 97.5326 426.746 96.9265L429.337 97.6538C429.064 98.5326 428.606 99.3053 427.962 99.9719C427.318 100.631 426.522 101.146 425.575 101.517C424.628 101.881 423.564 102.063 422.382 102.063ZM440.78 102.063C439.143 102.063 437.734 101.676 436.553 100.904C435.371 100.131 434.462 99.0666 433.825 97.7106C433.189 96.3545 432.871 94.8053 432.871 93.0629C432.871 91.2901 433.196 89.7257 433.848 88.3697C434.507 87.006 435.424 85.9416 436.598 85.1765C437.78 84.4038 439.159 84.0174 440.734 84.0174C441.962 84.0174 443.068 84.2447 444.053 84.6992C445.037 85.1538 445.844 85.7901 446.473 86.6083C447.102 87.4265 447.492 88.381 447.643 89.4719H444.962C444.757 88.6765 444.303 87.9719 443.598 87.3583C442.901 86.7371 441.962 86.4265 440.78 86.4265C439.734 86.4265 438.818 86.6992 438.03 87.2447C437.25 87.7826 436.64 88.5439 436.2 89.5288C435.768 90.506 435.553 91.6538 435.553 92.9719C435.553 94.3204 435.765 95.4947 436.189 96.4947C436.621 97.4947 437.227 98.2712 438.007 98.8242C438.795 99.3772 439.719 99.6538 440.78 99.6538C441.477 99.6538 442.109 99.5326 442.678 99.2901C443.246 99.0477 443.727 98.6992 444.121 98.2447C444.515 97.7901 444.795 97.2447 444.962 96.6083H447.643C447.492 97.6386 447.117 98.5666 446.518 99.3924C445.928 100.211 445.143 100.862 444.166 101.347C443.196 101.824 442.068 102.063 440.78 102.063ZM454.246 91.1992V101.699H451.564V78.4265H454.246V86.9719H454.473C454.882 86.0704 455.496 85.3545 456.314 84.8242C457.14 84.2863 458.238 84.0174 459.609 84.0174C460.799 84.0174 461.84 84.256 462.734 84.7333C463.628 85.203 464.321 85.9265 464.814 86.9038C465.314 87.8735 465.564 89.1083 465.564 90.6083V101.699H462.882V90.7901C462.882 89.4038 462.522 88.3318 461.803 87.5742C461.09 86.8091 460.102 86.4265 458.837 86.4265C457.958 86.4265 457.17 86.6121 456.473 86.9833C455.784 87.3545 455.238 87.8962 454.837 88.6083C454.443 89.3204 454.246 90.1841 454.246 91.1992ZM473.152 91.1992V101.699H470.47V84.2447H473.061V86.9719H473.288C473.697 86.0856 474.319 85.3735 475.152 84.8356C475.985 84.2901 477.061 84.0174 478.379 84.0174C479.561 84.0174 480.595 84.2598 481.482 84.7447C482.368 85.2219 483.057 85.9492 483.55 86.9265C484.042 87.8962 484.288 89.1235 484.288 90.6083V101.699H481.607V90.7901C481.607 89.4189 481.25 88.3507 480.538 87.5856C479.826 86.8129 478.849 86.4265 477.607 86.4265C476.75 86.4265 475.985 86.6121 475.311 86.9833C474.644 87.3545 474.118 87.8962 473.732 88.6083C473.345 89.3204 473.152 90.1841 473.152 91.1992ZM496.28 102.063C494.704 102.063 493.321 101.688 492.132 100.938C490.95 100.188 490.026 99.1386 489.359 97.7901C488.7 96.4416 488.371 94.8659 488.371 93.0629C488.371 91.2447 488.7 89.6576 489.359 88.3015C490.026 86.9454 490.95 85.8924 492.132 85.1424C493.321 84.3924 494.704 84.0174 496.28 84.0174C497.856 84.0174 499.234 84.3924 500.416 85.1424C501.606 85.8924 502.53 86.9454 503.189 88.3015C503.856 89.6576 504.189 91.2447 504.189 93.0629C504.189 94.8659 503.856 96.4416 503.189 97.7901C502.53 99.1386 501.606 100.188 500.416 100.938C499.234 101.688 497.856 102.063 496.28 102.063ZM496.28 99.6538C497.477 99.6538 498.462 99.3469 499.234 98.7333C500.007 98.1197 500.579 97.3129 500.95 96.3129C501.321 95.3129 501.507 94.2295 501.507 93.0629C501.507 91.8962 501.321 90.8091 500.95 89.8015C500.579 88.7939 500.007 87.9795 499.234 87.3583C498.462 86.7371 497.477 86.4265 496.28 86.4265C495.083 86.4265 494.098 86.7371 493.325 87.3583C492.553 87.9795 491.981 88.7939 491.609 89.8015C491.238 90.8091 491.053 91.8962 491.053 93.0629C491.053 94.2295 491.238 95.3129 491.609 96.3129C491.981 97.3129 492.553 98.1197 493.325 98.7333C494.098 99.3469 495.083 99.6538 496.28 99.6538ZM510.964 78.4265V101.699H508.283V78.4265H510.964ZM522.967 102.063C521.392 102.063 520.009 101.688 518.82 100.938C517.638 100.188 516.714 99.1386 516.047 97.7901C515.388 96.4416 515.058 94.8659 515.058 93.0629C515.058 91.2447 515.388 89.6576 516.047 88.3015C516.714 86.9454 517.638 85.8924 518.82 85.1424C520.009 84.3924 521.392 84.0174 522.967 84.0174C524.543 84.0174 525.922 84.3924 527.104 85.1424C528.293 85.8924 529.217 86.9454 529.876 88.3015C530.543 89.6576 530.876 91.2447 530.876 93.0629C530.876 94.8659 530.543 96.4416 529.876 97.7901C529.217 99.1386 528.293 100.188 527.104 100.938C525.922 101.688 524.543 102.063 522.967 102.063ZM522.967 99.6538C524.164 99.6538 525.149 99.3469 525.922 98.7333C526.695 98.1197 527.267 97.3129 527.638 96.3129C528.009 95.3129 528.195 94.2295 528.195 93.0629C528.195 91.8962 528.009 90.8091 527.638 89.8015C527.267 88.7939 526.695 87.9795 525.922 87.3583C525.149 86.7371 524.164 86.4265 522.967 86.4265C521.77 86.4265 520.786 86.7371 520.013 87.3583C519.24 87.9795 518.668 88.7939 518.297 89.8015C517.926 90.8091 517.74 91.8962 517.74 93.0629C517.74 94.2295 517.926 95.3129 518.297 96.3129C518.668 97.3129 519.24 98.1197 520.013 98.7333C520.786 99.3469 521.77 99.6538 522.967 99.6538ZM542.016 108.608C540.72 108.608 539.607 108.442 538.675 108.108C537.743 107.783 536.966 107.351 536.345 106.813C535.732 106.283 535.243 105.714 534.879 105.108L537.016 103.608C537.258 103.926 537.565 104.29 537.936 104.699C538.307 105.116 538.815 105.476 539.459 105.779C540.11 106.089 540.963 106.245 542.016 106.245C543.425 106.245 544.588 105.904 545.504 105.222C546.421 104.54 546.879 103.472 546.879 102.017V98.4719H546.652C546.455 98.7901 546.175 99.1841 545.811 99.6538C545.455 100.116 544.94 100.529 544.266 100.892C543.599 101.248 542.697 101.426 541.561 101.426C540.152 101.426 538.887 101.093 537.766 100.426C536.652 99.7598 535.769 98.7901 535.118 97.5174C534.474 96.2447 534.152 94.6992 534.152 92.881C534.152 91.0932 534.466 89.5363 535.095 88.2106C535.724 86.8772 536.599 85.8469 537.72 85.1197C538.841 84.3848 540.137 84.0174 541.607 84.0174C542.743 84.0174 543.644 84.2068 544.311 84.5856C544.985 84.9568 545.5 85.381 545.857 85.8583C546.22 86.328 546.5 86.7144 546.697 87.0174H546.97V84.2447H549.561V102.199C549.561 103.699 549.22 104.919 548.538 105.858C547.864 106.805 546.955 107.498 545.811 107.938C544.675 108.385 543.41 108.608 542.016 108.608ZM541.925 99.0174C543 99.0174 543.91 98.7712 544.652 98.2788C545.394 97.7863 545.959 97.078 546.345 96.1538C546.732 95.2295 546.925 94.1235 546.925 92.8356C546.925 91.578 546.735 90.4682 546.357 89.506C545.978 88.5439 545.417 87.7901 544.675 87.2447C543.932 86.6992 543.016 86.4265 541.925 86.4265C540.788 86.4265 539.841 86.7144 539.084 87.2901C538.334 87.8659 537.769 88.6386 537.391 89.6083C537.019 90.578 536.834 91.6538 536.834 92.8356C536.834 94.0477 537.023 95.1197 537.402 96.0515C537.788 96.9757 538.357 97.703 539.107 98.2333C539.864 98.756 540.804 99.0174 541.925 99.0174ZM554.47 101.699V84.2447H557.152V101.699H554.47ZM555.834 81.3356C555.311 81.3356 554.86 81.1576 554.482 80.8015C554.11 80.4454 553.925 80.0174 553.925 79.5174C553.925 79.0174 554.11 78.5894 554.482 78.2333C554.86 77.8772 555.311 77.6992 555.834 77.6992C556.357 77.6992 556.804 77.8772 557.175 78.2333C557.554 78.5894 557.743 79.0174 557.743 79.5174C557.743 80.0174 557.554 80.4454 557.175 80.8015C556.804 81.1576 556.357 81.3356 555.834 81.3356ZM569.382 102.063C567.7 102.063 566.25 101.692 565.03 100.949C563.818 100.199 562.882 99.1538 562.223 97.8129C561.571 96.4644 561.246 94.8962 561.246 93.1083C561.246 91.3204 561.571 89.7447 562.223 88.381C562.882 87.0098 563.799 85.9416 564.973 85.1765C566.155 84.4038 567.534 84.0174 569.109 84.0174C570.018 84.0174 570.916 84.1689 571.803 84.4719C572.689 84.775 573.496 85.2674 574.223 85.9492C574.95 86.6235 575.53 87.5174 575.962 88.631C576.393 89.7447 576.609 91.1159 576.609 92.7447V93.881H563.155V91.5629H573.882C573.882 90.578 573.685 89.6992 573.291 88.9265C572.905 88.1538 572.352 87.5439 571.632 87.0969C570.92 86.65 570.079 86.4265 569.109 86.4265C568.041 86.4265 567.117 86.6916 566.337 87.2219C565.564 87.7447 564.969 88.4265 564.553 89.2674C564.136 90.1083 563.928 91.0098 563.928 91.9719V93.5174C563.928 94.8356 564.155 95.953 564.609 96.8697C565.071 97.7788 565.712 98.4719 566.53 98.9492C567.348 99.4189 568.299 99.6538 569.382 99.6538C570.087 99.6538 570.723 99.5553 571.291 99.3583C571.867 99.1538 572.363 98.8507 572.78 98.4492C573.196 98.0401 573.518 97.5326 573.746 96.9265L576.337 97.6538C576.064 98.5326 575.606 99.3053 574.962 99.9719C574.318 100.631 573.522 101.146 572.575 101.517C571.628 101.881 570.564 102.063 569.382 102.063ZM593.053 88.1538L590.643 88.8356C590.492 88.4341 590.268 88.0439 589.973 87.6651C589.685 87.2788 589.291 86.9606 588.791 86.7106C588.291 86.4606 587.651 86.3356 586.871 86.3356C585.803 86.3356 584.912 86.5818 584.2 87.0742C583.496 87.5591 583.143 88.1765 583.143 88.9265C583.143 89.5932 583.386 90.1197 583.871 90.506C584.356 90.8924 585.113 91.2144 586.143 91.4719L588.734 92.1083C590.295 92.4871 591.458 93.0666 592.223 93.8469C592.988 94.6197 593.371 95.6159 593.371 96.8356C593.371 97.8356 593.083 98.7295 592.507 99.5174C591.939 100.305 591.143 100.926 590.121 101.381C589.098 101.836 587.909 102.063 586.553 102.063C584.772 102.063 583.299 101.676 582.132 100.904C580.965 100.131 580.227 99.0022 579.916 97.5174L582.462 96.881C582.704 97.8204 583.162 98.525 583.837 98.9947C584.518 99.4644 585.409 99.6992 586.507 99.6992C587.757 99.6992 588.75 99.4341 589.484 98.9038C590.227 98.3659 590.598 97.7219 590.598 96.9719C590.598 96.3659 590.386 95.8583 589.962 95.4492C589.537 95.0326 588.886 94.7219 588.007 94.5174L585.098 93.8356C583.5 93.4568 582.325 92.8697 581.575 92.0742C580.833 91.2712 580.462 90.2674 580.462 89.0629C580.462 88.078 580.738 87.2068 581.291 86.4492C581.852 85.6916 582.613 85.0969 583.575 84.6651C584.545 84.2333 585.643 84.0174 586.871 84.0174C588.598 84.0174 589.954 84.3962 590.939 85.1538C591.931 85.9113 592.636 86.9113 593.053 88.1538Z" fill="white"/>
</svg>
