<svg width="32" height="25" viewBox="0 0 32 25" fill="none" xmlns="http://www.w3.org/2000/svg">
<path d="M28.1748 0.261719L3.50814 0.261719C1.80768 0.261719 0.424805 1.64459 0.424805 3.34505L0.424805 21.8451C0.424805 23.5455 1.80768 24.9284 3.50814 24.9284L28.1748 24.9284C29.8753 24.9284 31.2581 23.5455 31.2581 21.8451L31.2581 3.34505C31.2581 1.64459 29.8753 0.261719 28.1748 0.261719ZM3.50814 3.34505L28.1748 3.34505L28.1748 6.42839L3.50814 6.42839L3.50814 3.34505ZM3.50814 21.8451L3.50814 12.5951L28.1763 12.5951L28.1779 21.8451L3.50814 21.8451Z" fill="#1966BB"/>
<path d="M6.59147 15.6784L15.8415 15.6784L15.8415 18.7617L6.59147 18.7617L6.59147 15.6784Z" fill="#1966BB"/>
</svg>
