<svg width="29" height="32" viewBox="0 0 29 32" fill="none" xmlns="http://www.w3.org/2000/svg">
<path d="M14.5049 0.503906C12.9391 0.503906 11.4085 0.980429 10.1066 1.87322C8.80473 2.766 7.79003 4.03495 7.19084 5.5196C6.59164 7.00425 6.43487 8.63792 6.74033 10.214C7.0458 11.7901 7.79979 13.2378 8.90695 14.3741C10.0141 15.5105 11.4247 16.2843 12.9604 16.5978C14.4961 16.9113 16.0879 16.7504 17.5345 16.1354C18.981 15.5205 20.2175 14.4791 21.0874 13.1429C21.9572 11.8068 22.4216 10.2359 22.4216 8.62891C22.4216 6.47402 21.5875 4.4074 20.1028 2.88366C18.6181 1.35993 16.6045 0.503906 14.5049 0.503906ZM14.5049 13.5039C13.5654 13.5039 12.6471 13.218 11.8659 12.6823C11.0848 12.1466 10.476 11.3853 10.1165 10.4945C9.75694 9.6037 9.66287 8.6235 9.84615 7.67784C10.0294 6.73218 10.4818 5.86354 11.1461 5.18176C11.8104 4.49998 12.6568 4.03568 13.5782 3.84758C14.4996 3.65948 15.4547 3.75602 16.3226 4.12499C17.1906 4.49397 17.9324 5.11881 18.4544 5.9205C18.9763 6.72219 19.2549 7.66472 19.2549 8.62891C19.2549 9.92184 18.7544 11.1618 17.8636 12.0761C16.9728 12.9903 15.7647 13.5039 14.5049 13.5039ZM28.7549 31.3789L28.7549 29.7539C28.7549 26.7371 27.5872 23.8438 25.5086 21.7106C23.4301 19.5773 20.611 18.3789 17.6716 18.3789L11.3382 18.3789C8.39873 18.3789 5.57964 19.5773 3.50112 21.7106C1.42259 23.8438 0.254883 26.7371 0.254883 29.7539L0.254883 31.3789L3.42155 31.3789L3.42155 29.7539C3.42155 27.599 4.25562 25.5324 5.74029 24.0087C7.22495 22.4849 9.23859 21.6289 11.3382 21.6289L17.6716 21.6289C19.7712 21.6289 21.7848 22.4849 23.2695 24.0087C24.7541 25.5324 25.5882 27.599 25.5882 29.7539L25.5882 31.3789L28.7549 31.3789Z" fill="#1966BB"/>
</svg>
