<svg width="32" height="26" viewBox="0 0 32 26" fill="none" xmlns="http://www.w3.org/2000/svg">
<path d="M28.168 0.988281L3.5013 0.988281C1.80084 0.988281 0.417969 2.37116 0.417969 4.07161L0.417969 22.5716C0.417969 24.2721 1.80084 25.6549 3.5013 25.6549L28.168 25.6549C29.8684 25.6549 31.2513 24.2721 31.2513 22.5716L31.2513 4.07161C31.2513 2.37116 29.8684 0.988281 28.168 0.988281ZM3.5013 4.07161L28.168 4.07161L28.168 7.15495L3.5013 7.15495L3.5013 4.07161ZM3.5013 22.5716L3.5013 13.3216L28.1695 13.3216L28.1711 22.5716L3.5013 22.5716Z" fill="#1966BB"/>
<path d="M6.58464 16.4049L15.8346 16.4049L15.8346 19.4883L6.58464 19.4883L6.58464 16.4049Z" fill="#1966BB"/>
</svg>
