<svg width="25" height="30" viewBox="0 0 25 30" fill="none" xmlns="http://www.w3.org/2000/svg">
<path d="M10.6012 29.3575C8.36353 29.3575 6.50519 28.9782 5.02618 28.2209C3.54581 27.4636 2.44615 26.4447 1.72445 25.1629C1.00275 23.8825 0.642578 22.5021 0.642578 21.0217C0.642578 19.2181 1.11093 17.6748 2.05037 16.3943C2.98844 15.1139 4.32366 14.1306 6.05601 13.4445C7.78836 12.7598 9.86308 12.4161 12.2802 12.4161H18.4112C18.9439 12.4161 19.3739 11.9642 19.3383 11.4328C19.2589 10.277 19.0356 9.2869 18.6673 8.46523C18.1975 7.41897 17.5032 6.63427 16.583 6.11115C15.6627 5.58802 14.4987 5.32645 13.0922 5.32645C11.4681 5.32645 10.0781 5.714 8.925 6.49048C7.94448 7.14919 7.27756 8.07356 6.9215 9.26361C6.80373 9.65665 6.4463 9.9278 6.03684 9.9278H2.43656C1.85591 9.9278 1.40399 9.39645 1.52724 8.82813C1.84085 7.38199 2.4393 6.11525 3.32259 5.02928C4.42363 3.67626 5.83964 2.63001 7.57199 1.8905C9.30434 1.151 11.1449 0.78125 13.0936 0.78125C15.6558 0.78125 17.8018 1.23317 19.5341 2.13427C21.2665 3.03673 22.5743 4.30895 23.459 5.95092C24.3423 7.59289 24.7846 9.54982 24.7846 11.8231V27.7854C24.7846 28.2962 24.3696 28.7111 23.8588 28.7111H20.9186C20.4407 28.7111 20.0422 28.3482 19.997 27.8717L19.8806 26.631C19.8039 25.8093 18.7796 25.5121 18.2523 26.1475C18.2468 26.1544 18.2414 26.1599 18.2359 26.1667C17.695 26.8158 17.054 27.3759 16.3145 27.8443C15.575 28.314 14.726 28.6838 13.7701 28.9535C12.8142 29.2247 11.7584 29.3589 10.6039 29.3589L10.6012 29.3575ZM11.6297 24.9739C12.7841 24.9739 13.8304 24.7397 14.7684 24.27C15.7065 23.8017 16.509 23.1608 17.1773 22.3487C17.8442 21.5366 18.3495 20.6163 18.6933 19.5879C19.0356 18.5594 19.2246 17.5036 19.2616 16.4217V16.2588H12.8211C11.2695 16.2588 10.0151 16.4477 9.05921 16.8271C8.10334 17.2064 7.40766 17.72 6.97491 18.3691C6.54216 19.0182 6.32579 19.7769 6.32579 20.6424C6.32579 21.5079 6.53258 22.3117 6.94889 22.943C7.36383 23.5743 7.96776 24.0715 8.76204 24.4316C9.55495 24.7932 10.5122 24.9726 11.631 24.9726L11.6297 24.9739Z" fill="url(#paint0_linear_471_2681)"/>
<defs>
<linearGradient id="paint0_linear_471_2681" x1="12.7136" y1="0.78125" x2="12.7136" y2="29.3589" gradientUnits="userSpaceOnUse">
<stop stop-color="white"/>
<stop offset="1" stop-color="#999999"/>
</linearGradient>
</defs>
</svg>
