<svg width="29" height="39" viewBox="0 0 29 39" fill="none" xmlns="http://www.w3.org/2000/svg">
<path d="M11.4001 37.9449V6.01894C11.4001 5.59852 11.0591 5.25616 10.6374 5.25616H0.958096C0.537676 5.25616 0.195312 4.91517 0.195312 4.49338V1.57919C0.195312 1.15877 0.536306 0.816406 0.958096 0.816406H27.309C27.7294 0.816406 28.0718 1.1574 28.0718 1.57919V4.49338C28.0718 4.9138 27.7308 5.25616 27.309 5.25616H17.575C17.1546 5.25616 16.8122 5.59715 16.8122 6.01894V37.9449C16.8122 38.3653 16.4712 38.7077 16.0494 38.7077H12.1616C11.7411 38.7077 11.3988 38.3667 11.3988 37.9449H11.4001Z" fill="url(#paint0_linear_471_2683)"/>
<defs>
<linearGradient id="paint0_linear_471_2683" x1="14.1336" y1="0.816406" x2="14.1336" y2="38.7077" gradientUnits="userSpaceOnUse">
<stop stop-color="white"/>
<stop offset="1" stop-color="#999999"/>
</linearGradient>
</defs>
</svg>
