<svg width="38" height="40" viewBox="0 0 38 40" fill="none" xmlns="http://www.w3.org/2000/svg">
<path d="M0.949624 2.93349C0.942777 2.76504 0.923605 1.95433 1.53849 1.2696C2.25334 0.472584 3.24482 0.495866 3.38177 0.501344H24.7342C28.5769 0.48765 32.1224 2.50485 33.952 5.77509C36.028 9.48767 35.557 14.2136 32.7441 17.603C32.7291 17.6208 32.714 17.6373 32.6989 17.6537C27.2622 23.0822 21.8255 28.5107 16.3888 33.9392C16.3641 33.9652 16.0122 34.3404 16.1327 34.8526C16.2025 35.1484 16.4052 35.3922 16.6791 35.5195C16.7654 35.5592 16.8599 35.577 16.9544 35.577H26.4474C26.4679 35.577 26.4871 35.577 26.5076 35.5743C30.212 35.2799 33.0632 32.4985 33.3398 29.2693C33.5288 27.0591 32.4949 24.857 30.6708 23.3752C30.3585 23.1219 30.3284 22.6576 30.6105 22.3701C31.3295 21.6401 32.0471 20.9102 32.766 20.1789C33.0098 19.9311 33.4028 19.9064 33.674 20.1255C36.773 22.6344 38.352 26.551 37.744 30.3772C37.0004 35.058 33.1111 38.8171 28.166 39.5101C28.1332 39.5142 28.1003 39.5169 28.0674 39.5169H7.21896C7.18746 39.5169 7.1546 39.5197 7.1231 39.5238C6.52465 39.6046 5.99878 39.2978 5.85636 38.8596C5.76461 38.5761 5.85362 38.3063 5.92757 38.1516C5.96044 38.0818 6.00563 38.0188 6.05904 37.9653C13.5225 30.4676 20.986 22.9699 28.4495 15.4722C28.4646 15.4571 28.4797 15.4407 28.4933 15.4242C30.2134 13.3632 30.5229 10.5093 29.2917 8.27981C27.7456 5.48203 24.5849 5.1383 24.1974 5.1068C24.181 5.1068 24.1645 5.10543 24.1481 5.10406C18.547 5.06982 12.946 5.03559 7.34495 5.00135C7.33125 5.00135 7.31893 5.00135 7.30524 4.99998C7.16007 4.9904 6.86838 4.99451 6.55752 5.15473C6.26856 5.304 6.0919 5.52037 5.99056 5.68334C5.92483 5.78878 5.89196 5.91067 5.8906 6.03529C5.87416 11.2214 5.85636 16.4075 5.83993 21.5922C5.83719 21.6607 5.82623 22.2359 6.24939 22.5645C6.68214 22.9 7.39425 22.8453 7.88862 22.3591C10.9425 19.2244 13.995 16.0898 17.0489 12.9551C17.3077 12.6894 17.3049 12.2649 17.042 12.0033C16.6777 11.6391 16.8366 11.0187 17.3296 10.8735L24.07 8.89332C24.5918 8.73995 25.0725 9.23295 24.9054 9.7506L22.8211 16.2322C22.6663 16.7142 22.0556 16.8621 21.6968 16.5034L21.5242 16.3308C21.2613 16.0679 20.834 16.0665 20.5683 16.3281L2.25334 34.4445C2.21226 34.4856 2.1657 34.5225 2.11503 34.5499C1.82333 34.7129 1.46317 34.6869 1.21393 34.4842C0.996186 34.3075 0.892107 34.0172 0.938669 33.731C0.945516 33.6927 0.949624 33.6543 0.949624 33.616V2.92527V2.93349Z" fill="url(#paint0_linear_471_2680)"/>
<defs>
<linearGradient id="paint0_linear_471_2680" x1="19.4002" y1="0.5" x2="19.4002" y2="39.5367" gradientUnits="userSpaceOnUse">
<stop stop-color="white"/>
<stop offset="1" stop-color="#999999"/>
</linearGradient>
</defs>
</svg>
