<svg width="24" height="39" viewBox="0 0 24 39" fill="none" xmlns="http://www.w3.org/2000/svg">
<path d="M0.103516 38.0721V1.45711C0.103516 1.10516 0.388356 0.820312 0.740304 0.820312H23.0116C23.3636 0.820312 23.6484 1.10516 23.6484 1.45711V4.6219C23.6484 4.97385 23.3636 5.2587 23.0116 5.2587H6.15237C5.80042 5.2587 5.51558 5.54354 5.51558 5.89549V16.9086C5.51558 17.2605 5.80042 17.5454 6.15237 17.5454H20.0345C20.3864 17.5454 20.6713 17.8302 20.6713 18.1822V21.2388C20.6713 21.5907 20.3864 21.8756 20.0345 21.8756H6.15237C5.80042 21.8756 5.51558 22.1604 5.51558 22.5124V38.0721C5.51558 38.424 5.23073 38.7088 4.87878 38.7088H0.740304C0.388356 38.7088 0.103516 38.424 0.103516 38.0721Z" fill="url(#paint0_linear_471_2682)"/>
<defs>
<linearGradient id="paint0_linear_471_2682" x1="11.876" y1="0.820312" x2="11.876" y2="38.7088" gradientUnits="userSpaceOnUse">
<stop stop-color="white"/>
<stop offset="1" stop-color="#999999"/>
</linearGradient>
</defs>
</svg>
